<svg xmlns="http://www.w3.org/2000/svg" viewBox="0 0 800 800"><path fill="#fff" d="M116.75 46.188c4.26 2.52 7.027 5.365 9.25 9.812.561 7.424.024 13.696-2.387 20.71-1.013 3.784-.544 6.499.387 10.29 2.877 3.797 6.375 3.946 10.857 4.66 5.305.574 10.566.469 15.893.34 15.69-.373 15.69-.373 21.688 3.625 2.573 3.911 1.73 8.06 1.406 12.531-.219 4.306-.219 4.306 1.836 7.947 8.375 6.847 21.762 7.338 32.074 8.876 8.517 1.385 16.273 3.346 22.746 9.334 1.963 3.517 2.698 6.741 3.5 10.687l2.168.41c10.513 2.272 19.206 6.883 27.894 13.153 8.253 5.908 16.361 9.502 26.252 11.771 21.883 5.147 45.58 13.699 62.686 28.666l2.063 1.766c4.753 4.385 7.84 9.597 10.937 15.234-3.371 3.732-5.381 4.725-10.27 5.238-14.642.428-28.927-5.847-42.586-10.545-6.857-2.216-13.624-2.372-20.707-1.006-2.578 1.111-2.578 1.111-3.687 3.5L288 216l-1.026 3.071c-1.28 4.532-1.325 8.915-1.302 13.6l.01 3.076c.24 17.54 1.92 35.048 3.33 52.523.315 3.939.618 7.878.922 11.817 1.465 18.967 3.054 37.911 5.16 56.82l.241 2.178C302.275 421.114 320.16 479.619 358 530l1.246 1.664c10.066 13.4 20.68 26.354 32.164 38.563a183 183 0 0 1 5.965 6.71c7.865 9.055 16.52 17.504 25.934 24.93 2.858 2.265 5.612 4.632 8.378 7.008 42.46 35.32 95.615 55.017 148.376 68.813l2.59.687c2.436.642 4.877 1.267 7.32 1.887l2.193.582c4.276 1.057 7.562 1.274 11.834.156 6.102-3.82 10.877-10.02 15.605-15.352 2.386-2.639 4.87-5.143 7.395-7.648l1.668-1.809c5.904-6.33 14.15-12.396 22.945-13.527 6.626-.096 10.704.905 16.387 4.336-1.588 10.007-6.233 15.941-12.687 23.563-3.65 4.362-5.769 7.98-7.313 13.437 6.37 3.288 13.07 2.138 19.934 1.238 11.128-1.283 21.082 1.609 31.652 4.867 6.062 1.589 12.925 2.296 18.855-.085A47.5 47.5 0 0 0 724 686l3-2.312 2-1.688c1.984.98 3.952 1.974 5.895 3.035.632.34 1.265.678 1.918 1.028l1.894 1.035c5.82 2.29 12.078 2.007 18.227 1.894l5.154-.05c2.677-.032 5.354-.067 8.03-.113a924 924 0 0 1 7.816-.087l2.393-.056c5.545-.026 9.615.995 14.673 3.314 4.284 4.504 5.332 7.5 5.195 13.55-.318 3.997-.845 7.138-3.195 10.45-6.25 3.54-13.535 5.026-20.5 6.5l-2.876.635c-4.562 1.003-9.13 1.973-13.702 2.931-13.828 2.54-13.828 2.54-25.735 9.434-4.804 2.26-8.053.23-12.902-1.453-14.35-4.573-31.26 3.452-44.772 8.135-9.328 3.209-17.529 5-27.388 5.13-10.01.28-19.749 1.539-29.625 3.063-12.974 1.99-25.909 3.413-39 4.375l-2.4.178a1357 1357 0 0 1-26.163 1.635l-2.288.123C490.189 759.761 426.713 751.225 369 737l-3.625-.882c-58.74-14.442-111.328-42.732-157.542-81.589-2.455-2.048-4.958-4.035-7.458-6.029-7.11-5.816-13.74-12.154-20.375-18.5l-1.663-1.576c-7.296-6.94-13.672-14.278-19.737-22.31a1090 1090 0 0 0-5.495-7.18c-7.127-9.28-14.159-18.607-20.875-28.19a628 628 0 0 0-4.011-5.603C78.215 495.615 47.098 417.743 27.366 334.873c-5.95-24.982-12.822-49.458-23.739-72.762C-1.317 251.377-.911 241.038 3 230c7.335-15.72 19.462-27.853 35.875-34.062L42 195l-3.312-1.25C35.47 192.344 33.55 191.284 32 188c-.798-5.928.688-10.18 4-15 5.272-6.064 11.416-7.937 19.031-9.703 7.756-1.805 13.239-3.38 17.782-10.297 2.97-4.921 4.289-10.265 3.187-16-1.361-2.548-1.361-2.548-3.062-5.062-2.04-3.196-2.913-4.73-3.376-8.563 3.024-7.099 9.664-10.986 16.063-14.875C91.186 105.102 96.041 100.917 99 95c.356-3.771.474-6.175-1.437-9.5-2.268-2.213-4.513-3.951-7.063-5.812C85.092 75.623 83.09 71.272 81 65c-.564-5.697-.286-10.128 3-15 8.102-7.883 22.742-8.549 32.75-3.812M91.633 53.73C88.613 58.947 88.768 63.213 90 69h1v-6l2.08.016q4.647.029 9.295.047l3.273.025 3.125.01 2.889.016c2.361.042 2.361.042 4.338-1.114-.412-5.254-1.177-8.283-5-12-6.92-3.825-14.423-2.527-19.367 3.73M133 104v3c5.504.324 9.437.533 14-3l-1-2c-5.356-1.658-8.211-.394-13 2m6 19c.342 8.34 1.862 14.366 7.375 20.75 6.157 5.277 10.474 7.546 18.625 7.25l2-1c-.719-7.042-.719-7.042-2-14l8 2c-4.916-7.82-14.015-10.159-22.375-12.812l-2.09-.665c-3.367-1.021-5.98-1.523-9.535-1.523m-36 25c2.78 1.112 3.984 1.005 6.879.07 5.826-1.851 12.016-1.277 18.058-1.195l3.807.027q4.628.036 9.256.098c-2.54-4.587-2.54-4.587-7-7-10.939-1.704-21.354 3.42-31 8m63.597 8.366c-12.176 3.762-24.428 6.856-36.847 9.696-15.056 3.445-15.056 3.445-29.922 7.622l-2.02.614c-2.87.914-4.647 1.54-6.808 3.702 6.476-.572 12.436-1.745 18.688-3.5 14.608-4.042 32.444-7.243 46.312.5l3 1-.062-3.875c-.063-3.875-.063-3.875 1.062-6.125 3.826.24 5.517.488 8.195 3.328l1.93 2.922c4.049 6.79 4.049 6.79 9.875 11.75 3.68.4 5.349.51 8.313-1.812 3.081-3.995 2.794-7.487 2.75-12.375l-.028-3.856L191 163l2.188 2.25c4.249 4.716 4.249 4.716 9.812 6.75-1.557-4.671-4.084-8.087-7-12l.938-1.687c1.12-2.441 1.578-4.681 2.062-7.313-11.609-.705-21.45 1.96-32.403 5.366m-5.472 38.571c-14.36 4.2-28.724 8.308-43.234 11.961-1.14.29-2.28.578-3.454.875-7.255 1.797-14.497 3.29-21.924 4.163-4.89.652-7.67 2.143-11.513 5.064 3.277 3.67 6.715 5.693 11 8v2c-2.5 1.625-2.5 1.625-5 3 3.416 3.523 3.416 3.523 7.25 6.563 2.08 1.708 2.388 2.815 2.75 5.437-9.253 2.077-17.77 2.003-26-3-3.36-2.16-5.616-4.196-7.375-7.875-.69-3.45-.765-6.616-.625-10.125-14.15 1.796-33.398 5.306-42.625 17.188C16.351 244.084 16.248 250.043 17 257c2.044 6.235 4.716 10.093 10 14l.148-3.402C28.23 244.99 28.23 244.99 35 237c4.504-3.203 8.645-3.648 14-3 3.5 1 3.5 1 6 2l-2.152.883c-5.673 2.326-5.673 2.326-9.223 6.992.778 6.482 4.372 10.803 9.316 14.77C58.134 262.063 64.703 265.199 71 264c2.54-1.373 2.54-1.373 4-4 .326-2.758.186-5.205 0-8l2.387-.184 3.3-.254 14.626-1.125 3.3-.253L101 250l-1 8c15.755-.801 29.44-9.713 42.975-17.074 13.395-7.25 25.388-10.125 40.424-10.573 10.334-.33 20.408-1.67 30.601-3.353l2.803-.451c14.132-2.344 27.839-5.972 41.572-9.987l2.411-.693C274.788 211.815 289.21 207.27 297 194c.958-2.873 1.195-4.879 1.25-7.875l.078-2.555c-.419-3.28-1.201-5.03-3.328-7.57-2.827-.832-2.827-.832-6.125-.812l-3.832-.133q-2.022-.029-4.043-.055l-3.824-.117c-39.765-.701-78.174 8.953-116.051 20.054m-103-7.937-2.93 1.688L53 190c3.94 1.314 5.302.31 9.063-1.312l3.222-1.364C68.068 186.15 68.068 186.15 70 184c-4.898-.349-7.659.532-11.875 3M339 200v2a130 130 0 0 0 6.813 5.125l1.947 1.418c3.747 2.767 3.747 2.767 8.24 3.457-.855-4.042-1.438-6.453-4.437-9.375-4.285-2.717-7.58-2.719-12.563-2.625m-76.312 28.875c-4.507 2.404-8.879 2.76-13.91 3.267-6.041.66-11.87 1.88-17.778 3.296l-2.641.622c-5.293 1.296-10.294 2.93-15.359 4.94v2l3.375 2 1.898 1.125c1.702 1.026 1.702 1.026 3.727.875l2 5-3.805-.805c-8.39-1.772-16.78-3.54-25.195-5.195l-1.25 3.375c-.88 2.376-1.35 3.384-3.545 4.707-2.32.966-4.034 1.225-6.533 1.332l-2.422.117-2.5.094-2.547.117c-2.067.094-4.135.177-6.203.258l.559 2.344C171 261 171 261 170.063 263.5c-5.3 6.423-12.979 9.303-21.063 10.5q-5.308.145-10.605-.198c-3.044-.133-4.896-.183-7.364 1.702-1.757 4.254-1.87 8.229-.285 12.512a104 104 0 0 0 3.191 5.984c3.039 5.374 5.17 9.72 5.063 16-2.583 4.517-3.778 5.632-8.777 7.137q-2.075.313-4.16.55c-6.286.828-11.245 2.18-16.376 6.063-2.271 3.03-2.48 5.515-2.687 9.25l1 2-2.875-1.062c-2.996-1.288-2.996-1.288-5.125.062-.359 5.045-.584 8.852 1.75 13.438 2.034 2.316 3.63 3.971 6.25 5.562 2.271-.003 2.271-.003 4.625-.562 5.935-.78 10.266.491 15.375 3.562 6.162 5.137 8.833 12.23 10 20 .143 3.355.14 6.705.125 10.063l.012 2.72-.004 2.627-.004 2.38c-.128 2.19-.525 4.106-1.129 6.21-2.951-.069-5.168-.265-7.441-2.273-3.694-4.698-5.157-9.805-5.559-15.727.726-3.79 1.445-4.617 4.625-6.812L131 374c-1.67-4.733-3.749-9.402-7.937-12.375-2.67-.809-4.28-1.089-7.063-.625-6.286 4.1-11.622 10.867-14 18l1.977 1.285c13.153 8.828 13.153 8.828 14.488 14.793.202 4.37-.749 6.655-3.465 9.922l2.012.664c5.606 2.013 10.057 3.882 12.988 9.336 1.946 4.563 3.44 9.263 4.96 13.98 1.881 5.574 3.415 9.295 8.04 13.02 2.953-1.012 5.046-2.037 7.5-4s4.547-2.988 7.5-4c-3.71-4.545-7.53-8.437-11.98-12.25-5.505-4.77-9.696-9.234-13.02-15.75l13 1c-.637-8.265-.637-8.265-1.562-16.5C144 387 144 387 144 383l3.313-.812c3.472-1.119 4.405-1.625 6.687-4.188l-.437 3.184c-2.364 12.7-2.364 12.7-.063 24.878L155 408c3.432-.287 4.738-.728 7.168-3.25l2.02-2.75c4.207-5.664 4.207-5.664 8.5-6.562 5.224.887 7.215 4.497 10.312 8.562l1.707 2.031c3.674 4.505 5.625 8.146 6.293 13.969-.812 3-.812 3-3 5-6.148 1.46-11.398-.65-16.934-3.223L169 421l-2 1c3.662 4.56 7.427 8.479 12.063 12.063 6.52 5.081 11.503 9.475 12.937 17.937a210 210 0 0 1-.125 4.938c-.11 5.188 1.158 8.82 4.125 13.062 2.739 2.739 5.137 3.724 9 4 3.242-.858 3.242-.858 6-2l.805 1.715 1.07 2.223 1.055 2.214c.938 2.011.938 2.011 3.07 2.848l3-12c6.724.42 11.656 2.683 16.477 7.465 3.533 4.433 4.983 9.468 6.53 14.863.991 2.667 1.743 3.97 3.993 5.672h2c-.489-6.132-1.926-10.785-4.562-16.312C241 473.362 241 473.362 241 470l2.414 2.45 3.211 3.238 1.582 1.607c2.565 2.581 5.138 5.031 7.98 7.307 4.735 4.037 8.16 8.936 9.329 15.128.157 3.81-.001 6.397-1.954 9.707-5.372 3.276-11.352 4.767-17.562 5.563q1.656 1.658 3.32 3.309a249 249 0 0 1 3.735 3.851c7.757 8.04 13.055 11.786 24.183 13.336 7.07 1.29 11.691 6.941 15.762 12.504 3.644 6.091 4.706 11.97 5 19-10.672 2.668-18.035-.133-27.29-5.422l-2.345-1.338a270 270 0 0 1-4.593-2.71c-5.456-3.18-10.529-4.642-16.772-5.53 7.383 8.098 16.616 12.427 26.563 16.688q3.606 1.574 7.21 3.152l3.656 1.593c34.53 15.15 65.296 30.766 91.321 58.63.79.84.79.84 1.594 1.698C381 637.754 381 637.754 381 640c-10.412 3.47-22.364.733-32.187-3.312C347 635 347 635 346.688 631.813L347 629l3-1c-3.468-3.468-8.586-3.873-13.371-4.125-1.877 0-3.753.057-5.629.125.537 5.64 2.285 9.503 6.504 13.383 7.704 5.97 16.742 7.155 26.183 8.18q3.18.369 6.356.742l3.083.354c5.64.67 11.257 1.5 16.874 2.341l-1.348 1.863-1.714 2.45-1.723 2.425L384 658l1 3h5l-5 5c1.425 3.557 2.985 4.961 6.313 6.813l2.3 1.332c2.922 1.047 4.424.646 7.387-.145 2.063-.238 2.063-.238 4-.312l1.938-.114c5.313 1.097 8.292 5.839 11.187 10.051 3.5 5.3 3.5 5.3 9.125 7.875 6.306-1.146 10.538-7.18 14.195-12.082 2.054-1.873 3.843-2.066 6.555-2.418l-1.531 1.898-1.969 2.477-1.969 2.46c-1.724 1.995-1.724 1.995-1.531 4.165 5.385-1.661 10.125-4.042 15.098-6.66 11.28-5.208 24.637-2.22 35.902 1.66 6.257 2.435 12.375 5.198 18.514 7.915 9.578 4.181 19.114 7.457 29.33 9.679 4.452.97 8.707 2.193 13.031 3.656 10.068 3.16 17.68 2.34 27.125-2.25-.661-3.035-.661-3.035-2.697-4.08-5.835-2.513-11.595-4.11-17.803-5.42-8.342-1.76-16.9-3.761-23.5-9.5l1-5-3.953.14c-17.895.455-31.147-3.608-44.723-15.48-5.409-5.318-5.409-5.318-7.48-8.355-4.463-6.133-9.845-7.333-16.969-9.18-18.262-5.193-39.598-12.413-53.195-26.426L408 616h-2l-.754-1.691c-1.458-2.702-3.227-4.882-5.183-7.246-7.168-8.669-7.168-8.669-6.813-13.375-.377-5.555-3.499-7.79-7.25-11.688-13.564-14.945-25.074-30.995-34.5-48.84-3.044-5.5-6.122-8.728-11.242-12.355-3.784-3.025-6.482-6.869-9.258-10.805-2.214 1.787-2.214 1.787-2.195 4.164l.07 2.461.055 2.477L329 521h-2l-.125-2.875c-1.099-7.523-6.133-14.365-11.996-19.008-3.17-1.885-6.263-2.483-9.879-3.117 1.206-5.591 2.651-8.075 7-12a97 97 0 0 0 3-4l-1.847-3.506c-2.02-4.048-3.402-8.048-4.598-12.4l-.642-2.263a1325 1325 0 0 1-2.038-7.331l-1.433-5.13c-5.19-18.692-9.852-37.52-14.442-56.37-3.112-.31-3.112-.31-5.375 1.875-3.557 3.73-5.508 8.486-7.625 13.125.334-7.562.871-14.062 4-21h6c2.464-5.26 2.464-5.26 2.563-10.937-1.47-2.383-1.47-2.383-4.688-2.875L282 373l.656-1.879c2.48-7.885 4.638-18.627 1.324-26.562L283 343l-3 1 .438-3.059c1.231-9.291 1.802-18.505 1.875-27.878l.052-3.117c-.004-7.072-1.178-13.227-3.365-19.946l-6-1 .805-2.203c4.002-11.393 5.39-21.823 5.57-33.86l.08-3.045c.015-7.101-.994-13.593-4.455-19.892-2.154-1.92-3.414-2.886-6.25-3.437-2.973.308-2.973.308-6.062 2.312M139 260l-2 2h3zm-96.187 6.938c-.599.35-1.197.7-1.813 1.062l3 3 4-4c-2.892-1.333-2.892-1.333-5.187-.062M99 285l2.52 1.023 3.293 1.352 3.269 1.336C111 290 111 290 114 292l-12 1c2.899 3.623 4.249 4.905 8.938 5.5 4.888-.332 8.515-1.953 12-5.437 1.22-1.982 1.22-1.982 1.062-4.125-1.446-2.802-3.186-3.595-6-4.938-3.575-.879-6.948-1.162-10.625-1.187l-2.852-.043c-2.77.05-2.77.05-5.523 2.23m-27 10c.095 2.048.095 2.048 1 4 2.748 2.277 2.748 2.277 5.5 1.813 2.637-.857 3.757-1.703 5.5-3.813l-1-3c-3.79-1.895-7.979-2.021-11 1m19 8-1 2 6 1-1-3zm31 1 1 2Zm-83 3 2 2v-2zm43 3v2l4 1v-5c-1.462-.092-1.462-.092-4 2m-49 3 1 2Zm39 14c2.635 3.023 4.268 4.8 8.188 5.875 2.765.351 2.765.351 4.812-.875-.684-2.991-.684-2.991-2.562-4.187-3.55-1.183-6.705-.937-10.438-.813m-24 12c-.95 2.24-.95 2.24-1 5 2.333 2.834 2.333 2.834 5 5l3-1-4-9zm25 0-1 5q2.186.755 4.375 1.5l2.46.844c2.107.753 2.107.753 4.165.656-.355-2.627-.725-4.58-2.187-6.812-2.607-1.708-4.773-1.39-7.813-1.188m-2 12c2.386 1.892 4.072 3.024 7 4l-1-3zm-13 17c2.77 13.927 5.521 26.925 15 38 2.425-4.85-1.41-13.96-3-19-2.8-7.31-6.196-13.624-12-19m-9 5c2.01 7.419 4.718 14.313 7.875 21.313l1.438 3.217q1.533 3.425 3.07 6.848c1.395 3.124 2.77 6.256 4.134 9.394a2163 2163 0 0 0 3.404 7.773 1074 1074 0 0 1 2.399 5.532C75.608 436.774 80.312 445.643 89 452c-1.625-5.045-3.547-9.928-5.55-14.834-1.367-3.379-2.677-6.76-3.86-10.209-2.608-7.531-5.579-13.896-10.13-20.446-3.269-4.844-5.398-9.894-7.522-15.324C59.11 384.01 56.074 378.045 50 373zm55 23 2 2 2-2zm5 17-1 2c2.74 1.37 4.97 1.126 8 1l2-1v-2zm44 2v4h2v-4zm-80 29c1.995 8.894 5.423 16.787 9.438 24.938l.935 1.917c7.805 15.978 16.948 30.948 26.928 45.649a846 846 0 0 1 7.76 11.695c1.992 3.046 3.992 6.086 5.992 9.126q1.507 2.297 3.004 4.6c1.41 2.17 2.833 4.33 4.26 6.49l1.295 2.013c1.052 1.579 2.212 3.084 3.388 4.572h3l-.146 2.236c.164 3.102.812 4.411 2.49 6.987l1.516 2.362 1.64 2.477 1.667 2.571a974 974 0 0 0 3.32 5.072 574 574 0 0 1 3.74 5.752c11.476 17.64 24.54 32.17 41.04 45.173 5.183 4.099 9.757 8.331 14.108 13.308 7.71 8.672 16.284 16.25 28.32 17.296 2.103.014 4.206-.096 6.305-.234-2.822-7.969-7.27-13.874-14.875-17.812-3.23-1.49-6.387-2.567-9.812-3.5-4.62-1.418-6.825-4.043-9.75-7.782-1.583-2.103-1.583-2.103-4.313-3.843-3.281-3.008-4.43-6.73-5.25-11.063l1-2-1.758-.078-2.367-.172-2.32-.14c-5.28-1.26-8.435-4.058-11.223-8.579a281 281 0 0 1-2.52-4.531c-3.69-8.078-3.69-8.078-10.117-13.187l-2.57-.313c-4.496-.55-6.835-1.857-10.125-5-4.82-7.278-7.58-15.908-10.289-24.149-2.564-7.439-6.305-13.782-13.149-17.976-4.667-3.409-6.695-7.516-9.05-12.62-3.147-6.798-7.482-11.935-12.375-17.528-11.304-12.95-19.32-26.475-25.355-42.567C82.186 452.828 82.186 452.828 73 444m98-8c.48 3.163 1.222 5.46 2.625 8.375 1.555 4.1 1.323 6.402.375 10.625-8.617-.818-15.243-2.869-22.965-6.734-4.288-1.788-7.457-1.732-12.035-1.266-.515 5.404.992 7.625 4 12l.176 2.988L144 465c2.499 1.405 4.569 2.292 7.25 3.188 7.14 2.636 13.753 5.802 20.438 9.437 12.976 7.373 12.976 7.373 27.312 10.375-.481-6.418-3.218-11.522-8.004-15.785a108 108 0 0 0-4.129-3.184c-5.116-5.565-5.927-14.397-7.328-21.584-.884-4.271-1.676-8.012-4.539-11.447zm-33 36-1 2h4v-2zm0 22v2a125 125 0 0 0 6 4l2-1-2.875-2.5-1.617-1.406c-1.467-1.29-1.467-1.29-3.508-1.094m94 0-2 2c3.203 2.834 5.78 3.52 10 4-1.873-3.921-1.873-3.921-5.562-5.937zm-43 5c.624 3.619 1.17 4.17 4 7l-10-2 1 7-8-1c1.393 3.186 3.029 5.198 5.563 7.563 2.433 2.271 3.36 3.205 4.437 6.437h-5c3.892 4.151 8.183 7.572 12.695 11.035 2.162 1.843 3.712 3.627 5.305 5.965l-1.828-.621-2.422-.817-2.39-.808A85 85 0 0 0 186 537c3.375 8.27 14.803 11.338 22.46 14.816 5.603 2.603 10.65 5.707 15.762 9.16 4.47 2.967 8.604 4.686 13.778 6.024a367 367 0 0 0-2.812-3.437l-1.583-1.934c-1.613-1.884-1.613-1.884-4.605-2.629l.875-3.562c.35-2.714.38-3.997-1.004-6.387-2.25-2.6-4.651-4.86-7.246-7.114L220 540l.375-2.875L220 534c-2.389-1.78-4.884-3.134-7.508-4.543-2.914-1.704-4.664-3.631-6.492-6.457h10l-2.375-1.875C211 519 211 519 209 517c.059-1.953.059-1.953 1-4 2.285-1.484 2.285-1.484 5.063-2.75l2.785-1.297L220 508v-2c-15.184-5.112-15.184-5.112-31-7m-33 9c3.173 3.536 5.167 5.586 10 6-3.173-3.536-5.167-5.586-10-6m109 45 1 2 2-1zm15 8v2l2-1zm-70 9c3.435 2.29 4.985 2.178 9 2-3.435-2.29-4.985-2.178-9-2m39 2c3.112 3.378 5.514 5.796 10 7 3.209.168 3.209.168 6 0-2.896-2.35-5.654-3.835-9.125-5.187l-2.633-1.043c-2.162-.878-2.162-.878-4.242-.77m-21 4c1.752 1.648 1.752 1.648 4 3 2.208-.217 2.208-.217 4-1-3.088-1.765-4.233-2-8-2m-17 9c1.37 5.654 5.26 8.982 10 12 11.7 4.834 24.527 8.262 37.188 5.25 2.915-.999 2.915-.999 4.25-3.375L263 597c-5.209-3.904-10.704-5.964-16.812-8.125-.947-.347-1.894-.694-2.87-1.05-7.804-2.804-15.334-5.119-23.693-5.075l-3.023-.016c-2.837.085-2.837.085-5.602 2.266m55 2c6.134 7.853 13.602 14.86 23.813 16.434 5.24.795 5.24.795 10.187-.434v-2c-.568-.182-1.137-.364-1.723-.55-8.522-2.775-15.695-6.182-23.312-10.927-3.062-1.573-5.562-2.149-8.965-2.523m20 0c10.333 8.814 23.69 11.512 37 11l-1-2c-3.321-.927-6.641-1.685-10.01-2.412-4.06-.932-6.743-1.864-9.99-4.588-5.54-1.754-10.21-2.207-16-2m123 14-2 4h5l-1-4zm-118 10c2.775 3.084 4.99 4.854 9 6 3.209.168 3.209.168 6 0-2.7-3.335-6.033-4.564-10-6-2.793-.254-2.793-.254-5 0m132 6v2l4-1zm-134 12v2c5.504 4.15 11.198 6.945 18 8 2.166-.418 2.166-.418 4-1a529 529 0 0 0-6.5-3.937l-1.82-1.131c-4.606-2.72-8.343-3.56-13.68-3.932m22 0v2l6 1-2-3zm-37 4v2l7 1v-2zm384 15v4h2v-4zm-387.812 6.5L269 656c2.343-.256 4.678-.593 7-1l1-2c-3.717-.349-3.717-.349-6.812 1.5M307 653l-1 2 7 1 1-2zm18 5-1 2c4.812 2.29 4.812 2.29 10 3-.498-2.756-.498-2.756-2-5q-3.5-.062-7 0m44 7c2.685 1.314 2.685 1.314 6 2 3.335-1.25 3.335-1.25 6-3v-1a365 365 0 0 0-4.875-.125l-2.742-.07c-2.571-.048-2.571-.048-4.383 2.195m254.313 1.5L622 668l4 1 2-4c-3.003-.332-3.003-.332-4.687 1.5M363 674v1h5v-1zm-79 1v3Zm-9 5c7.018 7.954 16.968 12.074 26.438 16.438 7.93 3.713 15.371 7.546 22.562 12.562-8.495-1.967-16.079-5.075-23.937-8.812l-3.303-1.542a464 464 0 0 1-19.399-9.649L275 688l-2 1c24.07 17.33 54.533 27.846 82.625 36.938l2.284.745c16.344 5.074 33.14 8.232 50.029 10.817l5.73.893A1623 1623 0 0 0 469 746l3.205.402c48.862 6.623 48.862 6.623 94.795-3.402-6.728-2.048-12.837-2.234-19.84-2.125l-3.398.023c-4.769.032-9.537.089-14.306.143-3.494.036-6.989.06-10.483.084l-3.23.05c-7.137.047-13.752-.464-20.368-3.3-3.896-1.435-7.715-1.22-11.747-.383-18.886 3.648-40.209.094-59.065-2.18l-3.18-.37c-17.956-2.12-33.219-6.24-49.758-13.63a1978 1978 0 0 0-9.175-4.002c-6.136-2.643-12.377-4.98-18.637-7.31-11.962-4.492-23.382-9.86-34.828-15.523a1671 1671 0 0 0-14.423-7.04l-2.489-1.228c-5.552-2.682-11.123-4.601-17.073-6.209m29 1 1 4h4l1-3c-1.066-1.296-1.066-1.296-3.562-1.062zm172.063 10.688-3.153 1.511c-3.701 2.29-6.076 4.767-7.738 8.82l-.422 1.793L464 707c2.683-.516 4.649-1.324 7.125-2.562C474 703 474 703 476 703l2 6c4.439-1.356 6.707-2.924 9-7 .645-4.987.832-8.753-2-13-3.668 0-5.652 1.075-8.937 2.688M462 693l-1 2 3-1zm141 6c-.878 2.085-.878 2.085-1 4 2.899.966 4.586 1.094 7.586 1.027l2.79-.04 2.999-.05c8.028-.076 15.892.213 23.875 1.063 17.62 2.22 17.62 2.22 33.75-4v-1q-7.65-1.052-15.302-2.081-2.59-.351-5.18-.707c-8.955-1.233-17.887-2.36-26.913-2.919l-2.076-.134c-7.116-.377-14.846.074-20.529 4.841m-109 1c-1.052 3.127-1.052 3.127-1 6l3 1c4.8-2.574 8.665-6.038 11-11-5.641-.55-8.555.688-13 4m233-3-1 3h3v-3zm-37 2-2 4h3zm54 2c3.524 3.524 7.494 3.183 12.313 3.25 7.86-.033 15.065-1.456 22.687-3.25v-1c-4.52-.03-9.042-.047-13.562-.062l-3.87-.026-3.76-.01-3.443-.016c-3.517.12-6.893.556-10.365 1.114m-405 2v2l6 2 1-3zm176 6v3c3.337-1.173 5.774-2.189 8-5v-2c-3.948 0-5.185 1.337-8 4m-90-2-2 4 4-2v-2zm72 4-1 3c1.725.955 1.725.955 4 1 3.032-2.538 4.742-4.225 6-8-3.388 0-6.34 2.006-9 4m-130 2c12.637 11.142 36.083 13.736 52 13-3.363-2.923-6.912-4.168-11.125-5.375l-2.173-.632c-7.074-1.967-14.246-3.41-21.452-4.806l-3.426-.663c-4.68-.874-9.05-1.651-13.824-1.524m155.813 2L521 717l2 2a105 105 0 0 0 5-4v-2c-3.125-.337-3.125-.337-5.187 2M537 713l-3 3 5-2zm8.875 2.5-2.195 1.406L542 718l1 4a396 396 0 0 0 3.938-2.812l2.214-1.583c2.117-1.564 2.117-1.564 2.848-4.605-2.676 0-3.89 1.058-6.125 2.5M585 742l-5 1v2h5z"/><path fill="#fff" d="M181 366c2.66 1.33 2.868 2.584 4.023 5.297l1.157 2.656 2.367 5.547c2.039 4.68 3.95 8.694 7.453 12.5l-1.277-2.816q-.832-1.873-1.66-3.747l-.842-1.845c-1.857-4.228-2.754-7.995-3.221-12.592 4.418 1.43 7.467 3.818 10.813 6.938l1.585 1.47C208.554 386.222 213.93 394.01 218 403l-2.062.938c-2.18 1.858-2.18 1.858-1.981 4.265.27 2.287.607 4.536 1.043 6.797h-3l-1.437-1.937c-1.788-2.36-2.7-2.668-5.563-3.063l-.812 1.938C203 414 203 414 200 415c-6.359-2.685-8.622-7.907-11.228-14.052-7.95-20.061-7.95-20.061-7.834-29.698l.027-2.984zm63-4c1.89.223 1.89.223 4 1 1.047 1.996 1.047 1.996 1.75 4.438l.734 2.433C251 372 251 372 251 374l2.375-.125C256 374 256 374 258 376c.085 3.161-.006 6.258-.166 9.414-.125 4.386.449 6.241 3.166 9.586.401 5.365-.484 10.808-4 15l-3 1c-8.063-7.487-12.574-16.622-13.203-27.516-.097-7.71.355-14.28 3.203-21.484m19-104c2.188.313 2.188.313 4 1 1.045 6.088.79 10.971-.437 17l-.448 2.348c-.36 1.886-.736 3.77-1.115 5.652 2.715-4.072 3.557-8.364 4.805-13.066C271 268 271 268 273.133 266.598L275 266c-1.164 11.21-2.561 22.418-9 32-2.861 1.43-4.84 1.387-8 1-3.653-3.905-4-8.86-4-14 .65-8.703 1.687-18.829 7.492-25.79.747-.598.747-.598 1.508-1.21m-130 82a662 662 0 0 1 7.688 3.625l2.185 1.004c4.983 2.412 7.986 4.778 11.127 9.371.793 5.455-.29 9.329-3 14-2.312 1.188-2.312 1.188-5 1-9.601-4.907-15.676-13.949-21-23l2-1c2.82 1.434 2.82 1.434 6.125 3.438l3.32 1.996L139 352l-.805-1.61zm16-17c13.675 1.19 24.302 8.934 33.758 18.457C184 343 184 343 185 346c-11.15-1.758-24.96-4.463-33-13-2.438-3.809-3-5.445-3-10m14-32a503 503 0 0 1 11.563 10.125c3.326 2.974 6.64 5.538 10.437 7.875l-1 3h-3l1.531 1.715 1.969 2.223 1.969 2.214C188 320 188 320 188 321c-8.622 0-14.434-3.521-21-9-1-3-1-3-.875-6.562.095-5.122-1.473-9.64-3.125-14.438m-39-68c5.41 2.425 8.709 5.063 12 10 .813 3.875.813 3.875 1 7-5.628.396-9.351-.742-14.187-3.437-5.172-2.88-5.172-2.88-10.813-4.563.335-3.018.866-4.809 2.625-7.312 3.363-2.39 5.317-2.238 9.375-1.688m110.25-43.562c4.686.702 5.798 2.213 8.586 5.835 2.454 3.64 2.245 6.37 2.164 10.727-4.409 2.204-10.36 1.335-15.062.375C228 195 228 195 227.063 192.313c-.073-3.836.623-6.718 1.937-10.313 2-2 2-2 5.25-2.562m-58.344 17.429 2.754-.004 2.84.012 2.84-.012 2.754.004 2.49.004c2.552.136 4.925.57 7.416 1.129-1.003 2.712-1.546 3.785-4.207 5.047l-2.606.703-2.582.734c-2.624.52-4.938.684-7.605.516l-1-1c-6.32-.664-11.726.22-17.676 2.344-2.538.716-4.7.767-7.324.656 2.055-4.93 4.975-6.244 9.648-8.203 4.088-1.385 7.951-1.924 12.258-1.93M136 331c10.32 2.601 21.147 7.57 27 17v2c-6.35.454-10.783-.196-16-4-2.892-2.83-5.485-5.833-8-9l-1.73-2.156C136 333 136 333 136 331m219 233c6.264 1.518 10.006 6.844 13.3 12.059 2.305 4.299 3.296 8.09 3.7 12.941-4.471-1.405-6.872-3.55-10-7l-2.125-2.187C356.765 575.149 355 569.62 355 564M157 319c12.283.266 23.043 4.882 33 12l1 2c-8.702-.92-16.135-3.904-24.082-7.344-3.254-1.406-6.534-2.593-9.918-3.656zm-18-106c2.31 1.112 3.978 2.383 6 4-.875 4.875-.875 4.875-2 6-5 .565-8.819.756-13.125-2L128 219c.375-2.437.375-2.437 1-5 3.207-1.603 6.521-1.496 10-1m158 251c2.313.063 2.313.063 5 1 3.024 5.11 3.481 9.126 3 15-1 2.5-1 2.5-2 4-4.139-7.036-6.28-11.745-6-20m-32-281v4c-3.168 2.444-6.066 3.438-10 4l-2 6h-2c-1.006-3.2-1.219-4.54.25-7.625 4.061-5.512 6.833-6.529 13.75-6.375m-90 203c2.375-.125 2.375-.125 5 0 2 2 2 2 2.195 3.945L182 396l-2 1c-5.745-5.303-5.745-5.303-6-9zm159 148c3.81.544 5.64 1.989 8 5 .75 3.25.75 3.25 1 6-2.812-.062-2.812-.062-6-1-1.95-3.51-3-5.973-3-10m-57-172 2 1c.393 6.977-.369 12.517-3 19-2.569-3.8-1.898-6.731-1.187-11.125l.582-3.758C276 364 276 364 277 362m-94-69h5c1.478 2.957 1.06 5.742 1 9-4.75-.75-4.75-.75-7-3 .375-3.125.375-3.125 1-6m-23 84c3 2 3 2 3.75 5.5.25 3.5.25 3.5-.75 5.5l-3-1c-1.125-6.625-1.125-6.625 0-10m6-20c3.337 1.38 5.223 2.82 7 6-.312 2.25-.312 2.25-1 4-3-1-3-1-4.687-3.312C166 361 166 361 166 357m104 3h2v14l-3-1a535 535 0 0 1-.062-4.25l-.036-2.39c.094-2.267.466-4.189 1.098-6.36m43 144 2 1v8h-3l-1-1c.72-6.72.72-6.72 2-8m-87-144 2 1c1.283 3.85 1.066 6.947 1 11l-3-1zm24-39c2.333 2.121 3.915 4.016 5 7-.375 2.25-.375 2.25-1 4-2.826-3.797-4.566-6.186-4-11M120 214v4c-2.375.625-2.375.625-5 1l-2-2c3.625-3 3.625-3 7-3m88 239 4 1 1 4-4 1zm80-33 2 1v7l-3-1zm-51 36c3.161 1.37 3.993 1.99 6 5h-4l-2-2zm-79-97h4l-1 4-4-1zm-9-152h3v5l-4-1zm134 195 2 1-1 6h-2zm65 151 2 1v7l-2-1zM246 310l2 1c.625 2.563.625 2.563 1 5l-3-1zm225 341 4 1v2l-4-1zM155 281h3v3l-3-1z"/></svg>