<?xml version="1.0" encoding="UTF-8"?>
<svg version="1.1" xmlns="http://www.w3.org/2000/svg" width="800" height="800">
<path d="M0 0 C4.2609367 2.52075583 7.02665122 5.36580244 9.25 9.8125 C9.81109889 17.23626999 9.27394204 23.50852885 6.86328125 30.5234375 C5.84965892 34.30676669 6.31878169 37.02111116 7.25 40.8125 C10.12677726 44.6092162 13.62519062 44.75856806 18.10742188 45.47265625 C23.4120964 46.04631279 28.67284825 45.94101995 34 45.8125 C49.69029851 45.43936567 49.69029851 45.43936567 55.6875 49.4375 C58.26052364 53.34849594 57.41779825 57.49688408 57.09375 61.96875 C56.87514923 66.27458509 56.87514923 66.27458509 58.93017578 69.91577148 C67.30459099 76.76283861 80.69150515 77.25359092 91.00390625 78.79101562 C99.52128256 80.17637201 107.27679953 82.13728957 113.75 88.125 C115.71325676 91.64250169 116.4475172 94.86695956 117.25 98.8125 C117.96542969 98.94785156 118.68085938 99.08320313 119.41796875 99.22265625 C129.93144423 101.49400218 138.62421851 106.10553608 147.3125 112.375 C155.565341 118.28313336 163.673463 121.87761116 173.56420898 124.14672852 C195.44680677 129.2936295 219.14459249 137.84526843 236.25 152.8125 C236.930625 153.39515625 237.61125 153.9778125 238.3125 154.578125 C243.06645626 158.96323982 246.15354746 164.17536845 249.25 169.8125 C245.87891585 173.54477173 243.86855524 174.53757423 238.98046875 175.05078125 C224.33773195 175.47814223 210.0526349 169.20318994 196.39379883 164.50512695 C189.5366351 162.28968754 182.76954479 162.1332896 175.6875 163.5 C173.1092009 164.61097089 173.1092009 164.61097089 172 167 C171.62875 168.3921875 171.62875 168.3921875 171.25 169.8125 C170.91129883 170.82602539 170.57259766 171.83955078 170.22363281 172.88378906 C168.94397412 177.41563199 168.89891361 181.79829553 168.921875 186.484375 C168.92523865 187.49916931 168.92860229 188.51396362 168.93206787 189.55950928 C169.17199804 207.09963447 170.85212741 224.60724006 172.26177979 242.0826416 C172.57662946 246.02104559 172.88023787 249.96028155 173.18387985 253.89956284 C174.64937088 272.86655016 176.23770443 291.81098257 178.34375 310.71875 C178.42346291 311.43760628 178.50317581 312.15646255 178.58530426 312.89710236 C185.52451778 374.92615227 203.41028055 433.43100385 241.25 483.8125 C241.66121094 484.36164063 242.07242187 484.91078125 242.49609375 485.4765625 C252.56248312 498.87641196 263.17518888 511.83049588 274.66015625 524.0390625 C276.71125599 526.23556449 278.68506789 528.45691317 280.625 530.75 C288.49013011 539.80449125 297.145425 548.25328654 306.55859375 555.6796875 C309.41710507 557.94492289 312.17054455 560.31156787 314.9375 562.6875 C357.39714124 598.00694483 410.55183042 617.70462732 463.3125 631.5 C464.16718872 631.72672394 465.02187744 631.95344788 465.90246582 632.18704224 C468.33927235 632.82965863 470.77985831 633.45481835 473.22265625 634.07421875 C474.30816521 634.36239975 474.30816521 634.36239975 475.41560364 634.65640259 C479.69179285 635.71316689 482.97766306 635.93060252 487.25 634.8125 C493.35190754 630.99280197 498.12695063 624.7929337 502.85546875 619.4609375 C505.24143314 616.82197525 507.72453353 614.31740079 510.25 611.8125 C510.80042969 611.21566406 511.35085938 610.61882813 511.91796875 610.00390625 C517.82246785 603.67440464 526.0680404 597.60719137 534.86328125 596.4765625 C541.4890197 596.38067627 545.56701213 597.38126204 551.25 600.8125 C549.66153535 610.81982728 545.01714959 616.7534675 538.5625 624.375 C534.91235762 628.7379648 532.79421973 632.35625694 531.25 637.8125 C537.62046339 641.1004811 544.32061851 639.9506234 551.18359375 639.05078125 C562.31175876 637.7675713 572.26551706 640.65933151 582.8359375 643.91796875 C588.89818094 645.50635977 595.76117121 646.21361364 601.69140625 643.83203125 C603.67928175 642.60611182 605.45635111 641.30579731 607.25 639.8125 C608.24 639.049375 609.23 638.28625 610.25 637.5 C610.91 636.943125 611.57 636.38625 612.25 635.8125 C614.23377512 636.79339103 616.20231668 637.78644623 618.14453125 638.84765625 C618.77746094 639.18667969 619.41039062 639.52570312 620.0625 639.875 C620.68769531 640.21660156 621.31289063 640.55820312 621.95703125 640.91015625 C627.77693917 643.20044369 634.0351565 642.91783717 640.18359375 642.8046875 C641.90168682 642.78717335 643.61978616 642.77026486 645.33789062 642.75390625 C648.01490994 642.72298642 650.69160856 642.68742891 653.3684082 642.64111328 C655.97350933 642.59850481 658.57823751 642.57526513 661.18359375 642.5546875 C661.97342148 642.53606659 662.76324921 642.51744568 663.57701111 642.4982605 C669.12225807 642.47297726 673.19213997 643.49346756 678.25 645.8125 C682.5340883 650.31628514 683.58173604 653.3119226 683.4453125 659.36328125 C683.12661125 663.35979497 682.59963306 666.50037723 680.25 669.8125 C673.99929406 673.35215621 666.71513375 674.83833458 659.75 676.3125 C658.3263916 676.62658813 658.3263916 676.62658813 656.87402344 676.94702148 C652.31218112 677.95097759 647.74337521 678.92004581 643.171875 679.87890625 C629.34397661 682.41892595 629.34397661 682.41892595 617.4375 689.3125 C612.63305219 691.57341662 609.38371494 689.54297824 604.53515625 687.859375 C590.18530551 683.28653315 573.27584187 691.31177193 559.76318359 695.99414062 C550.43458533 699.2031166 542.23418653 700.99433177 532.375 701.125 C522.36531818 701.40377987 512.62638612 702.66305767 502.75 704.1875 C489.7756213 706.17783672 476.84138766 707.60012298 463.75 708.5625 C462.95827393 708.62121277 462.16654785 708.67992554 461.35083008 708.74041748 C452.63506082 709.37780753 443.91387353 709.90607847 435.1875 710.375 C434.43231079 710.41582703 433.67712158 710.45665405 432.89904785 710.49871826 C373.43816549 713.57349032 309.96323903 705.03718019 252.25 690.8125 C251.05358887 690.52149414 249.85717773 690.23048828 248.62451172 689.93066406 C189.88559518 675.48854721 137.29715628 647.19890434 91.08349609 608.34179688 C88.6278576 606.29357856 86.12480013 604.30643215 83.625 602.3125 C76.51405602 596.49641684 69.88525384 590.15856602 63.25 583.8125 C62.70134277 583.29252441 62.15268555 582.77254883 61.58740234 582.23681641 C54.29071225 575.29738601 47.91462227 567.95854969 41.85009766 559.92626953 C40.03099268 557.52318578 38.19382112 555.13448328 36.35546875 552.74609375 C29.22750343 543.46678196 22.19596162 534.13904656 15.48046875 524.55664062 C14.15605642 522.6793387 12.81368759 520.81577145 11.46875 518.953125 C-38.53478464 449.42749146 -69.65199797 371.55571785 -89.38430786 288.68560791 C-95.33325083 263.70367325 -102.20617853 239.22747905 -113.12304688 215.92358398 C-118.0667074 205.18916135 -117.66133744 194.85087176 -113.75 183.8125 C-106.4154544 168.09315697 -94.287887 155.95949366 -77.875 149.75 C-76.84375 149.440625 -75.8125 149.13125 -74.75 148.8125 C-75.843125 148.4 -76.93625 147.9875 -78.0625 147.5625 C-81.27894447 146.15611942 -83.19900185 145.09696667 -84.75 141.8125 C-85.54802323 135.88432745 -84.06185788 131.63331087 -80.75 126.8125 C-75.4778285 120.74813692 -69.33371752 118.87573344 -61.71875 117.109375 C-53.9633131 115.30489216 -48.47997705 113.72887042 -43.9375 106.8125 C-40.96757834 101.89146475 -39.64829178 96.54728474 -40.75 90.8125 C-42.11105267 88.26487495 -42.11105267 88.26487495 -43.8125 85.75 C-45.85192683 82.55424743 -46.72484211 81.02095107 -47.1875 77.1875 C-44.16402113 70.08889744 -37.52433206 66.20159683 -31.125 62.3125 C-25.56397585 58.91496418 -20.70867978 54.72985957 -17.75 48.8125 C-17.3942106 45.04113234 -17.27585183 42.63710551 -19.1875 39.3125 C-21.45533965 37.09997351 -23.69985949 35.36114044 -26.25 33.5 C-31.65769923 29.43533133 -33.65949965 25.08400106 -35.75 18.8125 C-36.31430864 13.11515311 -36.03586378 8.68464284 -32.75 3.8125 C-24.64825594 -4.070278 -10.00823263 -4.73603866 0 0 Z M-25.1171875 7.54296875 C-28.13675398 12.75953015 -27.98244151 17.02538336 -26.75 22.8125 C-26.42 22.8125 -26.09 22.8125 -25.75 22.8125 C-25.75 20.8325 -25.75 18.8525 -25.75 16.8125 C-24.72060303 16.82035522 -24.72060303 16.82035522 -23.67041016 16.82836914 C-20.57194936 16.84910956 -17.47350314 16.86215076 -14.375 16.875 C-12.75464844 16.88756836 -12.75464844 16.88756836 -11.1015625 16.90039062 C-10.0703125 16.90361328 -9.0390625 16.90683594 -7.9765625 16.91015625 C-6.54691162 16.91801147 -6.54691162 16.91801147 -5.08837891 16.92602539 C-2.72675594 16.96892599 -2.72675594 16.96892599 -0.75 15.8125 C-1.16208811 10.55837663 -1.92717087 7.52913943 -5.75 3.8125 C-12.67067936 -0.01208596 -20.1730657 1.28512316 -25.1171875 7.54296875 Z M16.25 57.8125 C16.25 58.8025 16.25 59.7925 16.25 60.8125 C21.75366792 61.13624517 25.68672206 61.34536034 30.25 57.8125 C29.92 57.1525 29.59 56.4925 29.25 55.8125 C23.89395089 54.15467527 21.03866769 55.41816615 16.25 57.8125 Z M22.25 76.8125 C22.59179454 85.15228675 24.1118264 91.1788253 29.625 97.5625 C35.78178102 102.83974087 40.09879303 105.10890753 48.25 104.8125 C48.91 104.4825 49.57 104.1525 50.25 103.8125 C49.5312193 96.77042295 49.5312193 96.77042295 48.25 89.8125 C50.89 90.4725 53.53 91.1325 56.25 91.8125 C51.33437195 83.99218265 42.23507805 81.65399303 33.875 79 C33.1850293 78.78085938 32.49505859 78.56171875 31.78417969 78.3359375 C28.41773284 77.3143041 25.80486509 76.8125 22.25 76.8125 Z M-13.75 101.8125 C-10.97070245 102.92421902 -9.76628 102.81775731 -6.87109375 101.8828125 C-1.04468705 100.03143093 5.14491485 100.60511551 11.1875 100.6875 C13.07178711 100.70103516 13.07178711 100.70103516 14.99414062 100.71484375 C18.07962522 100.73830751 21.16471205 100.77113799 24.25 100.8125 C21.71019956 96.22544293 21.71019956 96.22544293 17.25 93.8125 C6.31132509 92.10828615 -4.10372089 97.23295335 -13.75 101.8125 Z M49.84692383 110.17895508 C37.67138757 113.94099343 25.4192212 117.03421646 13 119.875 C-2.05644806 123.31904079 -2.05644806 123.31904079 -16.921875 127.49609375 C-17.58842102 127.6987233 -18.25496704 127.90135284 -18.94171143 128.11012268 C-21.81107466 129.02412803 -23.5886318 129.6511318 -25.75 131.8125 C-19.27388737 131.24088725 -13.31403553 130.06714109 -7.0625 128.3125 C7.54587566 124.27065693 25.38189818 121.06999473 39.25 128.8125 C40.735 129.3075 40.735 129.3075 42.25 129.8125 C42.229375 128.53375 42.20875 127.255 42.1875 125.9375 C42.125 122.0625 42.125 122.0625 43.25 119.8125 C47.07566401 120.05228521 48.76713084 120.30041811 51.4453125 123.140625 C52.08210938 124.10484375 52.71890625 125.0690625 53.375 126.0625 C57.42382228 132.853296 57.42382228 132.853296 63.25 137.8125 C66.93012333 138.2125134 68.5989289 138.32279897 71.5625 136 C74.64423834 132.00515401 74.35735066 128.51372233 74.3125 123.625 C74.30347656 122.35269531 74.29445313 121.08039063 74.28515625 119.76953125 C74.27355469 118.79371094 74.26195312 117.81789063 74.25 116.8125 C75.3328125 117.92625 75.3328125 117.92625 76.4375 119.0625 C80.68656954 123.778862 80.68656954 123.778862 86.25 125.8125 C84.69298069 121.14144208 82.16552627 117.72544315 79.25 113.8125 C79.7140625 112.9771875 79.7140625 112.9771875 80.1875 112.125 C81.30893939 109.68422014 81.76553529 107.44432182 82.25 104.8125 C70.64128741 104.10775522 60.80034469 106.77296342 49.84692383 110.17895508 Z M44.375 148.75 C30.01537525 152.94977634 15.65071127 157.05797092 1.140625 160.7109375 C0.00086212 160.99956161 -1.13890076 161.28818573 -2.3132019 161.58555603 C-9.56782826 163.38266223 -16.80969871 164.87465914 -24.23660278 165.74842834 C-29.12724136 166.40062688 -31.90634626 167.89108516 -35.75 170.8125 C-32.47291137 174.48283927 -29.03477792 176.50531189 -24.75 178.8125 C-24.75 179.4725 -24.75 180.1325 -24.75 180.8125 C-27.25 182.4375 -27.25 182.4375 -29.75 183.8125 C-26.33430562 187.33549418 -26.33430562 187.33549418 -22.5 190.375 C-20.41965523 192.08385463 -20.11162566 193.19071395 -19.75 195.8125 C-29.00323931 197.8894132 -37.51984186 197.81578425 -45.75 192.8125 C-49.11017964 190.65186836 -51.36550462 188.61644489 -53.125 184.9375 C-53.81488406 181.4880797 -53.89036291 178.32157287 -53.75 174.8125 C-67.90015919 176.60806944 -87.14802596 180.11809475 -96.375 192 C-100.39894726 197.89636203 -100.50228335 203.8559922 -99.75 210.8125 C-97.705516 217.04775204 -95.03371212 220.90521708 -89.75 224.8125 C-89.70101562 223.68972656 -89.65203125 222.56695312 -89.6015625 221.41015625 C-88.52079469 198.80241285 -88.52079469 198.80241285 -81.75 190.8125 C-77.24553536 187.60932514 -73.10493675 187.16438265 -67.75 187.8125 C-64.25 188.8125 -64.25 188.8125 -61.75 189.8125 C-62.81541016 190.24949219 -62.81541016 190.24949219 -63.90234375 190.6953125 C-69.57514451 193.02151761 -69.57514451 193.02151761 -73.125 197.6875 C-72.3471582 204.16951501 -68.75309249 208.49079893 -63.80859375 212.45703125 C-58.61649812 215.87573558 -52.04713355 219.01195401 -45.75 217.8125 C-43.20997987 216.43966577 -43.20997987 216.43966577 -41.75 213.8125 C-41.42361266 211.05400058 -41.56365661 208.60765088 -41.75 205.8125 C-40.96238281 205.75191406 -40.17476562 205.69132812 -39.36328125 205.62890625 C-38.27402344 205.54511719 -37.18476562 205.46132812 -36.0625 205.375 C-28.75 204.8125 -28.75 204.8125 -21.4375 204.25 C-20.34824219 204.16621094 -19.25898437 204.08242187 -18.13671875 203.99609375 C-17.34910156 203.93550781 -16.56148438 203.87492187 -15.75 203.8125 C-16.08 206.4525 -16.41 209.0925 -16.75 211.8125 C-0.99512247 211.01140453 12.69091896 202.09926843 26.22509766 194.73828125 C39.61957224 187.48756807 51.61250794 184.61330125 66.64916992 184.16552734 C76.98263964 183.83636308 87.0573829 182.49600759 97.25 180.8125 C98.63735352 180.58916992 98.63735352 180.58916992 100.05273438 180.36132812 C114.18508951 178.01728299 127.89185118 174.38921373 141.625 170.375 C142.4206839 170.14611084 143.2163678 169.91722168 144.03616333 169.68139648 C158.03847965 165.62792766 172.46034284 161.08376776 180.25 147.8125 C181.2076845 144.9394465 181.44535459 142.93389007 181.5 139.9375 C181.52578125 139.09445313 181.5515625 138.25140625 181.578125 137.3828125 C181.15931853 134.10216181 180.37700199 132.35333292 178.25 129.8125 C175.42257182 128.98088645 175.42257182 128.98088645 172.125 129 C170.86042969 128.95617187 169.59585937 128.91234375 168.29296875 128.8671875 C166.9453214 128.84831198 165.59766484 128.83008248 164.25 128.8125 C162.98800781 128.77382812 161.72601563 128.73515625 160.42578125 128.6953125 C120.66143321 127.994276 82.2516048 137.64823652 44.375 148.75 Z M-58.625 140.8125 C-60.07519531 141.6478125 -60.07519531 141.6478125 -61.5546875 142.5 C-62.27914062 142.933125 -63.00359375 143.36625 -63.75 143.8125 C-59.80935199 145.12604934 -58.4483905 144.12225532 -54.6875 142.5 C-53.62402344 142.05011719 -52.56054688 141.60023438 -51.46484375 141.13671875 C-48.68228995 139.96181645 -48.68228995 139.96181645 -46.75 137.8125 C-51.64839668 137.46365276 -54.40895937 138.34457378 -58.625 140.8125 Z M222.25 153.8125 C222.25 154.4725 222.25 155.1325 222.25 155.8125 C224.48639227 157.61461266 226.71782864 159.28814497 229.0625 160.9375 C229.70509766 161.40542969 230.34769531 161.87335938 231.00976562 162.35546875 C234.75678723 165.12219603 234.75678723 165.12219603 239.25 165.8125 C238.39489368 161.77017919 237.811819 159.35991339 234.8125 156.4375 C230.52751771 153.72019416 227.23337773 153.71847401 222.25 153.8125 Z M145.9375 182.6875 C141.43065376 185.0917098 137.05945141 185.44825486 132.02807617 185.95483398 C125.98665991 186.61365876 120.15741858 187.83544508 114.25 189.25 C112.94252808 189.55828735 112.94252808 189.55828735 111.60864258 189.87280273 C106.31574755 191.16849369 101.31488331 192.80178822 96.25 194.8125 C96.25 195.4725 96.25 196.1325 96.25 196.8125 C97.36375 197.4725 98.4775 198.1325 99.625 198.8125 C100.25148438 199.18375 100.87796875 199.555 101.5234375 199.9375 C103.22472667 200.96318348 103.22472667 200.96318348 105.25 200.8125 C106.24 203.2875 106.24 203.2875 107.25 205.8125 C105.99445313 205.54695313 104.73890625 205.28140625 103.4453125 205.0078125 C95.05461051 203.23570696 86.66469503 201.46784984 78.25 199.8125 C77.8375 200.92625 77.425 202.04 77 203.1875 C76.12004941 205.5633666 75.6505838 206.5710164 73.45507812 207.89453125 C71.13524733 208.86027126 69.42134219 209.11944248 66.921875 209.2265625 C65.72304687 209.28457031 65.72304687 209.28457031 64.5 209.34375 C63.2625 209.39015625 63.2625 209.39015625 62 209.4375 C61.15953125 209.47617188 60.3190625 209.51484375 59.453125 209.5546875 C57.38576618 209.64865836 55.31791373 209.73165564 53.25 209.8125 C53.43433594 210.5859375 53.61867188 211.359375 53.80859375 212.15625 C54.25 214.8125 54.25 214.8125 53.3125 217.3125 C48.01354283 223.73547839 40.33443605 226.61553253 32.25 227.8125 C28.71127493 227.91060668 25.17719731 227.84184769 21.64453125 227.61450195 C18.60111814 227.48109104 16.749339 227.43106048 14.28125 229.31640625 C12.52363595 233.57063117 12.41142126 237.54553665 13.99560547 241.828125 C14.99216467 243.86843563 16.06118004 245.84095874 17.1875 247.8125 C20.22589549 253.18610446 22.35763141 257.53189069 22.25 263.8125 C19.66663846 268.32948427 18.47235003 269.44465733 13.47265625 270.94921875 C12.08951594 271.158069 10.70228519 271.34127801 9.3125 271.5 C3.02679923 272.32752923 -1.93214121 273.68006632 -7.0625 277.5625 C-9.3343431 280.59162414 -9.54249239 283.07736306 -9.75 286.8125 C-9.42 287.4725 -9.09 288.1325 -8.75 288.8125 C-9.69875 288.461875 -10.6475 288.11125 -11.625 287.75 C-14.62060172 286.46223223 -14.62060172 286.46223223 -16.75 287.8125 C-17.10892545 292.85739655 -17.33426255 296.66484141 -15 301.25 C-12.96567599 303.56686901 -11.36931281 305.22186277 -8.75 306.8125 C-6.47898094 306.80912427 -6.47898094 306.80912427 -4.125 306.25 C1.80978027 305.47095067 6.14114949 306.74189555 11.25 309.8125 C17.41176825 314.9494689 20.08281802 322.04180197 21.25 329.8125 C21.39282697 333.16763537 21.38952501 336.5173024 21.375 339.875 C21.38080078 341.22174805 21.38080078 341.22174805 21.38671875 342.59570312 C21.38542969 343.46259766 21.38414062 344.32949219 21.3828125 345.22265625 C21.38168457 346.00777588 21.38055664 346.79289551 21.37939453 347.60180664 C21.25121514 349.7917394 20.85390331 351.70843371 20.25 353.8125 C17.29851575 353.74386083 15.08167207 353.54725635 12.80859375 351.5390625 C9.11474546 346.84181065 7.65219523 341.73482472 7.25 335.8125 C7.9758965 332.02170718 8.69518163 331.19558887 11.875 329 C12.65875 328.608125 13.4425 328.21625 14.25 327.8125 C12.57944224 323.07925301 10.50134526 318.4102289 6.3125 315.4375 C3.64293204 314.62854001 2.03343189 314.34859468 -0.75 314.8125 C-7.03550868 318.91174479 -12.37249191 325.67997574 -14.75 332.8125 C-14.09773438 333.23660156 -13.44546875 333.66070312 -12.7734375 334.09765625 C0.38045464 342.92512074 0.38045464 342.92512074 1.71484375 348.890625 C1.91717017 353.26087571 0.96634862 355.54563805 -1.75 358.8125 C-1.08613281 359.03164063 -0.42226562 359.25078125 0.26171875 359.4765625 C5.86779375 361.48983907 10.31925473 363.35837175 13.25 368.8125 C15.19606606 373.37518672 16.68996128 378.07546933 18.2109375 382.79296875 C20.09143493 388.36676314 21.62540991 392.08713576 26.25 395.8125 C29.20278633 394.80011612 31.29568297 393.77595363 33.75 391.8125 C36.20431703 389.84904637 38.29721367 388.82488388 41.25 387.8125 C37.53970921 383.26739378 33.72061625 379.37528409 29.26953125 375.5625 C23.76488846 370.7925194 19.57442445 366.32837192 16.25 359.8125 C20.54 360.1425 24.83 360.4725 29.25 360.8125 C28.61294452 352.54770873 28.61294452 352.54770873 27.6875 344.3125 C27.25 340.8125 27.25 340.8125 27.25 336.8125 C28.8896875 336.4103125 28.8896875 336.4103125 30.5625 336 C34.0350009 334.881737 34.96827034 334.37505793 37.25 331.8125 C37.105625 332.86308594 36.96125 333.91367187 36.8125 334.99609375 C34.44914597 347.69686276 34.44914597 347.69686276 36.75 359.875 C37.245 360.514375 37.74 361.15375 38.25 361.8125 C41.68180516 361.52501894 42.98772894 361.08469482 45.41796875 358.5625 C46.08441406 357.655 46.75085938 356.7475 47.4375 355.8125 C51.64538431 350.14834979 51.64538431 350.14834979 55.9375 349.25 C61.16150327 350.13709489 63.15277707 353.74782991 66.25 357.8125 C66.81332031 358.4828125 67.37664062 359.153125 67.95703125 359.84375 C71.63079327 364.34880124 73.58174772 367.98915873 74.25 373.8125 C73.4375 376.8125 73.4375 376.8125 71.25 378.8125 C65.10151669 380.27211894 59.85241679 378.16291907 54.31640625 375.58984375 C53.63449219 375.33332031 52.95257813 375.07679688 52.25 374.8125 C51.59 375.1425 50.93 375.4725 50.25 375.8125 C53.91213243 380.37197613 57.67705702 384.29147297 62.3125 387.875 C68.83361013 392.95690013 73.81581445 397.35080525 75.25 405.8125 C75.22841024 407.45871911 75.18537627 409.10474677 75.125 410.75 C75.01426154 415.93888777 76.28321897 419.57132849 79.25 423.8125 C81.98871822 426.55121822 84.38728017 427.53659144 88.25 427.8125 C91.49236568 426.95478658 91.49236568 426.95478658 94.25 425.8125 C94.51554687 426.37839844 94.78109375 426.94429687 95.0546875 427.52734375 C95.40789062 428.26082031 95.76109375 428.99429688 96.125 429.75 C96.47304687 430.48089844 96.82109375 431.21179688 97.1796875 431.96484375 C98.1184977 433.97582459 98.1184977 433.97582459 100.25 434.8125 C101.24 430.8525 102.23 426.8925 103.25 422.8125 C109.97403182 423.23275199 114.90623835 425.49527614 119.7265625 430.27734375 C123.26046261 434.71097917 124.71047866 439.74549639 126.2578125 445.140625 C127.24829696 447.80791387 127.99979157 449.11026979 130.25 450.8125 C130.91 450.8125 131.57 450.8125 132.25 450.8125 C131.76139149 444.68080724 130.32359663 440.02797294 127.6875 434.5 C124.25 427.17429061 124.25 427.17429061 124.25 423.8125 C125.44496094 425.02486328 125.44496094 425.02486328 126.6640625 426.26171875 C127.73423795 427.34128171 128.80455821 428.42070113 129.875 429.5 C130.39707031 430.03044922 130.91914063 430.56089844 131.45703125 431.10742188 C134.02240466 433.68863092 136.59537719 436.13850665 139.4375 438.4140625 C144.1719968 442.45153616 147.59628699 447.35079245 148.765625 453.54296875 C148.92319013 457.35266852 148.76470811 459.93973407 146.8125 463.25 C141.44014295 466.52582747 135.46040024 468.01629484 129.25 468.8125 C130.35481943 469.91731943 131.46080175 471.02098563 132.5703125 472.12109375 C133.83038303 473.38995547 135.07224067 474.67694694 136.3046875 475.97265625 C144.06182583 484.01162832 149.36001351 487.75873463 160.48828125 489.30859375 C167.55717219 490.59839139 172.17925398 496.2498058 176.25 501.8125 C179.89371027 507.90364217 180.95644868 513.78194596 181.25 520.8125 C170.57820538 523.48044865 163.2150609 520.6798456 153.9609375 515.390625 C152.79957275 514.72812744 152.79957275 514.72812744 151.61474609 514.05224609 C150.07518211 513.16373043 148.54368082 512.26104606 147.02197266 511.34228516 C141.5657232 508.16258796 136.49305882 506.70040894 130.25 505.8125 C137.6332165 513.91022132 146.86580298 518.23907426 156.8125 522.5 C159.21664311 523.54964299 161.62027894 524.60044857 164.0234375 525.65234375 C165.22967773 526.17812012 166.43591797 526.70389648 167.67871094 527.24560547 C202.20893823 542.39566007 232.97532692 558.0118371 259 585.875 C259.78914795 586.71587158 259.78914795 586.71587158 260.59423828 587.57373047 C264.25 591.56619091 264.25 591.56619091 264.25 593.8125 C253.83786554 597.28321149 241.88622137 594.54506174 232.0625 590.5 C230.25 588.8125 230.25 588.8125 229.9375 585.625 C230.0921875 584.2328125 230.0921875 584.2328125 230.25 582.8125 C231.24 582.4825 232.23 582.1525 233.25 581.8125 C229.78226679 578.34476679 224.66427164 577.93977626 219.87890625 577.6875 C218.00214158 577.6875 216.12552506 577.74429909 214.25 577.8125 C214.7870918 583.45196392 216.53469095 587.31582622 220.75390625 591.1953125 C228.45822539 597.16571294 237.49584578 598.35020213 246.9375 599.375 C249.05609799 599.62146573 251.17458838 599.86885827 253.29296875 600.1171875 C254.31052246 600.23416992 255.32807617 600.35115234 256.37646484 600.47167969 C262.01666803 601.14064516 267.63306397 601.97193739 273.25 602.8125 C272.80527344 603.42738281 272.36054688 604.04226563 271.90234375 604.67578125 C271.33644531 605.48402344 270.77054687 606.29226563 270.1875 607.125 C269.61902344 607.92550781 269.05054688 608.72601562 268.46484375 609.55078125 C268.06394531 610.29714844 267.66304688 611.04351563 267.25 611.8125 C267.58 612.8025 267.91 613.7925 268.25 614.8125 C269.9 614.8125 271.55 614.8125 273.25 614.8125 C271.6 616.4625 269.95 618.1125 268.25 619.8125 C269.67451314 623.369974 271.23473742 624.77375728 274.5625 626.625 C275.32175781 627.06457031 276.08101563 627.50414062 276.86328125 627.95703125 C279.78518557 629.00432592 281.28745184 628.60376882 284.25 627.8125 C286.3125 627.57421875 286.3125 627.57421875 288.25 627.5 C288.889375 627.46261719 289.52875 627.42523437 290.1875 627.38671875 C295.50116517 628.48366857 298.47978922 633.22525216 301.375 637.4375 C304.87586615 642.73762001 304.87586615 642.73762001 310.5 645.3125 C316.80562399 644.16602291 321.03785973 638.13232113 324.6953125 633.23046875 C326.74901394 631.3573692 328.53840492 631.16400307 331.25 630.8125 C330.7446875 631.43898438 330.239375 632.06546875 329.71875 632.7109375 C329.0690625 633.52820313 328.419375 634.34546875 327.75 635.1875 C327.1003125 635.99960937 326.450625 636.81171875 325.78125 637.6484375 C324.05746385 639.64276843 324.05746385 639.64276843 324.25 641.8125 C329.63549747 640.15110212 334.37453717 637.77011171 339.34765625 635.15234375 C350.6285251 629.94462098 363.98526755 632.93330187 375.25 636.8125 C381.50710434 639.24737475 387.62515969 642.01088483 393.76367188 644.72705078 C403.34167841 648.90849393 412.8776997 652.18405987 423.09326172 654.40649414 C427.54580024 655.3769192 431.80135815 656.59911353 436.125 658.0625 C446.19310108 661.22210333 453.80506804 660.40179449 463.25 655.8125 C462.58861826 652.77736707 462.58861826 652.77736707 460.55273438 651.73242188 C454.71764492 649.21987673 448.95751168 647.6226735 442.75 646.3125 C434.40798966 644.55181368 425.84942211 642.55112792 419.25 636.8125 C419.58 635.1625 419.91 633.5125 420.25 631.8125 C418.94546875 631.85890625 417.6409375 631.9053125 416.296875 631.953125 C398.40178873 632.40744555 385.15025036 628.34425177 371.57421875 616.47265625 C366.16516696 611.15451289 366.16516696 611.15451289 364.09423828 608.11767578 C359.63095719 601.98453724 354.24917285 600.78489023 347.125 598.9375 C328.86336006 593.74429037 307.52725377 586.52419565 293.9296875 572.51171875 C293.04539062 571.62097656 292.16109375 570.73023438 291.25 569.8125 C290.59 569.8125 289.93 569.8125 289.25 569.8125 C289.00121094 569.25433594 288.75242187 568.69617188 288.49609375 568.12109375 C287.0377572 565.41928529 285.26922609 563.23983283 283.3125 560.875 C276.14477426 552.20674102 276.14477426 552.20674102 276.5 547.5 C276.12339907 541.94513623 273.00103514 539.70976194 269.25 535.8125 C255.68597621 520.86761578 244.17586112 504.81797145 234.75 486.97265625 C231.70608211 481.47209811 228.62787368 478.24462067 223.5078125 474.6171875 C219.72426852 471.59297069 217.02583365 467.74864997 214.25 463.8125 C212.03629949 465.59907757 212.03629949 465.59907757 212.0546875 467.9765625 C212.07789063 468.78867187 212.10109375 469.60078125 212.125 470.4375 C212.14304687 471.25476563 212.16109375 472.07203125 212.1796875 472.9140625 C212.20289063 473.54054688 212.22609375 474.16703125 212.25 474.8125 C211.59 474.8125 210.93 474.8125 210.25 474.8125 C210.20875 473.86375 210.1675 472.915 210.125 471.9375 C209.02624648 464.4140905 203.99190962 457.57287138 198.12890625 452.9296875 C194.95915036 451.04496778 191.86639605 450.44695545 188.25 449.8125 C189.45596493 444.22120807 190.90117942 441.7370454 195.25 437.8125 C196.27813611 436.50074014 197.29084432 435.1755107 198.25 433.8125 C197.33565186 432.07709961 197.33565186 432.07709961 196.40283203 430.30664062 C194.38325209 426.25882112 193.00087065 422.2582321 191.8046875 417.90625 C191.59303452 417.1595253 191.38138153 416.4128006 191.16331482 415.64344788 C190.4749065 413.20221144 189.79937652 410.75764664 189.125 408.3125 C188.64743268 406.60276836 188.16981132 404.89305182 187.69213867 403.18334961 C182.50243661 384.4895758 177.83967461 365.66106519 173.25 346.8125 C170.13811978 346.50267786 170.13811978 346.50267786 167.875 348.6875 C164.31765164 352.41785011 162.3670039 357.17310847 160.25 361.8125 C160.58430401 354.25031278 161.12107467 347.75055182 164.25 340.8125 C166.25 340.8125 168.25 340.8125 170.25 340.8125 C172.71404368 335.55159162 172.71404368 335.55159162 172.8125 329.875 C171.34241253 327.49206351 171.34241253 327.49206351 168.125 327 C167.17625 326.938125 166.2275 326.87625 165.25 326.8125 C165.4665625 326.19246094 165.683125 325.57242188 165.90625 324.93359375 C168.3854907 317.04823097 170.54412862 306.30610301 167.23046875 298.37109375 C166.90691406 297.85675781 166.58335937 297.34242188 166.25 296.8125 C165.26 297.1425 164.27 297.4725 163.25 297.8125 C163.394375 296.80316406 163.53875 295.79382813 163.6875 294.75390625 C164.91917611 285.46214169 165.48965633 276.24871942 165.5625 266.875 C165.58860352 265.33211304 165.58860352 265.33211304 165.61523438 263.75805664 C165.61068411 256.68638012 164.4371942 250.53131562 162.25 243.8125 C159.28 243.3175 159.28 243.3175 156.25 242.8125 C156.51554688 242.08546875 156.78109375 241.3584375 157.0546875 240.609375 C161.05691728 229.21616614 162.44491026 218.78661031 162.625 206.75 C162.65110352 205.74485352 162.67720703 204.73970703 162.70410156 203.70410156 C162.72033969 196.6033994 161.71080381 190.11143278 158.25 183.8125 C156.09568359 181.89214245 154.83589035 180.92642312 152 180.375 C149.02737153 180.68355892 149.02737153 180.68355892 145.9375 182.6875 Z M22.25 213.8125 C21.59 214.4725 20.93 215.1325 20.25 215.8125 C21.24 215.8125 22.23 215.8125 23.25 215.8125 C22.92 215.1525 22.59 214.4925 22.25 213.8125 Z M-73.9375 220.75 C-74.535625 221.100625 -75.13375 221.45125 -75.75 221.8125 C-74.76 222.8025 -73.77 223.7925 -72.75 224.8125 C-71.43 223.4925 -70.11 222.1725 -68.75 220.8125 C-71.64186786 219.47945302 -71.64186786 219.47945302 -73.9375 220.75 Z M-17.75 238.8125 C-16.50283203 239.31910156 -16.50283203 239.31910156 -15.23046875 239.8359375 C-13.60044922 240.50496094 -13.60044922 240.50496094 -11.9375 241.1875 C-10.85855469 241.62835938 -9.77960938 242.06921875 -8.66796875 242.5234375 C-5.75 243.8125 -5.75 243.8125 -2.75 245.8125 C-8.69 246.3075 -8.69 246.3075 -14.75 246.8125 C-11.85120485 250.43599393 -10.50129751 251.71709714 -5.8125 252.3125 C-0.92411644 251.98045885 2.70282625 250.35967375 6.1875 246.875 C7.40742258 244.89359648 7.40742258 244.89359648 7.25 242.75 C5.8042632 239.94888495 4.06443383 239.15575251 1.25 237.8125 C-2.32478159 236.93384998 -5.69845422 236.65032056 -9.375 236.625 C-10.31601563 236.61082031 -11.25703125 236.59664062 -12.2265625 236.58203125 C-14.99704023 236.63289293 -14.99704023 236.63289293 -17.75 238.8125 Z M-44.75 248.8125 C-44.6549261 250.8605428 -44.6549261 250.8605428 -43.75 252.8125 C-41.00158089 255.08921738 -41.00158089 255.08921738 -38.25 254.625 C-35.61337925 253.76809826 -34.49310252 252.92257147 -32.75 250.8125 C-33.08 249.8225 -33.41 248.8325 -33.75 247.8125 C-37.53971948 245.91764026 -41.72870606 245.79120606 -44.75 248.8125 Z M-25.75 256.8125 C-26.08 257.4725 -26.41 258.1325 -26.75 258.8125 C-23.78 259.3075 -23.78 259.3075 -20.75 259.8125 C-21.08 258.8225 -21.41 257.8325 -21.75 256.8125 C-23.07 256.8125 -24.39 256.8125 -25.75 256.8125 Z M5.25 257.8125 C6.25 259.8125 6.25 259.8125 6.25 259.8125 Z M-77.75 260.8125 C-77.09 261.4725 -76.43 262.1325 -75.75 262.8125 C-75.75 262.1525 -75.75 261.4925 -75.75 260.8125 C-76.41 260.8125 -77.07 260.8125 -77.75 260.8125 Z M-34.75 263.8125 C-34.75 264.4725 -34.75 265.1325 -34.75 265.8125 C-33.43 266.1425 -32.11 266.4725 -30.75 266.8125 C-30.75 265.1625 -30.75 263.5125 -30.75 261.8125 C-32.21225016 261.72004997 -32.21225016 261.72004997 -34.75 263.8125 Z M-83.75 266.8125 C-82.75 268.8125 -82.75 268.8125 -82.75 268.8125 Z M-44.75 280.8125 C-42.11460913 283.83544835 -40.48182256 285.61160753 -36.5625 286.6875 C-33.79736616 287.03888545 -33.79736616 287.03888545 -31.75 285.8125 C-32.43382061 282.82110209 -32.43382061 282.82110209 -34.3125 281.625 C-37.86122383 280.44209206 -41.01701621 280.68806721 -44.75 280.8125 Z M-68.75 292.8125 C-69.70020416 295.052335 -69.70020416 295.052335 -69.75 297.8125 C-67.416508 300.64661155 -67.416508 300.64661155 -64.75 302.8125 C-63.76 302.4825 -62.77 302.1525 -61.75 301.8125 C-63.07 298.8425 -64.39 295.8725 -65.75 292.8125 C-66.74 292.8125 -67.73 292.8125 -68.75 292.8125 Z M-43.75 292.8125 C-44.08 294.4625 -44.41 296.1125 -44.75 297.8125 C-43.29293274 298.31617757 -41.83429904 298.81532556 -40.375 299.3125 C-39.15683594 299.73015625 -39.15683594 299.73015625 -37.9140625 300.15625 C-35.80790758 300.90923305 -35.80790758 300.90923305 -33.75 300.8125 C-34.10494045 298.18594067 -34.47461964 296.23281739 -35.9375 294 C-38.54361661 292.29254429 -40.7099355 292.60982903 -43.75 292.8125 Z M-45.75 304.8125 C-43.36426621 306.70463369 -41.67824652 307.83641783 -38.75 308.8125 C-39.08 307.8225 -39.41 306.8325 -39.75 305.8125 C-42.72 305.3175 -42.72 305.3175 -45.75 304.8125 Z M-58.75 321.8125 C-55.98013409 335.73920012 -53.22872048 348.73770632 -43.75 359.8125 C-41.32490614 354.96231228 -45.16044794 345.85238497 -46.75 340.8125 C-49.54945781 333.50214038 -52.94585371 327.18855317 -58.75 321.8125 Z M-67.75 326.8125 C-65.74018276 334.23141751 -63.03230459 341.12532598 -59.875 348.125 C-59.1629541 349.7174353 -59.1629541 349.7174353 -58.43652344 351.34204102 C-57.41507809 353.62572933 -56.39157505 355.90849819 -55.36621094 358.19042969 C-53.97203257 361.31490556 -52.59685626 364.44627296 -51.23324585 367.5841217 C-50.10490413 370.17790669 -48.9675486 372.7676891 -47.82904053 375.35702515 C-47.0226198 377.1983515 -46.22624842 379.04406879 -45.43017578 380.88989258 C-41.14201217 390.58620165 -36.43811007 399.45534629 -27.75 405.8125 C-29.37547748 400.76738594 -31.29709487 395.8843421 -33.29956055 390.97875977 C-34.66745696 387.5994662 -35.97711214 384.21833475 -37.16015625 380.76953125 C-39.76790913 373.23815794 -42.73853505 366.873898 -47.29003906 360.32324219 C-50.55873307 355.47901032 -52.68805256 350.42920191 -54.8125 345 C-57.63915653 337.8222937 -60.67634697 331.85620688 -66.75 326.8125 C-67.08 326.8125 -67.41 326.8125 -67.75 326.8125 Z M-12.75 349.8125 C-12.09 350.4725 -11.43 351.1325 -10.75 351.8125 C-10.09 351.1525 -9.43 350.4925 -8.75 349.8125 C-10.07 349.8125 -11.39 349.8125 -12.75 349.8125 Z M-7.75 366.8125 C-8.08 367.4725 -8.41 368.1325 -8.75 368.8125 C-6.01094655 370.18202673 -3.77912668 369.93871361 -0.75 369.8125 C-0.09 369.4825 0.57 369.1525 1.25 368.8125 C1.25 368.1525 1.25 367.4925 1.25 366.8125 C-1.72 366.8125 -4.69 366.8125 -7.75 366.8125 Z M36.25 368.8125 C36.25 370.1325 36.25 371.4525 36.25 372.8125 C36.91 372.8125 37.57 372.8125 38.25 372.8125 C38.25 371.4925 38.25 370.1725 38.25 368.8125 C37.59 368.8125 36.93 368.8125 36.25 368.8125 Z M-43.75 397.8125 C-41.75457296 406.70637102 -38.32710511 414.59957748 -34.3125 422.75 C-34.00387024 423.38289948 -33.69524048 424.01579895 -33.3772583 424.6678772 C-25.57198061 440.64563052 -16.42863181 455.61520647 -6.44921875 470.31640625 C-3.82450281 474.19076974 -1.24844691 478.09464223 1.31158447 482.01185608 C3.30312211 485.05752359 5.3029709 488.0976945 7.30328369 491.13760376 C8.30807283 492.66880292 9.30934906 494.20231316 10.30706787 495.73812866 C11.71732779 497.90736408 13.14036262 500.06768184 14.56640625 502.2265625 C14.99406784 502.8912706 15.42172943 503.5559787 15.86235046 504.24082947 C16.91401309 505.81923909 18.07352265 507.32479296 19.25 508.8125 C20.24 508.8125 21.23 508.8125 22.25 508.8125 C22.20166016 509.55040771 22.15332031 510.28831543 22.10351562 511.04858398 C22.26790335 514.15030644 22.91565614 515.4596652 24.59375 518.03515625 C25.34422607 519.20473877 25.34422607 519.20473877 26.10986328 520.39794922 C26.6511084 521.21537598 27.19235352 522.03280273 27.75 522.875 C28.30026855 523.72336426 28.85053711 524.57172852 29.41748047 525.44580078 C30.51887404 527.13963258 31.62538865 528.83014685 32.73730469 530.51708984 C33.99602677 532.42711326 35.24076867 534.34465691 36.4765625 536.26953125 C47.95316149 553.90948895 61.01697564 568.43964218 77.51757812 581.44238281 C82.70041014 585.54131929 87.27434919 589.773519 91.625 594.75 C99.33405898 603.42269135 107.9086548 611.00020911 119.9453125 612.046875 C122.0482853 612.06005978 124.15149273 611.95010703 126.25 611.8125 C123.42780364 603.84394557 118.98064073 597.9388466 111.375 594 C108.14552429 592.51022668 104.98763382 591.43359695 101.5625 590.5 C96.94212753 589.08210792 94.73816174 586.45709555 91.8125 582.71875 C90.23039971 580.61548741 90.23039971 580.61548741 87.5 578.875 C84.21891244 575.8673364 83.06975202 572.14547499 82.25 567.8125 C82.58 567.1525 82.91 566.4925 83.25 565.8125 C82.66992188 565.78671875 82.08984375 565.7609375 81.4921875 565.734375 C80.71101563 565.67765625 79.92984375 565.6209375 79.125 565.5625 C78.35929687 565.51609375 77.59359375 565.4696875 76.8046875 565.421875 C71.52539674 564.16259464 68.37030586 561.36476798 65.58203125 556.84375 C64.7281456 555.34122701 63.88851983 553.83052084 63.0625 552.3125 C59.37136882 544.23474032 59.37136882 544.23474032 52.9453125 539.125 C51.67300781 538.9703125 51.67300781 538.9703125 50.375 538.8125 C45.87894633 538.26252402 43.53991372 536.95534804 40.25 533.8125 C35.43031409 526.53453208 32.67056545 517.90446765 29.96142578 509.66381836 C27.39700965 502.22483438 23.65621217 495.88162819 16.8125 491.6875 C12.14512874 488.27883355 10.11662938 484.17161602 7.76269531 479.06787109 C4.61523069 472.26999647 0.28015128 467.1329244 -4.61328125 461.5390625 C-15.91697908 448.5897996 -23.93225785 435.06487089 -29.9675293 418.97216797 C-34.56425895 406.64069001 -34.56425895 406.64069001 -43.75 397.8125 Z M54.25 389.8125 C54.72924459 392.97551431 55.4719052 395.27338003 56.875 398.1875 C58.43024606 402.28769416 58.19795599 404.58978693 57.25 408.8125 C48.63285204 407.99450559 42.00666674 405.94357132 34.28515625 402.078125 C29.99724914 400.2901174 26.82790807 400.34695003 22.25 400.8125 C21.73533197 406.21651435 23.24185326 408.43701383 26.25 412.8125 C26.33701172 414.29169922 26.33701172 414.29169922 26.42578125 415.80078125 C26.69777344 416.79464844 26.96976563 417.78851563 27.25 418.8125 C29.74876063 420.2172601 31.81899048 421.10423305 34.5 422 C41.63923646 424.6366629 48.25335448 427.80241197 54.9375 431.4375 C67.91444143 438.81046998 67.91444143 438.81046998 82.25 441.8125 C81.76864778 435.39447035 79.0319493 430.29076672 74.24609375 426.02734375 C72.89461299 424.93471014 71.51986445 423.86983275 70.1171875 422.84375 C65.00120666 417.27824784 64.18952004 408.44601172 62.7890625 401.25976562 C61.90507799 396.98838146 61.11345492 393.24726924 58.25 389.8125 C56.93 389.8125 55.61 389.8125 54.25 389.8125 Z M21.25 425.8125 C20.92 426.4725 20.59 427.1325 20.25 427.8125 C21.57 427.8125 22.89 427.8125 24.25 427.8125 C24.25 427.1525 24.25 426.4925 24.25 425.8125 C23.26 425.8125 22.27 425.8125 21.25 425.8125 Z M21.25 447.8125 C21.25 448.4725 21.25 449.1325 21.25 449.8125 C23.21147874 451.20188077 25.21166576 452.5385411 27.25 453.8125 C27.91 453.4825 28.57 453.1525 29.25 452.8125 C28.30125 451.9875 27.3525 451.1625 26.375 450.3125 C25.84132812 449.8484375 25.30765625 449.384375 24.7578125 448.90625 C23.29063579 447.61677542 23.29063579 447.61677542 21.25 447.8125 Z M115.25 447.8125 C114.59 448.4725 113.93 449.1325 113.25 449.8125 C116.45336822 452.64624881 119.03087253 453.3330537 123.25 453.8125 C121.37699693 449.8914764 121.37699693 449.8914764 117.6875 447.875 C116.4809375 447.8440625 116.4809375 447.8440625 115.25 447.8125 Z M72.25 452.8125 C72.87388892 456.43105575 73.4209277 456.9834277 76.25 459.8125 C72.95 459.1525 69.65 458.4925 66.25 457.8125 C66.58 460.1225 66.91 462.4325 67.25 464.8125 C64.61 464.4825 61.97 464.1525 59.25 463.8125 C60.64330742 466.9982029 62.27896738 469.01072217 64.8125 471.375 C67.24626295 473.6468494 68.17259794 474.58029382 69.25 477.8125 C67.6 477.8125 65.95 477.8125 64.25 477.8125 C68.14173756 481.96368673 72.43337219 485.38484492 76.9453125 488.84765625 C79.10687005 490.69047565 80.65674362 492.47468263 82.25 494.8125 C81.64671875 494.60753906 81.0434375 494.40257812 80.421875 494.19140625 C79.62265625 493.92199219 78.8234375 493.65257812 78 493.375 C77.21109375 493.10816406 76.4221875 492.84132813 75.609375 492.56640625 C73.50178012 491.89295292 71.40246027 491.32099405 69.25 490.8125 C72.62499751 499.0821274 84.05337494 502.15057458 91.70922852 505.62866211 C97.31309727 508.23118706 102.3601082 511.3355976 107.47216797 514.78808594 C111.94197137 517.75568843 116.07591492 519.47437455 121.25 520.8125 C120.32038578 519.66025972 119.3809875 518.51590824 118.4375 517.375 C117.65439453 516.41787109 117.65439453 516.41787109 116.85546875 515.44140625 C115.24165589 513.5576725 115.24165589 513.5576725 112.25 512.8125 C112.53875 511.636875 112.8275 510.46125 113.125 509.25 C113.47557593 506.53663838 113.50553361 505.25371547 112.12109375 502.86328125 C109.87110118 500.26366577 107.4699171 498.00348064 104.875 495.75 C104.33875 495.110625 103.8025 494.47125 103.25 493.8125 C103.37375 492.86375 103.4975 491.915 103.625 490.9375 C103.50125 489.90625 103.3775 488.875 103.25 487.8125 C100.86104743 486.03205422 98.36594684 484.67803662 95.7421875 483.26953125 C92.82809155 481.56583565 91.07836377 479.6381531 89.25 476.8125 C92.55 476.8125 95.85 476.8125 99.25 476.8125 C98.074375 475.884375 98.074375 475.884375 96.875 474.9375 C94.25 472.8125 94.25 472.8125 92.25 470.8125 C92.30859375 468.859375 92.30859375 468.859375 93.25 466.8125 C95.53515625 465.328125 95.53515625 465.328125 98.3125 464.0625 C99.23160156 463.63453125 100.15070313 463.2065625 101.09765625 462.765625 C101.80792969 462.45109375 102.51820313 462.1365625 103.25 461.8125 C103.25 461.1525 103.25 460.4925 103.25 459.8125 C88.0662773 454.70046603 88.0662773 454.70046603 72.25 452.8125 Z M39.25 461.8125 C42.42320782 465.34836014 44.41743695 467.39828031 49.25 467.8125 C46.07679218 464.27663986 44.08256305 462.22671969 39.25 461.8125 Z M148.25 506.8125 C148.58 507.4725 148.91 508.1325 149.25 508.8125 C149.91 508.4825 150.57 508.1525 151.25 507.8125 C150.26 507.4825 149.27 507.1525 148.25 506.8125 Z M163.25 514.8125 C163.25 515.4725 163.25 516.1325 163.25 516.8125 C163.91 516.4825 164.57 516.1525 165.25 515.8125 C164.59 515.4825 163.93 515.1525 163.25 514.8125 Z M93.25 523.8125 C96.6852048 526.10263653 98.235331 525.99092973 102.25 525.8125 C98.8147952 523.52236347 97.264669 523.63407027 93.25 523.8125 Z M132.25 525.8125 C135.361528 529.1907304 137.76362626 531.60883875 142.25 532.8125 C145.45870233 532.98007757 145.45870233 532.98007757 148.25 532.8125 C145.35357159 530.46167788 142.59643669 528.97730594 139.125 527.625 C138.25617188 527.28082031 137.38734375 526.93664062 136.4921875 526.58203125 C134.32981273 525.7042936 134.32981273 525.7042936 132.25 525.8125 Z M111.25 529.8125 C113.00244247 531.4608633 113.00244247 531.4608633 115.25 532.8125 C117.45800528 532.59532648 117.45800528 532.59532648 119.25 531.8125 C116.16190305 530.04787317 115.01687864 529.8125 111.25 529.8125 Z M94.25 538.8125 C95.62078116 544.4669723 99.50968915 547.79468583 104.25 550.8125 C115.95013302 555.6462414 128.77695517 559.07437698 141.4375 556.0625 C144.3533207 555.06371615 144.3533207 555.06371615 145.6875 552.6875 C145.9659375 551.759375 145.9659375 551.759375 146.25 550.8125 C141.04139766 546.90823674 135.54621641 544.84835059 129.4375 542.6875 C128.49068359 542.34074219 127.54386719 541.99398437 126.56835938 541.63671875 C118.76439487 538.83309214 111.2342482 536.51861943 102.875 536.5625 C101.87726563 536.55734375 100.87953125 536.5521875 99.8515625 536.546875 C97.01483021 536.63177344 97.01483021 536.63177344 94.25 538.8125 Z M149.25 540.8125 C155.38367001 548.66545631 162.85224977 555.67201351 173.0625 557.24609375 C178.30279083 558.04143381 178.30279083 558.04143381 183.25 556.8125 C183.25 556.1525 183.25 555.4925 183.25 554.8125 C182.68152344 554.63074219 182.11304688 554.44898438 181.52734375 554.26171875 C173.00469 551.48723214 165.83188632 548.08032407 158.21484375 543.3359375 C155.15315846 541.76273952 152.65255808 541.18662972 149.25 540.8125 Z M169.25 540.8125 C179.58288767 549.62639692 192.94055245 552.32440183 206.25 551.8125 C205.755 550.8225 205.755 550.8225 205.25 549.8125 C201.92891264 548.88559765 198.60861639 548.12796114 195.24023438 547.40039062 C191.18010222 546.46800895 188.4971618 545.53687612 185.25 542.8125 C179.71003104 541.0581765 175.04030749 540.6057033 169.25 540.8125 Z M292.25 554.8125 C291.59 556.1325 290.93 557.4525 290.25 558.8125 C291.9 558.8125 293.55 558.8125 295.25 558.8125 C294.92 557.4925 294.59 556.1725 294.25 554.8125 C293.59 554.8125 292.93 554.8125 292.25 554.8125 Z M174.25 564.8125 C177.02541186 567.89629096 179.23940353 569.66661529 183.25 570.8125 C186.45870233 570.98007757 186.45870233 570.98007757 189.25 570.8125 C186.55004151 567.47725716 183.21744005 566.24898692 179.25 564.8125 C176.45659843 564.55859778 176.45659843 564.55859778 174.25 564.8125 Z M306.25 570.8125 C306.25 571.4725 306.25 572.1325 306.25 572.8125 C307.57 572.4825 308.89 572.1525 310.25 571.8125 C308.93 571.4825 307.61 571.1525 306.25 570.8125 Z M172.25 582.8125 C172.25 583.4725 172.25 584.1325 172.25 584.8125 C177.75422871 588.96322985 183.44811284 591.75703475 190.25 592.8125 C192.41585336 592.39407958 192.41585336 592.39407958 194.25 591.8125 C192.09261654 590.48231554 189.92607313 589.17398243 187.75 587.875 C187.14929688 587.50181641 186.54859375 587.12863281 185.9296875 586.74414062 C181.3238397 584.02473049 177.58653533 583.18440456 172.25 582.8125 Z M194.25 582.8125 C194.25 583.4725 194.25 584.1325 194.25 584.8125 C197.22 585.3075 197.22 585.3075 200.25 585.8125 C199.59 584.8225 198.93 583.8325 198.25 582.8125 C196.93 582.8125 195.61 582.8125 194.25 582.8125 Z M157.25 586.8125 C157.25 587.4725 157.25 588.1325 157.25 588.8125 C159.56 589.1425 161.87 589.4725 164.25 589.8125 C164.25 589.1525 164.25 588.4925 164.25 587.8125 C161.94 587.4825 159.63 587.1525 157.25 586.8125 Z M541.25 601.8125 C541.25 603.1325 541.25 604.4525 541.25 605.8125 C541.91 605.8125 542.57 605.8125 543.25 605.8125 C543.25 604.4925 543.25 603.1725 543.25 601.8125 C542.59 601.8125 541.93 601.8125 541.25 601.8125 Z M153.4375 608.3125 C153.045625 608.8075 152.65375 609.3025 152.25 609.8125 C154.5931213 609.55688677 156.92843403 609.21979228 159.25 608.8125 C159.58 608.1525 159.91 607.4925 160.25 606.8125 C156.53263359 606.46349442 156.53263359 606.46349442 153.4375 608.3125 Z M190.25 606.8125 C189.92 607.4725 189.59 608.1325 189.25 608.8125 C191.56 609.1425 193.87 609.4725 196.25 609.8125 C196.58 609.1525 196.91 608.4925 197.25 607.8125 C194.94 607.4825 192.63 607.1525 190.25 606.8125 Z M208.25 611.8125 C207.92 612.4725 207.59 613.1325 207.25 613.8125 C212.06209901 616.10295014 212.06209901 616.10295014 217.25 616.8125 C216.75243908 614.05608584 216.75243908 614.05608584 215.25 611.8125 C212.91702567 611.77157063 210.58294775 611.77008277 208.25 611.8125 Z M252.25 618.8125 C254.93529342 620.12607916 254.93529342 620.12607916 258.25 620.8125 C261.5850733 619.56306659 261.5850733 619.56306659 264.25 617.8125 C264.25 617.4825 264.25 617.1525 264.25 616.8125 C262.62536158 616.75854522 261.00021459 616.71972805 259.375 616.6875 C258.47007812 616.66429687 257.56515625 616.64109375 256.6328125 616.6171875 C254.06193006 616.56925164 254.06193006 616.56925164 252.25 618.8125 Z M506.5625 620.3125 C506.129375 620.8075 505.69625 621.3025 505.25 621.8125 C506.57 622.1425 507.89 622.4725 509.25 622.8125 C509.91 621.4925 510.57 620.1725 511.25 618.8125 C508.24740483 618.48031808 508.24740483 618.48031808 506.5625 620.3125 Z M246.25 627.8125 C246.25 628.1425 246.25 628.4725 246.25 628.8125 C247.9 628.8125 249.55 628.8125 251.25 628.8125 C251.25 628.4825 251.25 628.1525 251.25 627.8125 C249.6 627.8125 247.95 627.8125 246.25 627.8125 Z M167.25 628.8125 C167.25 631.8125 167.25 631.8125 167.25 631.8125 Z M158.25 633.8125 C165.26821892 641.76648145 175.21806536 645.88657901 184.6875 650.25 C192.61712724 653.96385999 200.05937739 657.7965837 207.25 662.8125 C198.75541549 660.84534425 191.1713699 657.73724691 183.3125 654 C182.22259766 653.49146484 181.13269531 652.98292969 180.00976562 652.45898438 C173.46222088 649.38945805 167.008563 646.18156621 160.61108398 642.80981445 C159.83192627 642.48070068 159.05276855 642.15158691 158.25 641.8125 C157.26 642.3075 157.26 642.3075 156.25 642.8125 C180.31989401 660.14282369 210.78314902 670.65857742 238.875 679.75 C239.6287793 679.99596924 240.38255859 680.24193848 241.15917969 680.49536133 C257.50256391 685.56952413 274.29976882 688.72734542 291.1875 691.3125 C293.09799427 691.61018998 295.00847579 691.90796178 296.91894531 692.20581055 C315.32303388 695.05283112 333.75917755 697.60027455 352.25 699.8125 C353.30751465 699.94527344 354.3650293 700.07804688 355.45458984 700.21484375 C404.31740208 706.83734161 404.31740208 706.83734161 450.25 696.8125 C443.52192245 694.76480232 437.41320296 694.57866403 430.41015625 694.6875 C429.28862656 694.69507324 428.16709686 694.70264648 427.01158142 694.71044922 C422.24296817 694.74295773 417.47470645 694.79928149 412.70629883 694.85351562 C409.21176764 694.88982492 405.71729288 694.91392223 402.22265625 694.9375 C400.62382347 694.96239502 400.62382347 694.96239502 398.99269104 694.98779297 C391.85577168 695.03426517 385.24144177 694.5231179 378.625 691.6875 C374.728757 690.25204205 370.90965291 690.46796316 366.87792969 691.30493164 C347.99189682 694.95265204 326.66899715 691.39852989 307.8125 689.125 C306.76332397 689.00293182 305.71414795 688.88086365 304.63317871 688.75509644 C286.67731253 686.6353018 271.41432656 682.51509218 254.875 675.125 C252.43530912 674.0543739 249.99475082 672.986526 247.55078125 671.92578125 C246.94016342 671.66064728 246.32954559 671.39551331 245.70042419 671.12234497 C239.56350057 668.47953849 233.32270918 666.14330283 227.0625 663.8125 C215.1012042 659.32010095 203.68056745 653.95299121 192.23535156 648.28955078 C187.44016235 645.91705367 182.63023289 643.57631017 177.8125 641.25 C176.99096436 640.84458984 176.16942871 640.43917969 175.32299805 640.02148438 C169.77114279 637.33974763 164.20024793 635.42031459 158.25 633.8125 Z M187.25 634.8125 C187.58 636.1325 187.91 637.4525 188.25 638.8125 C189.57 638.8125 190.89 638.8125 192.25 638.8125 C192.58 637.8225 192.91 636.8325 193.25 635.8125 C192.18354885 634.51616379 192.18354885 634.51616379 189.6875 634.75 C188.883125 634.770625 188.07875 634.79125 187.25 634.8125 Z M359.3125 645.5 C357.75208984 646.24830078 357.75208984 646.24830078 356.16015625 647.01171875 C352.45904059 649.30193931 350.08416834 651.77823097 348.421875 655.83203125 C348.28265625 656.42371094 348.1434375 657.01539063 348 657.625 C347.7525 658.676875 347.505 659.72875 347.25 660.8125 C349.93321308 660.29649748 351.89855443 659.48822278 354.375 658.25 C357.25 656.8125 357.25 656.8125 359.25 656.8125 C359.91 658.7925 360.57 660.7725 361.25 662.8125 C365.68888167 661.45617505 367.95741409 659.88820828 370.25 655.8125 C370.89522317 650.82596043 371.08160532 647.05990799 368.25 642.8125 C364.58238883 642.8125 362.59771592 643.88784831 359.3125 645.5 Z M345.25 646.8125 C344.92 647.4725 344.59 648.1325 344.25 648.8125 C345.24 648.4825 346.23 648.1525 347.25 647.8125 C346.59 647.4825 345.93 647.1525 345.25 646.8125 Z M486.25 652.8125 C485.37177688 654.89783633 485.37177688 654.89783633 485.25 656.8125 C488.14883819 657.7787794 489.83578507 657.90604541 492.8359375 657.83984375 C494.21700684 657.81954102 494.21700684 657.81954102 495.62597656 657.79882812 C496.6156543 657.78271484 497.60533203 657.76660156 498.625 657.75 C506.65263013 657.67395677 514.51677731 657.9621085 522.5 658.8125 C540.11919365 661.03218603 540.11919365 661.03218603 556.25 654.8125 C556.25 654.4825 556.25 654.1525 556.25 653.8125 C551.15059357 653.11042743 546.0500877 652.41714273 540.94848633 651.73120117 C539.22128859 651.49780472 537.4943864 651.26220817 535.76782227 651.02416992 C526.81307462 649.79109987 517.88075146 648.6652487 508.85546875 648.10546875 C508.17033707 648.06128311 507.48520538 648.01709747 506.77931213 647.97157288 C499.66303674 647.59414876 491.93342998 648.04575227 486.25 652.8125 Z M377.25 653.8125 C376.19824448 656.93938428 376.19824448 656.93938428 376.25 659.8125 C377.24 660.1425 378.23 660.4725 379.25 660.8125 C384.04965224 658.23849295 387.91484966 654.77469447 390.25 649.8125 C384.6087754 649.26213662 381.69491567 650.50060205 377.25 653.8125 Z M610.25 650.8125 C609.92 651.8025 609.59 652.7925 609.25 653.8125 C610.24 653.8125 611.23 653.8125 612.25 653.8125 C612.25 652.8225 612.25 651.8325 612.25 650.8125 C611.59 650.8125 610.93 650.8125 610.25 650.8125 Z M573.25 652.8125 C572.59 654.1325 571.93 655.4525 571.25 656.8125 C572.24 656.8125 573.23 656.8125 574.25 656.8125 C573.92 655.4925 573.59 654.1725 573.25 652.8125 Z M627.25 654.8125 C630.7737833 658.3362833 634.74372946 657.99580421 639.5625 658.0625 C647.42215867 658.0294415 654.62751121 656.60602677 662.25 654.8125 C662.25 654.4825 662.25 654.1525 662.25 653.8125 C657.72918034 653.78332763 653.20838512 653.7656432 648.6875 653.75 C647.41068359 653.74162109 646.13386719 653.73324219 644.81835938 653.72460938 C643.57763672 653.72138672 642.33691406 653.71816406 641.05859375 653.71484375 C639.92220459 653.70960693 638.78581543 653.70437012 637.61499023 653.69897461 C634.09791433 653.81763095 630.72228855 654.25469489 627.25 654.8125 Z M222.25 656.8125 C222.25 657.4725 222.25 658.1325 222.25 658.8125 C224.23 659.4725 226.21 660.1325 228.25 660.8125 C228.58 659.8225 228.91 658.8325 229.25 657.8125 C226.94 657.4825 224.63 657.1525 222.25 656.8125 Z M398.25 662.8125 C398.25 663.8025 398.25 664.7925 398.25 665.8125 C401.58727786 664.63994291 404.02437487 663.62381596 406.25 660.8125 C406.25 660.1525 406.25 659.4925 406.25 658.8125 C402.3021912 658.8125 401.06491174 660.14974565 398.25 662.8125 Z M308.25 660.8125 C307.59 662.1325 306.93 663.4525 306.25 664.8125 C307.57 664.1525 308.89 663.4925 310.25 662.8125 C310.25 662.1525 310.25 661.4925 310.25 660.8125 C309.59 660.8125 308.93 660.8125 308.25 660.8125 Z M380.25 664.8125 C379.92 665.8025 379.59 666.7925 379.25 667.8125 C380.97476911 668.76752158 380.97476911 668.76752158 383.25 668.8125 C386.28169839 666.27433391 387.99169637 664.58741089 389.25 660.8125 C385.86242325 660.8125 382.91083969 662.81853743 380.25 664.8125 Z M250.25 666.8125 C262.88688088 677.95469605 286.33328395 680.54837557 302.25 679.8125 C298.88732468 676.8891692 295.3375275 675.64430777 291.125 674.4375 C290.40795898 674.22907471 289.69091797 674.02064941 288.95214844 673.8059082 C281.87792491 671.8389684 274.70564422 670.39499668 267.5 669 C266.36933105 668.78102051 265.23866211 668.56204102 264.07373047 668.33642578 C259.39450569 667.46281093 255.02410698 666.68518326 250.25 666.8125 Z M406.0625 668.8125 C405.464375 669.4725 404.86625 670.1325 404.25 670.8125 C404.91 671.4725 405.57 672.1325 406.25 672.8125 C407.9574998 671.53187515 409.62373596 670.19482443 411.25 668.8125 C411.25 668.1525 411.25 667.4925 411.25 666.8125 C408.12501834 666.4751154 408.12501834 666.4751154 406.0625 668.8125 Z M420.25 666.8125 C419.26 667.8025 418.27 668.7925 417.25 669.8125 C418.9 669.1525 420.55 668.4925 422.25 667.8125 C421.59 667.4825 420.93 667.1525 420.25 666.8125 Z M429.125 669.3125 C428.40054688 669.7765625 427.67609375 670.240625 426.9296875 670.71875 C426.37539063 671.0796875 425.82109375 671.440625 425.25 671.8125 C425.58 673.1325 425.91 674.4525 426.25 675.8125 C427.56896465 674.88411713 428.87998689 673.94444268 430.1875 673 C430.91839844 672.47792969 431.64929688 671.95585938 432.40234375 671.41796875 C434.51883226 669.85382873 434.51883226 669.85382873 435.25 666.8125 C432.57449708 666.8125 431.35955359 667.87085252 429.125 669.3125 Z M468.25 695.8125 C466.6 696.1425 464.95 696.4725 463.25 696.8125 C463.25 697.4725 463.25 698.1325 463.25 698.8125 C464.9 698.8125 466.55 698.8125 468.25 698.8125 C468.25 697.8225 468.25 696.8325 468.25 695.8125 Z " fill="#FFFFFF" transform="translate(116.75,46.1875)"/>
<path d="M0 0 C2.65927218 1.32963609 2.86790234 2.58406927 4.0234375 5.296875 C4.405 6.1734375 4.7865625 7.05 5.1796875 7.953125 C5.96970963 9.80167351 6.75878914 11.65062518 7.546875 13.5 C9.58597331 18.18034646 11.4978825 22.19404582 15 26 C14.57847656 25.07058594 14.15695313 24.14117187 13.72265625 23.18359375 C13.1688127 21.93509897 12.61545307 20.68638943 12.0625 19.4375 C11.78470703 18.82841797 11.50691406 18.21933594 11.22070312 17.59179688 C9.36408217 13.36406963 8.46734921 9.59658658 8 5 C12.41805618 6.42960867 15.4667189 8.81812108 18.8125 11.9375 C19.33585937 12.42259033 19.85921875 12.90768066 20.3984375 13.4074707 C27.55379095 20.22329647 32.92937253 28.01069767 37 37 C36.319375 37.309375 35.63875 37.61875 34.9375 37.9375 C32.75774472 39.79612983 32.75774472 39.79612983 32.95703125 42.203125 C33.22673374 44.4902021 33.56392354 46.73903835 34 49 C33.01 49 32.02 49 31 49 C30.525625 48.360625 30.05125 47.72125 29.5625 47.0625 C27.77509389 44.70312394 26.86332753 44.39494173 24 44 C23.731875 44.639375 23.46375 45.27875 23.1875 45.9375 C22 48 22 48 19 49 C12.64103422 46.31510334 10.37796525 41.09300591 7.77197266 34.94824219 C-0.17722269 14.88670556 -0.17722269 14.88670556 -0.0625 5.25 C-0.05347656 4.26515625 -0.04445312 3.2803125 -0.03515625 2.265625 C-0.02355469 1.51796875 -0.01195312 0.7703125 0 0 Z " fill="#FFFFFF" transform="translate(181,366)"/>
<path d="M0 0 C1.890625 0.22265625 1.890625 0.22265625 4 1 C5.046875 2.99609375 5.046875 2.99609375 5.75 5.4375 C5.99234375 6.24058594 6.2346875 7.04367187 6.484375 7.87109375 C7 10 7 10 7 12 C7.78375 11.95875 8.5675 11.9175 9.375 11.875 C12 12 12 12 14 14 C14.0851425 17.16137788 13.99418374 20.25843736 13.83398438 23.4140625 C13.70879893 27.79986974 14.28288741 29.65531284 17 33 C17.40125218 38.36456716 16.51584702 43.80802856 13 48 C11.515 48.495 11.515 48.495 10 49 C1.93657149 41.51253067 -2.57371905 32.3779396 -3.203125 21.484375 C-3.29990602 13.77415347 -2.84788308 7.20446612 0 0 Z " fill="#FFFFFF" transform="translate(244,362)"/>
<path d="M0 0 C2.1875 0.3125 2.1875 0.3125 4 1 C5.04473009 7.08849324 4.79014097 11.97149922 3.5625 18 C3.41490234 18.77472656 3.26730469 19.54945313 3.11523438 20.34765625 C2.75429222 22.23387011 2.37868583 24.11726821 2 26 C4.71480387 21.9277942 5.55693284 17.63626572 6.8046875 12.93359375 C8 10 8 10 10.1328125 8.59765625 C11.05707031 8.30181641 11.05707031 8.30181641 12 8 C10.83620323 19.20920051 9.43875486 30.41751887 3 40 C0.13879744 41.43060128 -1.84010585 41.38692581 -5 41 C-8.65348447 37.09455108 -9 32.14085538 -9 27 C-8.34928637 18.29670516 -7.31319069 8.1713124 -1.5078125 1.2109375 C-0.76144531 0.61152344 -0.76144531 0.61152344 0 0 Z " fill="#FFFFFF" transform="translate(263,258)"/>
<path d="M0 0 C2.57199094 1.19079251 5.13118581 2.40135091 7.6875 3.625 C8.40873047 3.95628906 9.12996094 4.28757812 9.87304688 4.62890625 C14.85562739 7.04056622 17.85881353 9.40715843 21 14 C21.79340084 19.45463075 20.70918324 23.32899442 18 28 C15.6875 29.1875 15.6875 29.1875 13 29 C3.39852536 24.09257963 -2.67576562 15.05119844 -8 6 C-7.34 5.67 -6.68 5.34 -6 5 C-3.1796875 6.43359375 -3.1796875 6.43359375 0.125 8.4375 C1.76855469 9.42556641 1.76855469 9.42556641 3.4453125 10.43359375 C4.28835937 10.95050781 5.13140625 11.46742188 6 12 C5.73445312 11.46890625 5.46890625 10.9378125 5.1953125 10.390625 C3.46354167 6.92708333 1.73177083 3.46354167 0 0 Z " fill="#FFFFFF" transform="translate(133,340)"/>
<path d="M0 0 C13.67455374 1.18909163 24.30234395 8.93370049 33.7578125 18.45703125 C35 20 35 20 36 23 C24.84974635 21.24219531 11.04005289 18.53715293 3 10 C0.56226112 6.191033 0 4.55479942 0 0 Z " fill="#FFFFFF" transform="translate(149,323)"/>
<path d="M0 0 C3.90517041 3.32354928 7.76046042 6.68383198 11.5625 10.125 C14.88947072 13.09876493 18.20287876 15.66331001 22 18 C21.67 18.99 21.34 19.98 21 21 C20.01 21 19.02 21 18 21 C18.5053125 21.56589844 19.010625 22.13179688 19.53125 22.71484375 C20.1809375 23.44832031 20.830625 24.18179687 21.5 24.9375 C22.47453125 26.03384766 22.47453125 26.03384766 23.46875 27.15234375 C25 29 25 29 25 30 C16.37829933 30 10.56604003 26.47880613 4 21 C3 18 3 18 3.125 14.4375 C3.22036858 9.31620699 1.65189744 4.79836874 0 0 Z " fill="#FFFFFF" transform="translate(163,291)"/>
<path d="M0 0 C5.41053679 2.42541304 8.70868592 5.06302888 12 10 C12.8125 13.875 12.8125 13.875 13 17 C7.37246543 17.39630525 3.64885528 16.25756821 -1.1875 13.5625 C-6.35922696 10.68238324 -6.35922696 10.68238324 -12 9 C-11.66466723 5.98200506 -11.13434402 4.19118187 -9.375 1.6875 C-6.01162072 -0.70226949 -4.05760172 -0.55018328 0 0 Z " fill="#FFFFFF" transform="translate(124,223)"/>
<path d="M0 0 C4.68608193 0.70291229 5.79818892 2.21335512 8.5859375 5.8359375 C11.04006227 9.47594806 10.83067314 12.2061506 10.75 16.5625 C6.34124583 18.76687709 0.38909462 17.89700911 -4.3125 16.9375 C-6.25 15.5625 -6.25 15.5625 -7.1875 12.875 C-7.25986909 9.03943826 -6.56356581 6.15752222 -5.25 2.5625 C-3.25 0.5625 -3.25 0.5625 0 0 Z " fill="#FFFFFF" transform="translate(234.25,179.4375)"/>
<path d="M0 0 C1.36318359 -0.00193359 1.36318359 -0.00193359 2.75390625 -0.00390625 C3.69105469 -0.00003906 4.62820312 0.00382813 5.59375 0.0078125 C6.99947266 0.00201172 6.99947266 0.00201172 8.43359375 -0.00390625 C9.34238281 -0.00261719 10.25117188 -0.00132812 11.1875 0 C12.00927734 0.00112793 12.83105469 0.00225586 13.67773438 0.00341797 C16.22982433 0.14010023 18.60270043 0.57437819 21.09375 1.1328125 C20.09090106 3.84442641 19.54766402 4.91750461 16.88671875 6.1796875 C16.02691406 6.41171875 15.16710937 6.64375 14.28125 6.8828125 C13.42917969 7.12515625 12.57710937 7.3675 11.69921875 7.6171875 C9.0748814 8.13654662 6.76116948 8.30039906 4.09375 8.1328125 C3.76375 7.8028125 3.43375 7.4728125 3.09375 7.1328125 C-3.22614934 6.46890388 -8.63200112 7.35225422 -14.58203125 9.4765625 C-17.11996882 10.19315664 -19.28210591 10.24428057 -21.90625 10.1328125 C-19.85169273 5.20187504 -16.93164459 3.8891635 -12.2578125 1.9296875 C-8.1699699 0.54443851 -4.3070066 0.00591158 0 0 Z " fill="#FFFFFF" transform="translate(175.90625,196.8671875)"/>
<path d="M0 0 C10.32052545 2.60127998 21.14674415 7.56975447 27 17 C27 17.66 27 18.32 27 19 C20.64996652 19.45357382 16.21707114 18.8043246 11 15 C8.10791127 12.17021839 5.51472687 9.16710612 3 6 C2.42894531 5.2884375 1.85789063 4.576875 1.26953125 3.84375 C0 2 0 2 0 0 Z " fill="#FFFFFF" transform="translate(136,331)"/>
<path d="M0 0 C6.26354549 1.51843527 10.00574945 6.84393381 13.30078125 12.05859375 C15.60531847 16.35760318 16.59579222 20.14950666 17 25 C12.52873593 23.59474558 10.1284256 21.44928976 7 18 C5.948125 16.9171875 5.948125 16.9171875 4.875 15.8125 C1.76586432 11.14879648 0 5.62067729 0 0 Z " fill="#FFFFFF" transform="translate(355,564)"/>
<path d="M0 0 C12.28295804 0.26596956 23.04284354 4.88178123 33 12 C33.495 12.99 33.495 12.99 34 14 C25.29798958 13.07905289 17.86469892 10.09554821 9.91796875 6.65625 C6.6644796 5.25002057 3.38411153 4.0625154 0 3 C0 2.01 0 1.02 0 0 Z " fill="#FFFFFF" transform="translate(157,319)"/>
<path d="M0 0 C2.31049784 1.11156304 3.97849628 2.38279702 6 4 C5.125 8.875 5.125 8.875 4 10 C-0.99936425 10.564743 -4.81903393 10.75581828 -9.125 8 C-9.74375 7.34 -10.3625 6.68 -11 6 C-10.625 3.5625 -10.625 3.5625 -10 1 C-6.7932882 -0.6033559 -3.47875318 -0.49604443 0 0 Z " fill="#FFFFFF" transform="translate(139,213)"/>
<path d="M0 0 C2.3125 0.0625 2.3125 0.0625 5 1 C8.02397178 6.10946955 8.48147695 10.12598118 8 16 C7 18.5 7 18.5 6 20 C1.86104602 12.96377824 -0.27984496 8.25542631 0 0 Z " fill="#FFFFFF" transform="translate(297,464)"/>
<path d="M0 0 C0 1.32 0 2.64 0 4 C-3.16824393 6.44407389 -6.06629643 7.43804235 -10 8 C-10.66 9.98 -11.32 11.96 -12 14 C-12.66 14 -13.32 14 -14 14 C-15.00570979 10.80001432 -15.21864753 9.45915981 -13.75 6.375 C-9.68873404 0.86328191 -6.91732655 -0.15371837 0 0 Z " fill="#FFFFFF" transform="translate(265,183)"/>
<path d="M0 0 C2.375 -0.125 2.375 -0.125 5 0 C7 2 7 2 7.1953125 3.9453125 C7.13020833 5.96354167 7.06510417 7.98177083 7 10 C6.01 10.495 6.01 10.495 5 11 C-0.74504249 5.69688385 -0.74504249 5.69688385 -1 2 C-0.67 1.34 -0.34 0.68 0 0 Z " fill="#FFFFFF" transform="translate(175,386)"/>
<path d="M0 0 C3.81049403 0.54435629 5.63979378 1.98870241 8 5 C8.75 8.25 8.75 8.25 9 11 C6.1875 10.9375 6.1875 10.9375 3 10 C1.05025476 6.49045857 0 4.02677867 0 0 Z " fill="#FFFFFF" transform="translate(334,534)"/>
<path d="M0 0 C0.66 0.33 1.32 0.66 2 1 C2.39325819 7.97669157 1.63096039 13.51656189 -1 20 C-3.56889311 16.19918417 -2.89840589 13.26885704 -2.1875 8.875 C-1.99542969 7.63492187 -1.80335938 6.39484375 -1.60546875 5.1171875 C-1 2 -1 2 0 0 Z " fill="#FFFFFF" transform="translate(277,362)"/>
<path d="M0 0 C1.65 0 3.3 0 5 0 C6.4783226 2.95664519 6.06032783 5.74229737 6 9 C1.25 8.25 1.25 8.25 -1 6 C-0.625 2.875 -0.625 2.875 0 0 Z " fill="#FFFFFF" transform="translate(183,293)"/>
<path d="M0 0 C3 2 3 2 3.75 5.5 C4 9 4 9 3 11 C2.01 10.67 1.02 10.34 0 10 C-1.125 3.375 -1.125 3.375 0 0 Z " fill="#FFFFFF" transform="translate(160,377)"/>
<path d="M0 0 C3.33717549 1.3809002 5.22301036 2.8201238 7 6 C6.6875 8.25 6.6875 8.25 6 10 C3 9 3 9 1.3125 6.6875 C0 4 0 4 0 0 Z " fill="#FFFFFF" transform="translate(166,357)"/>
<path d="M0 0 C0.66 0 1.32 0 2 0 C2 4.62 2 9.24 2 14 C1.01 13.67 0.02 13.34 -1 13 C-1.0272415 11.58344207 -1.04650467 10.16672955 -1.0625 8.75 C-1.07410156 7.96109375 -1.08570313 7.1721875 -1.09765625 6.359375 C-1.00385306 4.09308998 -0.63241063 2.1711105 0 0 Z " fill="#FFFFFF" transform="translate(270,360)"/>
<path d="M0 0 C0.66 0.33 1.32 0.66 2 1 C2 3.64 2 6.28 2 9 C1.01 9 0.02 9 -1 9 C-1.33 8.67 -1.66 8.34 -2 8 C-1.28 1.28 -1.28 1.28 0 0 Z " fill="#FFFFFF" transform="translate(313,504)"/>
<path d="M0 0 C0.99 0.495 0.99 0.495 2 1 C3.28317892 4.84953676 3.06643637 7.94738135 3 12 C2.01 11.67 1.02 11.34 0 11 C0 7.37 0 3.74 0 0 Z " fill="#FFFFFF" transform="translate(226,360)"/>
<path d="M0 0 C2.33333823 2.12121657 3.9148886 4.01594365 5 7 C4.625 9.25 4.625 9.25 4 11 C1.17438373 7.20307814 -0.56638908 4.81430721 0 0 Z " fill="#FFFFFF" transform="translate(250,321)"/>
<path d="M0 0 C0 1.32 0 2.64 0 4 C-2.375 4.625 -2.375 4.625 -5 5 C-5.66 4.34 -6.32 3.68 -7 3 C-3.375 0 -3.375 0 0 0 Z " fill="#FFFFFF" transform="translate(120,214)"/>
<path d="M0 0 C1.32 0.33 2.64 0.66 4 1 C4.33 2.32 4.66 3.64 5 5 C3.68 5.33 2.36 5.66 1 6 C0.67 4.02 0.34 2.04 0 0 Z " fill="#FFFFFF" transform="translate(208,453)"/>
<path d="M0 0 C0.66 0.33 1.32 0.66 2 1 C2 3.31 2 5.62 2 8 C1.01 7.67 0.02 7.34 -1 7 C-0.67 4.69 -0.34 2.38 0 0 Z " fill="#FFFFFF" transform="translate(288,420)"/>
<path d="M0 0 C3.16115776 1.36983503 3.9927092 1.9890638 6 5 C4.68 5 3.36 5 2 5 C1.34 4.34 0.68 3.68 0 3 C0 2.01 0 1.02 0 0 Z " fill="#FFFFFF" transform="translate(237,456)"/>
<path d="M0 0 C1.32 0 2.64 0 4 0 C3.67 1.32 3.34 2.64 3 4 C1.68 3.67 0.36 3.34 -1 3 C-0.67 2.01 -0.34 1.02 0 0 Z " fill="#FFFFFF" transform="translate(158,359)"/>
<path d="M0 0 C0.99 0 1.98 0 3 0 C3 1.65 3 3.3 3 5 C1.68 4.67 0.36 4.34 -1 4 C-0.67 2.68 -0.34 1.36 0 0 Z " fill="#FFFFFF" transform="translate(149,207)"/>
<path d="M0 0 C0.66 0.33 1.32 0.66 2 1 C1.67 2.98 1.34 4.96 1 7 C0.34 7 -0.32 7 -1 7 C-0.67 4.69 -0.34 2.38 0 0 Z " fill="#FFFFFF" transform="translate(283,402)"/>
<path d="M0 0 C0.99 0.495 0.99 0.495 2 1 C2 3.31 2 5.62 2 8 C1.34 7.67 0.68 7.34 0 7 C0 4.69 0 2.38 0 0 Z " fill="#FFFFFF" transform="translate(348,553)"/>
<path d="M0 0 C0.99 0.495 0.99 0.495 2 1 C2.625 3.5625 2.625 3.5625 3 6 C2.01 5.67 1.02 5.34 0 5 C0 3.35 0 1.7 0 0 Z " fill="#FFFFFF" transform="translate(246,310)"/>
<path d="M0 0 C1.32 0.33 2.64 0.66 4 1 C4 1.66 4 2.32 4 3 C2.68 2.67 1.36 2.34 0 2 C0 1.34 0 0.68 0 0 Z " fill="#FFFFFF" transform="translate(471,651)"/>
<path d="M0 0 C0.99 0 1.98 0 3 0 C3 0.99 3 1.98 3 3 C2.01 2.67 1.02 2.34 0 2 C0 1.34 0 0.68 0 0 Z " fill="#FFFFFF" transform="translate(155,281)"/>
<path d="" fill="#FFFFFF" transform="translate(0,0)"/>
</svg>
