<svg xmlns="http://www.w3.org/2000/svg" viewBox="0 0 512 512"><path fill="#fff" d="M251.609-.37c3.657-.005 7.314-.041 10.971-.08 64.9-.31 124.995 27.496 171.982 71.263l1.948 1.811c4.458 4.223 8.504 8.71 12.49 13.376q1.332 1.516 2.668 3.027C483.886 126.241 503.084 171.685 511 220l.544 3.065c.636 5.49.659 10.94.694 16.462l.025 3.699q.02 3.882.032 7.764.017 3.902.062 7.804c.715 62.515-22.894 122.567-65.087 168.714a289 289 0 0 0-4.383 4.922C432.795 443.979 421.277 453.85 409 463l-1.833 1.368a417 417 0 0 1-5.355 3.882l-3.167 2.266L396 472c-3.45-1.15-3.768-1.75-5.638-4.715l-1.526-2.387-1.637-2.613-3.526-5.523-1.839-2.893c-2.894-4.528-5.854-9.013-8.814-13.498l-3.558-5.4-5.57-8.445a6237 6237 0 0 0-22.142-33.401 4818 4818 0 0 1-20.563-31.062l-1.584-2.411-6.511-9.905a37841 37841 0 0 0-19.405-29.497l-1.82-2.765c-9.812-14.898-19.703-29.742-29.618-44.572-6.163-9.222-12.306-18.445-18.187-27.85-8.041-12.856-16.639-25.35-25.14-37.904l-3.77-5.57-1.863-2.75a1937 1937 0 0 1-11.098-16.585l-1.296-1.958a2356 2356 0 0 1-5.792-8.793l-1.99-3.01-1.694-2.583c-1.287-2.032-1.287-2.032-3.419-2.91-3.62-.267-7.247-.232-10.875-.25l-3.05-.062-2.942-.016-2.691-.028c-3.132.457-4.253 1.047-6.442 3.356-.403 2.82-.544 5.255-.515 8.078l-.02 2.524c-.02 2.8-.009 5.6.002 8.402q-.011 3.005-.027 6.011c-.022 5.45-.02 10.9-.01 16.351.005 4.545-.002 9.09-.01 13.636q-.023 16.082.004 32.163c.017 11.07 0 22.14-.032 33.211q-.039 14.243-.025 28.487c.005 5.675.003 11.35-.018 17.026q-.026 8.003.012 16.008.008 2.94-.01 5.882a555 555 0 0 0 .02 8.016l-.035 2.363c.067 3.861.333 5.496 3.047 8.332 2.936 1.694 4.355 1.928 7.699 1.682l2.822-.176 2.908-.246c.98-.066 1.959-.131 2.967-.2q3.613-.246 7.221-.55c1.249-3.746 1.36-7.35 1.543-11.26l.126-2.646c.545-12.584.56-25.182.634-37.777q.036-5.469.076-10.938.074-10.305.138-20.61.076-11.754.16-23.507.169-24.132.323-48.262h2c1.15 1.347 1.15 1.347 2.441 3.277l1.49 2.204c.539.81 1.077 1.621 1.631 2.457l3.567 5.292 1.914 2.857c2.609 3.883 5.244 7.748 7.879 11.613 14.308 20.995 28.533 42.048 42.757 63.1l4.717 6.978a7964 7964 0 0 1 14.592 21.648c15.775 23.558 15.775 23.558 32.44 46.489 2.892 3.835 5.727 7.714 8.572 11.585l3.492 4.738q3.541 4.807 7.078 9.617a2701 2701 0 0 0 17.9 24.098c3.797 5.051 7.542 10.14 11.28 15.235 7.615 10.373 15.421 20.6 23.25 30.812-1.36 3.308-2.483 4.61-5.719 6.113l-2.295 1.083-2.486 1.117-2.591 1.187A582 582 0 0 1 357 493l-2.255.983C341.562 499.63 327.905 503.564 314 507l-3.017.792c-18.258 4.634-36.562 4.708-55.296 4.77-1.235.01-2.47.018-3.744.027-62.08.301-121.84-23.605-167.591-65.46-1.997-1.807-4.033-3.533-6.102-5.254C33.919 402.985 6.661 342.897 0 285c-.268-4.406-.327-8.797-.336-13.21l-.02-3.67q-.015-3.819-.015-7.638c-.004-3.814-.04-7.626-.078-11.439C-.69 196.419 17.76 143.636 50 102l1.45-1.879a335 335 0 0 1 19.362-22.683l1.812-1.947C76.847 71.032 81.336 66.99 86 63l2.922-2.598C103.607 47.604 119.684 36.888 137 28l2.539-1.33C162.986 14.467 187.94 6.361 214 2l2.837-.553c11.51-2.008 23.122-1.82 34.772-1.818m68.793 156.956c-3.608 6.212-2.6 14.746-2.674 21.705l-.05 3.708a4648 4648 0 0 0-.278 33.814c-.045 8.31-.122 16.618-.242 24.926-.082 5.868-.124 11.736-.14 17.604a614 614 0 0 1-.106 10.474c-.292 15.295-.367 27.458 9.78 39.564 2.279 2.82 4.164 5.897 6.117 8.947a866 866 0 0 0 2.322 3.48q2.352 3.509 4.695 7.024c2.977 4.455 5.942 8.893 9.174 13.168q.07-35.1.104-70.2.014-16.298.047-32.594.03-14.202.037-28.404.003-7.522.023-15.044.02-7.077.015-14.153 0-2.6.012-5.2c.01-2.364.008-4.727.003-7.09l.017-2.088c-.022-3.565-.177-6.267-2.258-9.227-4.358-2.905-8.31-2.368-13.438-2.375l-2.892-.074c-5.406-.054-5.406-.054-10.268 2.035"/><path fill="#fff" d="M162 166h1v204h-1zm185-5h1v176l-2-1zm-158 57h1v127h-1zm130-49h1v125h-1zm4-13h21v1l-22 1zm-157 7h22v1h-22zm22 187h1v20h-1zm-20 22h18v1h-18zm343-80h1v7h-1zM0 292h1v7H0zm0-79h1v7H0zm320-54h1v7h-1zm-28 352h6v1h-6zm-78 0h6v1h-6zm215-65 2 1-4 2zm19-19v3l-2 1zm63-213h1v6h-1zM82 64l2 1-4 2zM298 1h6v1h-6zm-6-1h6v1h-6zm-78 0h6v1h-6zm85 510h5v1h-5zm-91 0h5v1h-5zm96-1h5v1h-5zm-101 0h5v1h-5zm106-1h5v1h-5zm-111 0h5v1h-5zm310-199h1v5h-1zM3 309h1v5H3zm506-5h1v5h-1zM2 304h1v5H2zm508-5h1v5h-1zM1 299h1v5H1zm509-91h1v5h-1zM1 208h1v5H1zm508-5h1v5h-1zM2 203h1v5H2zm506-5h1v5h-1zM3 198h1v5H3zM198 3h5v1h-5zm106-1h5v1h-5zM203 2h5v1h-5zm5-1h5v1h-5zm106 506 4 1Zm-120 0 4 1Zm124-1 4 1Zm-128 0 4 1Zm132-1 4 1Zm-136 0 4 1Zm146-3 4 1Zm-156 0 4 1Zm-63-31 3 1h-3zm-3-2 3 1h-3zm305-11 2 1h-3zm-320 0 3 1h-3zm263-6 2 1-1 2zm-276-5 3 1h-3zm291-5 2 1-1 2zm-2-3 2 1-1 2zM63 427l2 1-1 2zm272-6 2 1-1 2zm-283-7 2 1-1 2zm420-18v3Zm-157-2 2 1-1 2zm19-11 2 1-1 2zm-36-12 2 1-1 2zm-7-10 2 1-1 2zm-2-3 2 1-1 2zm213-26 1 4ZM9 332l1 4Zm257-8 2 1-1 2zm239-2 1 4ZM6 322l1 4Zm258-1 2 1-1 2zm242-3 1 4ZM5 318l1 4Zm502-4 1 4ZM4 314l1 4Zm237-27 2 1-1 2zm29-1 2 1-1 2zm-31-2 2 1-1 2zm29-1 2 1-1 2zm-48-27 2 1-1 2zm-17-25 2 1-1 2zm304-37 1 4ZM4 194l1 4Zm502-4 1 4ZM5 190l1 4Zm1-4 1 4Zm3-10 1 4Zm23-50v3Zm429-27 2 1-1 2zM50 99v3Zm403-10 2 1-1 2zM58 89v3Zm388-8 2 1-1 2zM65 81v3Zm363-17 3 1h-3zm-8-7 3 1h-3zM90 57l2 1h-3zm320-8 3 1h-3zm-22-15 3 1h-3zM325 7l4 1ZM183 7l4 1Zm135-2 4 1ZM190 5l4 1Zm124-1 4 1ZM194 4l4 1Zm115-1 4 1Zm17 501 3 1Zm-143 0 3 1Zm146-1 3 1Zm-149 0 3 1Zm156-2 3 1Zm-163 0 3 1Zm166-1 3 1Zm-171-1 3 1Zm176-1 3 1Zm-179 0 3 1Zm182-1 3 1Zm-187-1 3 1Zm-5-2 3 1Zm206-3 3 1Zm-215-1 3 1ZM349 15l3 1Zm-189 0 3 1Zm184-2 3 1Zm-179 0 3 1Zm176-1 3 1Zm-173 0 3 1Zm170-1 3 1Zm-167 0 3 1Zm164-1 3 1Zm-161 0 3 1Zm158-1 3 1ZM177 9l3 1Zm152-1 3 1ZM180 8l3 1Zm142-2 3 1ZM187 6l3 1Zm-16 494 2 1Zm171-1 2 1Zm-179-2 2 1Zm187-1 2 1Zm2-1 2 1Zm-194 0 2 1Zm197-1 2 1Zm2-1 2 1Zm-204 0 2 1Zm206-1 2 1Zm-208 0 2 1Zm-2-1 2 1Zm215-1 2 1Zm2-1 2 1Zm-222 0 2 1Zm224-1 2 1Zm-226 0 2 1Zm228-1 2 1Zm-230 0 2 1Zm232-1 2 1Zm-234 0 2 1Zm236-1 2 1Zm-238 0 2 1Zm-3-2 2 1Zm-2-1 2 1Zm-2-1 2 1Zm-2-1 2 1Zm-3-2 2 1Zm-2-1 2 1Zm-3-2 2 1Zm275-2 2 1Zm-278 0 2 1Zm280-1 2 1Zm3-2 2 1Zm3-2 2 1Zm-295-1 2 1Zm299-2 2 1Zm-302 0 2 1Zm306-3 2 1Zm-310 0 2 1Zm320-8 2 1Zm-330 0 2 1Zm75-82 2 1Zm26-156 2 1Zm-3-52 2 1Zm-24 0 2 1ZM415 53l2 1ZM95 53l2 1Zm4-3 2 1Zm308-3 2 1Zm-304 0 2 1Zm300-3 2 1Zm-296 0 2 1Zm293-2 2 1Zm-290 0 2 1Zm287-2 2 1Zm-284 0 2 1Zm281-2 2 1Zm-278 0 2 1Zm275-2 2 1Zm-272 0 2 1Zm2-1 2 1Zm265-2 2 1Zm-262 0 2 1Zm260-1 2 1Zm-258 0 2 1Zm255-2 2 1Zm-252 0 2 1Zm250-1 2 1Zm-248 0 2 1Zm246-1 2 1Zm-244 0 2 1Zm242-1 2 1Zm-240 0 2 1Zm2-1 2 1Zm6-3 2 1Zm222-1 2 1Zm-220 0 2 1Zm218-1 2 1Zm-216 0 2 1Zm214-1 2 1Zm-212 0 2 1Zm210-1 2 1Zm-208 0 2 1Zm206-1 2 1Zm-204 0 2 1Zm201-1 2 1Zm-198 0 2 1Zm196-1 2 1Zm-194 0 2 1Zm189-2 2 1Zm-184 0 2 1Z"/></svg>