<?xml version="1.0" encoding="UTF-8"?>
<svg version="1.1" xmlns="http://www.w3.org/2000/svg" width="500" height="500">
<path d="M0 0 C5.75226429 2.23063658 8.76844289 6.4074107 11.30859375 11.875 C12.81921101 16.51780107 13.12464284 21.14501755 13.12025452 25.99850464 C13.12231651 27.76522774 13.12231651 27.76522774 13.12442017 29.56764221 C13.12082489 30.84582321 13.11722961 32.12400421 13.11352539 33.44091797 C13.11324308 34.81124367 13.11340212 36.18156953 13.1139679 37.55189514 C13.11425415 41.2601126 13.10838523 44.96829755 13.10139394 48.67650747 C13.09513175 52.55623808 13.09455433 56.43596947 13.09336853 60.31570435 C13.09026366 67.65724172 13.08206165 74.99876415 13.07201904 82.34029496 C13.06083169 90.70061154 13.05534085 99.06092885 13.05032361 107.42125106 C13.03987833 124.614176 13.02229524 141.80708642 13 159 C14.39948993 158.99723462 14.39948993 158.99723462 15.82725239 158.99441338 C38.55508453 158.94996523 61.28291101 158.9171252 84.01077747 158.89637566 C95.00191101 158.88607399 105.99301579 158.87203489 116.98413086 158.84912109 C126.5667527 158.82915323 136.1493537 158.8162755 145.73199576 158.81182301 C150.80339525 158.80922139 155.87473515 158.80312957 160.94611549 158.78853989 C165.7255495 158.7749023 170.50489973 158.7707898 175.28435135 158.77378464 C177.03258533 158.77323723 178.7808223 158.76929676 180.52903938 158.76158905 C194.85130229 158.70157413 208.86544217 158.65825285 220.0703125 168.890625 C229.53529511 179.29800848 233.8855546 189.64011965 233.42578125 203.71875 C233.00623735 209.70690681 230.87708942 214.78071666 228 220 C227.49082031 220.93328125 226.98164063 221.8665625 226.45703125 222.828125 C225.97621094 223.54484375 225.49539063 224.2615625 225 225 C224.34 225 223.68 225 223 225 C222.77957031 225.69351563 222.55914062 226.38703125 222.33203125 227.1015625 C220.67162348 230.7145319 218.29965084 233.42980532 215.6875 236.375 C212.59997736 239.92171581 209.58325501 243.41558976 206.9375 247.3125 C206.298125 248.199375 205.65875 249.08625 205 250 C204.34 250 203.68 250 203 250 C202.93683594 250.53753906 202.87367188 251.07507813 202.80859375 251.62890625 C201.65479891 255.01225633 199.40089576 257.31158686 197.0625 259.9375 C192.80979772 264.83312505 188.76902648 269.81420915 184.84423828 274.9777832 C178.21631952 283.68001917 171.33147084 292.18399129 164.375 300.625 C160.78887829 304.99155468 157.3189993 309.43908545 153.89038086 313.92944336 C150.14484985 318.83182192 146.33033325 323.67808619 142.49072266 328.50708008 C140.01466489 331.60158074 140.01466489 331.60158074 138 335 C137.34 335 136.68 335 136 335 C135.64228516 335.82177734 135.64228516 335.82177734 135.27734375 336.66015625 C133.687567 339.57231611 131.70276681 341.9036209 129.5625 344.4375 C127.24669534 347.18060305 125.14910138 349.74424728 123.33984375 352.84765625 C122.67662109 353.91306641 122.67662109 353.91306641 122 355 C121.34 355 120.68 355 120 355 C119.814375 355.66 119.62875 356.32 119.4375 357 C117.67801112 360.67197679 115.30016355 363.24951032 112.55859375 366.23046875 C110.92943284 367.92814506 110.92943284 367.92814506 110 370 C109.34 370 108.68 370 108 370 C107.71125 370.804375 107.4225 371.60875 107.125 372.4375 C106 375 106 375 104 376 C102.99266763 377.66224525 101.99414593 379.32983484 101 381 C99.50842995 382.89836188 97.98606854 384.77284059 96.4375 386.625 C94.1465153 389.37117213 91.98454379 392.02318432 90 395 C89.34 395 88.68 395 88 395 C87.77957031 395.69351562 87.55914062 396.38703125 87.33203125 397.1015625 C85.67162348 400.7145319 83.29965084 403.42980532 80.6875 406.375 C77.59997736 409.92171581 74.58325501 413.41558976 71.9375 417.3125 C71.298125 418.199375 70.65875 419.08625 70 420 C69.34 420 68.68 420 68 420 C67.94199219 420.53109375 67.88398438 421.0621875 67.82421875 421.609375 C66.61799843 425.1079856 64.23088845 427.52609758 61.8125 430.25 C58.02419301 434.59953765 54.4167651 438.96400275 51.12109375 443.70703125 C50.75113281 444.13371094 50.38117188 444.56039063 50 445 C49.34 445 48.68 445 48 445 C48 445.66 48 446.32 48 447 C42.19960998 451.39423486 35.47331229 451.47458521 28.49609375 450.625 C23.35774583 449.33840271 19.59433154 446.36608043 16.65234375 442 C13.05073335 435.18404913 12.84149168 428.70400938 12.79467773 421.13378906 C12.78477814 420.14243454 12.77487854 419.15108002 12.76467896 418.12968445 C12.73304028 414.84168887 12.70824658 411.55367981 12.68359375 408.265625 C12.66297634 405.95285715 12.64197879 403.64009267 12.62062073 401.32733154 C12.5766231 396.45831251 12.5357402 391.58928099 12.49731445 386.72021484 C12.44884243 380.58159428 12.39516855 374.44303532 12.33933926 368.30447769 C12.28548727 362.35404331 12.23448778 356.40358528 12.18359375 350.453125 C12.16925702 348.81918163 12.16925702 348.81918163 12.15463066 347.15222931 C11.99333797 328.43457895 11.97910147 309.71816313 12 291 C11.07216044 291.00184359 10.14432089 291.00368717 9.18836498 291.00558662 C-13.41428908 291.05003547 -36.01693747 291.08287513 -58.61962605 291.10362434 C-69.55022551 291.11392585 -80.48079605 291.12796466 -91.41137695 291.15087891 C-100.94126108 291.17084724 -110.47112425 291.18372462 -120.00102872 291.18817699 C-125.04448267 291.19077853 -130.08787671 291.19686983 -135.13131142 291.21146011 C-139.88448072 291.22509845 -144.63756578 291.22921005 -149.39075279 291.22621536 C-151.12931146 291.22676274 -152.86787313 291.23070276 -154.60641479 291.23841095 C-168.90396686 291.29865914 -182.8866465 291.32238319 -194.0703125 281.109375 C-203.62844014 270.59957232 -207.80566774 260.32734543 -207.35546875 246.140625 C-207.02641365 240.88999855 -205.53604836 236.59230379 -203 232 C-202.6184375 231.2884375 -202.236875 230.576875 -201.84375 229.84375 C-200.93449137 228.20708446 -199.97348529 226.59929726 -199 225 C-198.34 225 -197.68 225 -197 225 C-196.34 223.35 -195.68 221.7 -195 220 C-194.34 220 -193.68 220 -193 220 C-192.773125 219.30132812 -192.54625 218.60265625 -192.3125 217.8828125 C-190.72334082 214.39233787 -188.49760798 211.73654514 -186 208.875 C-183.51989238 205.99098913 -181.11504273 203.1725641 -179 200 C-178.34 200 -177.68 200 -177 200 C-176.93683594 199.46246094 -176.87367188 198.92492187 -176.80859375 198.37109375 C-175.65479891 194.98774367 -173.40089576 192.68841314 -171.0625 190.0625 C-166.80979772 185.16687495 -162.76902648 180.18579085 -158.84423828 175.0222168 C-152.21631952 166.31998083 -145.33147084 157.81600871 -138.375 149.375 C-134.78887829 145.00844532 -131.3189993 140.56091455 -127.89038086 136.07055664 C-124.14484985 131.16817808 -120.33033325 126.32191381 -116.49072266 121.49291992 C-114.01466489 118.39841926 -114.01466489 118.39841926 -112 115 C-111.34 115 -110.68 115 -110 115 C-109.76152344 114.45214844 -109.52304688 113.90429688 -109.27734375 113.33984375 C-107.687567 110.42768389 -105.70276681 108.0963791 -103.5625 105.5625 C-101.24669534 102.81939695 -99.14910138 100.25575272 -97.33984375 97.15234375 C-96.89769531 96.44207031 -96.45554687 95.73179688 -96 95 C-95.34 95 -94.68 95 -94 95 C-93.34 93.35 -92.68 91.7 -92 90 C-91.34 90 -90.68 90 -90 90 C-89.62875 89.18595703 -89.62875 89.18595703 -89.25 88.35546875 C-87.72559225 85.4829129 -85.91080823 82.94337383 -84 80.3125 C-83.29875 79.33925781 -82.5975 78.36601563 -81.875 77.36328125 C-80 75 -80 75 -78 74 C-76.86649466 71.98330173 -76.86649466 71.98330173 -76 70 C-75.34 70 -74.68 70 -74 70 C-73.79375 69.319375 -73.5875 68.63875 -73.375 67.9375 C-71.82424403 64.62452134 -69.87529276 62.3421985 -67.4375 59.6484375 C-65.80725313 57.85040066 -65.80725313 57.85040066 -64 55 C-63.34 55 -62.68 55 -62 55 C-61.34 53.35 -60.68 51.7 -60 50 C-59.34 50 -58.68 50 -58 50 C-57.6596875 48.95199219 -57.6596875 48.95199219 -57.3125 47.8828125 C-55.72334082 44.39233787 -53.49760798 41.73654514 -51 38.875 C-48.51989238 35.99098913 -46.11504273 33.1725641 -44 30 C-43.34 30 -42.68 30 -42 30 C-41.94199219 29.46890625 -41.88398438 28.9378125 -41.82421875 28.390625 C-40.61799843 24.8920144 -38.23088845 22.47390242 -35.8125 19.75 C-32.02419301 15.40046235 -28.4167651 11.03599725 -25.12109375 6.29296875 C-24.75113281 5.86628906 -24.38117188 5.43960937 -24 5 C-23.34 5 -22.68 5 -22 5 C-22 4.34 -22 3.68 -22 3 C-16.06613649 -1.76347623 -7.22495241 -1.10220341 0 0 Z " fill="#42CF90" transform="translate(237,25)"/>
<path d="M0 0 C62.04 0 124.08 0 188 0 C188 0.66 188 1.32 188 2 C188.62648438 2.13277344 189.25296875 2.26554688 189.8984375 2.40234375 C190.71570313 2.57894531 191.53296875 2.75554687 192.375 2.9375 C193.18710937 3.11152344 193.99921875 3.28554687 194.8359375 3.46484375 C197 4 197 4 199 5 C199 5.66 199 6.32 199 7 C199.99 7.33 200.98 7.66 202 8 C202.33 8.99 202.66 9.98 203 11 C203.99 11 204.98 11 206 11 C210.93851086 13.53895215 214.20435019 16.4125884 215.9375 21.75 C216.30071505 23.16437382 216.65652989 24.58070202 217 26 C217.33 26.66 217.66 27.32 218 28 C218.2383036 31.07752082 218.18519377 34.16426397 218.1875 37.25 C218.19974609 38.09691406 218.21199219 38.94382813 218.22460938 39.81640625 C218.23586334 44.64060386 217.81507307 48.45886662 216 53 C215.63893903 54.66088045 215.29537827 56.32618981 215 58 C214.01 58.33 213.02 58.66 212 59 C212 59.94875 212 60.8975 212 61.875 C211.30059755 66.66542773 208.46801187 69.56393003 205.40234375 73.15625 C203.63306272 75.25061844 201.95907358 77.34181332 200.31640625 79.53125 C199.869021 80.12728027 199.42163574 80.72331055 198.96069336 81.33740234 C198.07902931 82.51735924 197.20085663 83.69993396 196.32641602 84.88525391 C195.26378731 86.29291394 194.13698198 87.65168308 193 89 C192.34 89 191.68 89 191 89 C190.93683594 89.53753906 190.87367188 90.07507813 190.80859375 90.62890625 C189.65479891 94.01225633 187.40089576 96.31158686 185.0625 98.9375 C180.80979772 103.83312505 176.76902648 108.81420915 172.84423828 113.9777832 C166.21631952 122.68001917 159.33147084 131.18399129 152.375 139.625 C148.78887829 143.99155468 145.3189993 148.43908545 141.89038086 152.92944336 C138.14484985 157.83182192 134.33033325 162.67808619 130.49072266 167.50708008 C128.01466489 170.60158074 128.01466489 170.60158074 126 174 C125.34 174 124.68 174 124 174 C123.76152344 174.54785156 123.52304687 175.09570312 123.27734375 175.66015625 C121.687567 178.57231611 119.70276681 180.9036209 117.5625 183.4375 C115.24669534 186.18060305 113.14910138 188.74424728 111.33984375 191.84765625 C110.89769531 192.55792969 110.45554687 193.26820313 110 194 C109.34 194 108.68 194 108 194 C107.7215625 194.99 107.7215625 194.99 107.4375 196 C105.67801112 199.67197679 103.30016355 202.24951032 100.55859375 205.23046875 C98.92943284 206.92814506 98.92943284 206.92814506 98 209 C97.34 209 96.68 209 96 209 C95.71125 209.804375 95.4225 210.60875 95.125 211.4375 C94 214 94 214 92 215 C90.99266763 216.66224525 89.99414593 218.32983484 89 220 C87.50842995 221.89836188 85.98606854 223.77284059 84.4375 225.625 C82.1465153 228.37117213 79.98454379 231.02318432 78 234 C77.34 234 76.68 234 76 234 C75.77957031 234.69351563 75.55914062 235.38703125 75.33203125 236.1015625 C73.67162348 239.7145319 71.29965084 242.42980532 68.6875 245.375 C65.59997736 248.92171581 62.58325501 252.41558976 59.9375 256.3125 C59.298125 257.199375 58.65875 258.08625 58 259 C57.34 259 56.68 259 56 259 C55.94199219 259.53109375 55.88398438 260.0621875 55.82421875 260.609375 C54.61799843 264.1079856 52.23088845 266.52609758 49.8125 269.25 C46.02419301 273.59953765 42.4167651 277.96400275 39.12109375 282.70703125 C38.75113281 283.13371094 38.38117188 283.56039063 38 284 C37.34 284 36.68 284 36 284 C36 284.66 36 285.32 36 286 C30.19960998 290.39423486 23.47331229 290.47458521 16.49609375 289.625 C11.35774583 288.33840271 7.59433154 285.36608043 4.65234375 281 C1.88371349 275.76044165 0.88536987 270.7887592 0.84178162 264.8691864 C0.83199248 263.85276125 0.82220335 262.8363361 0.81211758 261.78911018 C0.80636243 260.68009787 0.80060728 259.57108555 0.79467773 258.4284668 C0.78478097 257.24583693 0.7748842 256.06320705 0.76468754 254.84473991 C0.73840911 251.57090427 0.71651884 248.29707457 0.69668961 245.02319455 C0.67900496 242.22249778 0.65790486 239.42183091 0.63677824 236.6211583 C0.57953984 229.03210334 0.52932518 221.44301634 0.48234785 213.85389155 C0.44785816 208.29001184 0.41118071 202.72615022 0.37332153 197.16229248 C0.13176903 161.47164764 -0.03625163 125.78133247 -0.0625 90.08984375 C-0.06303753 89.39369249 -0.06357506 88.69754122 -0.06412888 87.98029447 C-0.08575349 58.65351255 -0.03325029 29.32675552 0 0 Z " fill="#2FAD75" transform="translate(249,186)"/>
<path d="M0 0 C24.79178417 -0.16380132 49.58348677 -0.28709805 74.37570381 -0.3626852 C85.8881862 -0.39872057 97.40033161 -0.4478167 108.91259766 -0.52807617 C118.95121206 -0.59802827 128.98958231 -0.64305064 139.02843368 -0.65861946 C144.33998409 -0.66771476 149.65083625 -0.68896492 154.96216202 -0.7401104 C159.97083745 -0.78794658 164.97853313 -0.80221627 169.98741531 -0.79175377 C171.8166793 -0.79366523 173.64597915 -0.80739708 175.47504425 -0.83443832 C188.06928563 -1.0113577 198.51760558 0.29272388 208.31263924 9.07306767 C210.07913999 10.95522949 211.54737411 12.86811806 213 15 C213.46792969 15.66128906 213.93585938 16.32257813 214.41796875 17.00390625 C220.91934752 26.7464416 222.50473835 36.45917013 221 48 C219.23746773 54.21275742 216.36022617 59.52115615 213 65 C212.34 64.67 211.68 64.34 211 64 C211 62.02 211 60.04 211 58 C212.32 58.33 213.64 58.66 215 59 C215.06058594 58.28972656 215.12117187 57.57945312 215.18359375 56.84765625 C215.26738281 55.92855469 215.35117187 55.00945312 215.4375 54.0625 C215.55931641 52.68771484 215.55931641 52.68771484 215.68359375 51.28515625 C216 49 216 49 217 48 C217.27917065 44.94646525 217.23185183 41.87727295 217.25 38.8125 C217.270625 37.96107422 217.29125 37.10964844 217.3125 36.23242188 C217.34495479 30.98691581 216.74296715 27.61348928 214 23 C213.5978125 21.453125 213.5978125 21.453125 213.1875 19.875 C211.61592537 16.07013511 209.56153232 14.92916334 206 13 C205.34 13 204.68 13 204 13 C203.01 13 202.02 13 201 13 C201.33 12.34 201.66 11.68 202 11 C201.505 10.54625 201.01 10.0925 200.5 9.625 C199 8 199 8 199 6 C193.555 4.515 193.555 4.515 188 3 C188 2.34 188 1.68 188 1 C125.96 1 63.92 1 0 1 C0 0.67 0 0.34 0 0 Z " fill="#81B79F" transform="translate(249,185)"/>
<path d="M0 0 C-5.98954456 7.8959233 -12.1204449 15.65748705 -18.38916016 23.33374023 C-21.69291466 27.38203722 -24.94447095 31.46147721 -28.1328125 35.6015625 C-31.72531596 40.21620084 -35.39894364 44.76668818 -39.05859375 49.328125 C-40.85041825 51.56169805 -42.6336343 53.80102878 -44.41015625 56.046875 C-45.44462891 57.35398437 -45.44462891 57.35398437 -46.5 58.6875 C-47.38171875 59.80705078 -47.38171875 59.80705078 -48.28125 60.94921875 C-50.07876079 63.09397595 -51.99367162 65.05086958 -54 67 C-54.1875 64.1875 -54.1875 64.1875 -54 61 C-52.625 59.4375 -52.625 59.4375 -51 58 C-50.773125 57.236875 -50.54625 56.47375 -50.3125 55.6875 C-48.86099162 52.7153638 -47.79124525 51.97313673 -45.125 50.125 C-40.95177358 47.20449616 -39.29431712 44.50365953 -37 40 C-35.25 38.0625 -35.25 38.0625 -34 37 C-33.505 37.495 -33.505 37.495 -33 38 C-32.7525 37.278125 -32.505 36.55625 -32.25 35.8125 C-30.86144292 32.68824657 -29.34645417 30.48448088 -27 28 C-24.75 27.1875 -24.75 27.1875 -23 27 C-22.814375 25.3603125 -22.814375 25.3603125 -22.625 23.6875 C-22 20 -22 20 -20 17 C-19.01 16.67 -18.02 16.34 -17 16 C-16.38125 14.6078125 -16.38125 14.6078125 -15.75 13.1875 C-13.9433351 9.89678893 -13.52175382 9.52200134 -10.375 8 C-9.26125 7.34 -8.1475 6.68 -7 6 C-6.10792821 2.9042893 -6.10792821 2.9042893 -6 0 C-3.50907189 -1.24546405 -2.58919267 -0.7767578 0 0 Z " fill="#8ADDB9" transform="translate(432,287)"/>
<path d="M0 0 C36.63 0 73.26 0 111 0 C111 0.33 111 0.66 111 1 C109.69343445 1.00364563 108.3868689 1.00729126 107.04071045 1.01104736 C94.73910905 1.04795774 82.4377589 1.10568714 70.13634872 1.18390274 C63.81175433 1.22344427 57.48730057 1.25560008 51.16259766 1.27099609 C45.06108561 1.28611855 38.95996002 1.3204859 32.85861969 1.36830902 C30.5286113 1.38316835 28.19854775 1.39104361 25.86849213 1.39188385 C22.60949802 1.39424151 19.35158239 1.42122539 16.09277344 1.45410156 C14.64160378 1.44655602 14.64160378 1.44655602 13.16111755 1.43885803 C7.92712006 1.47443802 7.92712006 1.47443802 3.39857483 3.86903381 C1.59696606 6.61409063 1.52546761 8.33537172 1.57421875 11.60546875 C1.58259766 12.67087891 1.59097656 13.73628906 1.59960938 14.83398438 C1.62861328 15.94064453 1.65761719 17.04730469 1.6875 18.1875 C1.69716797 19.30576172 1.70683594 20.42402344 1.71679688 21.57617188 C1.31611502 26.64531181 1.31611502 26.64531181 3 31 C2.90349817 33.7798752 2.74840427 36.53811286 2.5625 39.3125 C1.7734276 52.53532833 1.90673491 65.75922736 2 79 C1.34 78.67 0.68 78.34 0 78 C0 52.26 0 26.52 0 0 Z " fill="#1D8F5C" transform="translate(249,186)"/>
<path d="M0 0 C0.495 0.99 0.495 0.99 1 2 C0.53851563 2.57105469 0.07703125 3.14210938 -0.3984375 3.73046875 C-3.54232512 7.63858201 -6.67426084 11.54851793 -9.6875 15.55859375 C-10.13432129 16.15067627 -10.58114258 16.74275879 -11.04150391 17.3527832 C-11.92408446 18.52573308 -12.80145891 19.70262007 -13.67333984 20.88354492 C-14.73568845 22.29203541 -15.86269944 23.65130528 -17 25 C-17.66 25 -18.32 25 -19 25 C-19.05800781 25.53109375 -19.11601562 26.0621875 -19.17578125 26.609375 C-20.38207103 30.10818707 -22.76947782 32.52561848 -25.1875 35.25 C-26.18920784 36.40346699 -27.18921588 37.55841238 -28.1875 38.71484375 C-28.67089844 39.27413574 -29.15429688 39.83342773 -29.65234375 40.40966797 C-32.26306602 43.49050943 -34.62976271 46.73291617 -37 50 C-37.66 49.67 -38.32 49.34 -39 49 C-38.1875 46.5625 -38.1875 46.5625 -37 44 C-35.515 43.505 -35.515 43.505 -34 43 C-33.67 42.01 -33.34 41.02 -33 40 C-32.34 40 -31.68 40 -31 40 C-30.731875 39.0925 -30.46375 38.185 -30.1875 37.25 C-29.08072962 34.22094424 -28.17360606 32.34080653 -26 30 C-25.34386719 29.7215625 -24.68773437 29.443125 -24.01171875 29.15625 C-20.80593659 27.31370336 -20.4823509 24.73125111 -19.4609375 21.33203125 C-18.86841646 18.33427648 -19.17464903 15.92624434 -20 13 C-18.783125 12.979375 -17.56625 12.95875 -16.3125 12.9375 C-13.6489746 12.62220636 -12.38855441 12.38362351 -10.4609375 10.48046875 C-9.63498228 9.27700639 -8.84658328 8.04654925 -8.10546875 6.7890625 C-6.00440505 3.38875447 -3.61810496 1.62190912 0 0 Z " fill="#55C695" transform="translate(324,420)"/>
<path d="M0 0 C0.33 0.66 0.66 1.32 1 2 C0.67 2.66 0.34 3.32 0 4 C-0.66 4 -1.32 4 -2 4 C-2.185625 4.66 -2.37125 5.32 -2.5625 6 C-4.32198888 9.67197679 -6.69983645 12.24951032 -9.44140625 15.23046875 C-11.07056716 16.92814506 -11.07056716 16.92814506 -12 19 C-12.66 19 -13.32 19 -14 19 C-14.433125 20.2065625 -14.433125 20.2065625 -14.875 21.4375 C-16 24 -16 24 -18 25 C-18.4125 25.70125 -18.825 26.4025 -19.25 27.125 C-21.46641314 30.76625016 -24.17191517 33.82412481 -27 37 C-27.66 35.68 -28.32 34.36 -29 33 C-28.01 32.505 -28.01 32.505 -27 32 C-27 31.34 -27 30.68 -27 30 C-26.34 30 -25.68 30 -25 30 C-25.061875 29.236875 -25.12375 28.47375 -25.1875 27.6875 C-25 25 -25 25 -23.4375 23.5 C-22.963125 23.005 -22.48875 22.51 -22 22 C-22.23043864 19.34533951 -22.23043864 19.34533951 -23 17 C-22.4225 16.87625 -21.845 16.7525 -21.25 16.625 C-17.30200133 15.5283337 -14.11076639 13.66637119 -11 11 C-11 10.34 -11 9.68 -11 9 C-9.35 8.34 -7.7 7.68 -6 7 C-6 6.01 -6 5.02 -6 4 C-5.34 4 -4.68 4 -4 4 C-4 3.34 -4 2.68 -4 2 C-2.68 1.34 -1.36 0.68 0 0 Z " fill="#3EC68A" transform="translate(359,376)"/>
<path d="M0 0 C5.06467879 1.29561551 7.58166085 3.06890997 11 7 C11.72703125 7.83337891 11.72703125 7.83337891 12.46875 8.68359375 C20.62281925 18.68896954 23.45324088 29.2893533 22.30419922 41.97851562 C21.24594569 49.01089059 17.65913351 55.03378819 14 61 C13.34 60.67 12.68 60.34 12 60 C12 58.02 12 56.04 12 54 C13.32 54.33 14.64 54.66 16 55 C16.09087891 53.93458984 16.09087891 53.93458984 16.18359375 52.84765625 C16.26738281 51.92855469 16.35117187 51.00945312 16.4375 50.0625 C16.55931641 48.68771484 16.55931641 48.68771484 16.68359375 47.28515625 C17 45 17 45 18 44 C18.27917065 40.94646525 18.23185183 37.87727295 18.25 34.8125 C18.270625 33.96107422 18.29125 33.10964844 18.3125 32.23242188 C18.34495479 26.98691581 17.74296715 23.61348928 15 19 C14.5978125 17.453125 14.5978125 17.453125 14.1875 15.875 C12.63077439 12.10608536 10.34310949 11.20502966 7 9 C6.64386903 7.33805547 6.30791692 5.671549 6 4 C3.54295238 2.76709799 3.54295238 2.76709799 1 2 C0.67 1.34 0.34 0.68 0 0 Z " fill="#A6E3CB" transform="translate(448,189)"/>
<path d="M0 0 C4.94177101 4.78235904 4.94177101 4.78235904 5.12304783 8.57308388 C5.12212604 9.67001753 5.12120424 10.76695118 5.12025452 11.89712524 C5.12162918 13.15358353 5.12300385 14.41004181 5.12442017 15.70457458 C5.12088079 17.10464501 5.11724597 18.5047152 5.11352539 19.90478516 C5.11324344 21.37304177 5.1134014 22.84129852 5.1139679 24.30955505 C5.11425558 28.30312319 5.10836358 32.29666147 5.10139394 36.29022264 C5.09515553 40.46092612 5.09455621 44.63163023 5.09336853 48.80233765 C5.09025666 56.70357997 5.0820452 64.6048085 5.07201904 72.50604475 C5.06085345 81.49987216 5.05534633 90.49370023 5.05032361 99.48753285 C5.03986247 117.99169639 5.0222658 136.49584709 5 155 C4.67 155 4.34 155 4 155 C3.99761165 154.240013 3.99522329 153.480026 3.99276257 152.69700909 C3.93367105 134.21958867 3.85815871 115.74230251 3.76428509 97.26502514 C3.71928634 88.32960882 3.67988117 79.39423272 3.65356445 70.45874023 C3.63061731 62.67213197 3.59725631 54.88565057 3.55129844 47.09914285 C3.5273217 42.97480488 3.5086222 38.85059288 3.50238609 34.72618675 C3.49635523 30.84622283 3.47642855 26.96658141 3.44572449 23.08673668 C3.43691202 21.66090633 3.43322829 20.23503389 3.43499184 18.8091774 C3.43663685 16.86588666 3.41822772 14.92260948 3.39872742 12.97941589 C3.39411845 11.89077838 3.38950949 10.80214087 3.38476086 9.68051434 C2.94065203 6.58654036 2.20206182 6.05457936 0 4 C0 2.68 0 1.36 0 0 Z " fill="#4FC491" transform="translate(243,30)"/>
<path d="M0 0 C0.33 0 0.66 0 1 0 C1.66 33.33 2.32 66.66 3 101 C3.99 101.33 4.98 101.66 6 102 C6 103.32 6 104.64 6 106 C6.66 106 7.32 106 8 106 C8 106.66 8 107.32 8 108 C5 107 5 107 3.8671875 105.328125 C3.53976563 104.64234375 3.21234375 103.9565625 2.875 103.25 C2.54242188 102.57453125 2.20984375 101.8990625 1.8671875 101.203125 C-0.25480594 95.81211464 -0.13734652 90.50812731 -0.11352539 84.8034668 C-0.11367142 83.88590103 -0.11381744 82.96833527 -0.1139679 82.02296448 C-0.11327275 78.99835829 -0.10549897 75.97381414 -0.09765625 72.94921875 C-0.09579066 70.84886204 -0.09436742 68.74850489 -0.09336853 66.64814758 C-0.08955449 61.1260355 -0.07973368 55.60394981 -0.06866455 50.08184814 C-0.05842652 44.44454302 -0.05386578 38.80723362 -0.04882812 33.16992188 C-0.03811043 22.11326967 -0.02104735 11.05663703 0 0 Z " fill="#E6FAF3" transform="translate(250,362)"/>
<path d="M0 0 C36.3 0 72.6 0 110 0 C110 0.33 110 0.66 110 1 C108.69565506 1.00586624 107.39131012 1.01173248 106.04743958 1.01777649 C93.76089382 1.0749659 81.4745257 1.1477079 69.1881609 1.23571491 C62.87146592 1.2804604 56.55483606 1.31970749 50.23803711 1.34643555 C44.14305552 1.37242655 38.04832397 1.41279958 31.95349693 1.46318626 C29.62710363 1.47988336 27.30066705 1.49137988 24.97422218 1.49761391 C21.71798046 1.50722385 18.4623826 1.53524689 15.20629883 1.56762695 C14.24244766 1.56619186 13.2785965 1.56475677 12.28553772 1.5632782 C7.36330267 1.63259369 4.0218313 1.81862219 0 5 C0 3.35 0 1.7 0 0 Z " fill="#2A7E5A" transform="translate(250,186)"/>
<path d="M0 0 C2 2 2 2 2.16015625 4.5546875 C2.12792969 5.65039062 2.09570312 6.74609375 2.0625 7.875 C1.98389405 12.75839455 2.06758513 17.54102177 2.40429688 22.41162109 C3.47680575 38.26422915 2.60898941 54.14141871 2 70 C1.67 70 1.34 70 1 70 C-0.26160153 55.3443718 -0.11360228 40.69817289 -0.0625 26 C-0.05747384 23.47135506 -0.05291291 20.94270914 -0.04882812 18.4140625 C-0.03791356 12.27602018 -0.02126433 6.13801474 0 0 Z " fill="#4DA17D" transform="translate(251,366)"/>
<path d="M0 0 C0.66 0.99 1.32 1.98 2 3 C-0.97488007 8.57790013 -4.47342319 13.32547698 -8.5 18.1875 C-9.06847656 18.88552734 -9.63695312 19.58355469 -10.22265625 20.30273438 C-13.00825051 23.69909118 -15.8075129 26.97183209 -19 30 C-19.1875 27.1875 -19.1875 27.1875 -19 24 C-17.625 22.4375 -17.625 22.4375 -16 21 C-15.6596875 19.8553125 -15.6596875 19.8553125 -15.3125 18.6875 C-13.86099162 15.7153638 -12.79124525 14.97313673 -10.125 13.125 C-5.95841231 10.20385972 -4.228237 7.54217542 -2 3 C-1.34 2.01 -0.68 1.02 0 0 Z " fill="#62D2A2" transform="translate(397,324)"/>
<path d="M0 0 C0.33 0.66 0.66 1.32 1 2 C-4.33333333 8.66666667 -9.66666667 15.33333333 -15 22 C-16.33332095 19.3333581 -15.67102033 17.83319697 -15 15 C-14.01 14.67 -13.02 14.34 -12 14 C-11.34 10.7 -10.68 7.4 -10 4 C-8.906875 3.896875 -7.81375 3.79375 -6.6875 3.6875 C-3.14440371 3.02692273 -2.06756277 2.7972908 0 0 Z " fill="#43CB8E" transform="translate(459,250)"/>
<path d="M0 0 C0 3.52032428 -0.70351351 4.4385343 -3 7 C-3.66 7 -4.32 7 -5 7 C-5.05800781 7.53109375 -5.11601562 8.0621875 -5.17578125 8.609375 C-6.38207103 12.10818707 -8.76947782 14.52561848 -11.1875 17.25 C-12.18920784 18.40346699 -13.18921588 19.55841238 -14.1875 20.71484375 C-14.67089844 21.27413574 -15.15429688 21.83342773 -15.65234375 22.40966797 C-18.26306602 25.49050943 -20.62976271 28.73291617 -23 32 C-23.66 31.67 -24.32 31.34 -25 31 C-24.1875 28.5625 -24.1875 28.5625 -23 26 C-22.01 25.67 -21.02 25.34 -20 25 C-19.67 24.01 -19.34 23.02 -19 22 C-18.34 22 -17.68 22 -17 22 C-16.731875 21.0925 -16.46375 20.185 -16.1875 19.25 C-15.08072962 16.22094424 -14.17360606 14.34080653 -12 12 C-10.9790625 11.5978125 -10.9790625 11.5978125 -9.9375 11.1875 C-7.58311094 10.05027219 -7.58311094 10.05027219 -7.0625 6.5 C-6 3 -6 3 -3.4375 1.625 C-2.633125 1.41875 -1.82875 1.2125 -1 1 C-0.67 0.67 -0.34 0.34 0 0 Z " fill="#83D0B1" transform="translate(310,438)"/>
<path d="M0 0 C0.66 0 1.32 0 2 0 C2.33 1.32 2.66 2.64 3 4 C-3.14908299 8.28572451 -9.45017658 8.39521663 -16.6875 7.58984375 C-20.31333814 6.66501003 -21.75338563 4.92059868 -24 2 C-22.80375 2.33 -21.6075 2.66 -20.375 3 C-13.96624895 4.45606824 -7.53380544 4.16729516 -1 4 C-0.67 2.68 -0.34 1.36 0 0 Z " fill="#89CEB1" transform="translate(282,468)"/>
<path d="M0 0 C0.763125 -0.01160156 1.52625 -0.02320312 2.3125 -0.03515625 C7.86907188 -0.00591113 7.86907188 -0.00591113 10.3984375 1.8984375 C10.72070312 2.38570312 11.04296875 2.87296875 11.375 3.375 C10.20582031 3.35179687 9.03664062 3.32859375 7.83203125 3.3046875 C6.28386058 3.28592179 4.73568297 3.26772245 3.1875 3.25 C2.41857422 3.23324219 1.64964844 3.21648438 0.85742188 3.19921875 C-7.0472991 3.13136707 -12.66700184 5.54846842 -18.4375 11.0625 C-19.159375 11.825625 -19.88125 12.58875 -20.625 13.375 C-19.25555898 10.42543472 -17.74669591 7.85031189 -15.625 5.375 C-14.965 5.375 -14.305 5.375 -13.625 5.375 C-13.625 4.715 -13.625 4.055 -13.625 3.375 C-9.30809133 -0.15076206 -5.30808191 -0.08152344 0 0 Z " fill="#92DCBC" transform="translate(228.625,24.625)"/>
<path d="M0 0 C0.33 0 0.66 0 1 0 C1 1.98 1 3.96 1 6 C0.34 6 -0.32 6 -1 6 C-1.2475 6.61875 -1.495 7.2375 -1.75 7.875 C-3 10 -3 10 -5.0625 11 C-7.19508784 11.81800744 -7.19508784 11.81800744 -7.6875 14 C-7.790625 14.66 -7.89375 15.32 -8 16 C-8.33 16.66 -8.66 17.32 -9 18 C-9.99 18 -10.98 18 -12 18 C-12.33 18.99 -12.66 19.98 -13 21 C-13.33 20.34 -13.66 19.68 -14 19 C-13.22265625 17.2734375 -13.22265625 17.2734375 -12.0625 15.375 C-11.0415625 13.704375 -11.0415625 13.704375 -10 12 C-9.34 12 -8.68 12 -8 12 C-7.34 10.35 -6.68 8.7 -6 7 C-5.34 7 -4.68 7 -4 7 C-3.71125 6.21625 -3.4225 5.4325 -3.125 4.625 C-2 2 -2 2 0 0 Z " fill="#AAE6CE" transform="translate(48,238)"/>
<path d="M0 0 C4.9334445 4.77430112 4.9334445 4.77430112 5.12025452 8.21463013 C5.11803391 9.13396332 5.11581329 10.05329651 5.11352539 11.00048828 C5.11344986 12.04141632 5.11337433 13.08234436 5.11329651 14.15481567 C5.10813522 15.28192963 5.10297394 16.40904358 5.09765625 17.5703125 C5.0962413 18.72167694 5.09482635 19.87304138 5.09336853 21.05929565 C5.08775716 24.74788986 5.0752027 28.43642405 5.0625 32.125 C5.05748647 34.62109288 5.05292331 37.1171867 5.04882812 39.61328125 C5.03778403 45.74220809 5.0210348 51.87109976 5 58 C4.67 58 4.34 58 4 58 C3.99413376 57.36772995 3.98826752 56.7354599 3.98222351 56.08403015 C3.91838013 49.51413708 3.83398419 42.944738 3.73754883 36.37524414 C3.70425674 33.92218531 3.6762383 31.46904909 3.65356445 29.01586914 C3.62009771 25.49331622 3.56778485 21.97147535 3.51171875 18.44921875 C3.50532883 17.34913986 3.4989389 16.24906097 3.49235535 15.11564636 C3.47256119 14.09481461 3.45276703 13.07398285 3.43237305 12.0222168 C3.42126999 11.12286911 3.41016693 10.22352142 3.39872742 9.29692078 C2.91867258 6.53150292 1.95723233 5.90824728 0 4 C0 2.68 0 1.36 0 0 Z " fill="#57C395" transform="translate(243,30)"/>
<path d="M0 0 C0 2.96565273 -0.47379408 4.73338013 -1.4375 7.5 C-1.70433594 8.2734375 -1.97117188 9.046875 -2.24609375 9.84375 C-2.49488281 10.5553125 -2.74367187 11.266875 -3 12 C-3.33 12.99 -3.66 13.98 -4 15 C-5.32 15 -6.64 15 -8 15 C-8.33 15.66 -8.66 16.32 -9 17 C-10.64363134 17.72159424 -12.31050386 18.39351421 -14 19 C-12.59808647 16.00745382 -10.96632511 13.4045389 -9 10.75 C-8.484375 10.04359375 -7.96875 9.3371875 -7.4375 8.609375 C-6.963125 8.07828125 -6.48875 7.5471875 -6 7 C-5.34 7 -4.68 7 -4 7 C-3.896875 6.401875 -3.79375 5.80375 -3.6875 5.1875 C-2.91123545 2.71756736 -1.92911079 1.67748765 0 0 Z " fill="#79D9B0" transform="translate(199,48)"/>
<path d="M0 0 C8.21627661 2.1018382 12.40908039 8.2912063 17 15 C18.9375 18.3125 18.9375 18.3125 20 21 C19.67 21.99 19.34 22.98 19 24 C16.20950646 22.60475323 16.22347502 21.10365543 15.25 18.1875 C13.41882621 13.32279679 11.48491256 11.69094754 7 9 C6.64386903 7.33805547 6.30791692 5.671549 6 4 C3.54295238 2.76709799 3.54295238 2.76709799 1 2 C0.67 1.34 0.34 0.68 0 0 Z " fill="#A7E6CB" transform="translate(448,189)"/>
<path d="M0 0 C0 6.05569782 -3.84655763 10.26999904 -7.59765625 14.6796875 C-9 16 -9 16 -11 16 C-11.04125 16.5775 -11.0825 17.155 -11.125 17.75 C-12.44065958 21.13312465 -14.96552364 22.19222685 -18 24 C-16.31365285 20.14950734 -13.81978391 16.97733603 -11.25 13.6875 C-10.80479004 13.11298096 -10.35958008 12.53846191 -9.90087891 11.9465332 C-6.71597828 7.85883974 -3.43211197 3.88370565 0 0 Z " fill="#9DE3C5" transform="translate(123,144)"/>
<path d="M0 0 C0 3.44139049 -0.83696602 5.07560315 -2.375 8.125 C-2.81585938 9.01445313 -3.25671875 9.90390625 -3.7109375 10.8203125 C-5 13 -5 13 -7 14 C-7.33 14.99 -7.66 15.98 -8 17 C-9.95597184 18.39712274 -11.95436401 19.73779907 -14 21 C-14.66 20.67 -15.32 20.34 -16 20 C-15.21654285 18.82780457 -14.42297164 17.66236332 -13.625 16.5 C-13.18414062 15.8503125 -12.74328125 15.200625 -12.2890625 14.53125 C-11.65097656 13.77328125 -11.65097656 13.77328125 -11 13 C-10.34 13 -9.68 13 -9 13 C-8.34 11.35 -7.68 9.7 -7 8 C-6.34 8 -5.68 8 -5 8 C-4.731875 7.236875 -4.46375 6.47375 -4.1875 5.6875 C-3.05575888 3.12619116 -2.08776599 1.80307062 0 0 Z " fill="#A3E4C8" transform="translate(184,67)"/>
<path d="M0 0 C0.33 0 0.66 0 1 0 C1.33 14.19 1.66 28.38 2 43 C2.99 43.33 3.98 43.66 5 44 C5 45.32 5 46.64 5 48 C5.66 48 6.32 48 7 48 C7 48.66 7 49.32 7 50 C3.62451223 48.87483741 3.3896095 48.54536482 1.83691406 45.546875 C-0.40354567 40.74531824 -0.51675749 36.47693046 -0.390625 31.25 C-0.38496521 30.35128174 -0.37930542 29.45256348 -0.37347412 28.52661133 C-0.35125919 25.68384292 -0.30109249 22.84238105 -0.25 20 C-0.22991569 18.06121625 -0.21166832 16.12241254 -0.1953125 14.18359375 C-0.15144346 9.45523331 -0.08252133 4.7278374 0 0 Z " fill="#CDEFE1" transform="translate(251,420)"/>
<path d="M0 0 C0 2.83967231 -0.40267181 5.23735711 -1 8 C-1.66 8 -2.32 8 -3 8 C-3 8.99 -3 9.98 -3 11 C-3.94875 11.391875 -4.8975 11.78375 -5.875 12.1875 C-9.46372516 14.26896059 -9.62968914 15.28058481 -11 19 C-13.125 19.8125 -13.125 19.8125 -15 20 C-11.375 13.125 -11.375 13.125 -8 12 C-7.65578824 10.66943352 -7.32441119 9.3355322 -7 8 C-5.37109375 5.859375 -5.37109375 5.859375 -3.4375 3.75 C-2.47650391 2.69039062 -2.47650391 2.69039062 -1.49609375 1.609375 C-1.00238281 1.07828125 -0.50867188 0.5471875 0 0 Z " fill="#9CE3C6" transform="translate(68,213)"/>
<path d="M0 0 C0 0.99 0 1.98 0 3 C-0.66 3.66 -1.32 4.32 -2 5 C-2.268125 6.155 -2.53625 7.31 -2.8125 8.5 C-3.204375 9.655 -3.59625 10.81 -4 12 C-6.5 13.125 -6.5 13.125 -9 14 C-9.68753301 15.65816784 -10.35561283 17.32459336 -11 19 C-13.125 19.8125 -13.125 19.8125 -15 20 C-11.53029867 12.46530544 -5.41080416 6.20262915 0 0 Z " fill="#C3F1DE" transform="translate(104,168)"/>
<path d="M0 0 C0.33 0.66 0.66 1.32 1 2 C-0.28715972 3.64936048 -1.57987019 5.29439047 -2.875 6.9375 C-3.95394531 8.31228516 -3.95394531 8.31228516 -5.0546875 9.71484375 C-7 12 -7 12 -9 13 C-9.33 12.01 -9.66 11.02 -10 10 C-7.56600692 5.13201384 -4.95156848 2.21966863 0 0 Z " fill="#8BD9B8" transform="translate(324,420)"/>
<path d="M0 0 C0.33 0.66 0.66 1.32 1 2 C0.67 2.66 0.34 3.32 0 4 C-0.66 4 -1.32 4 -2 4 C-2.20625 4.680625 -2.4125 5.36125 -2.625 6.0625 C-4.45408866 9.97009851 -7.10279034 12.83857939 -10 16 C-11 13 -11 13 -11 9 C-9.35 8.34 -7.7 7.68 -6 7 C-6 6.01 -6 5.02 -6 4 C-5.34 4 -4.68 4 -4 4 C-4 3.34 -4 2.68 -4 2 C-2.68 1.34 -1.36 0.68 0 0 Z " fill="#ADE8CF" transform="translate(359,376)"/>
<path d="M0 0 C10.17099351 1.33275087 10.17099351 1.33275087 13.5625 4.0625 C14.036875 4.701875 14.51125 5.34125 15 6 C15.66 6.33 16.32 6.66 17 7 C16.67 8.65 16.34 10.3 16 12 C15.01 12 14.02 12 13 12 C13.33 11.34 13.66 10.68 14 10 C13.505 9.54625 13.01 9.0925 12.5 8.625 C11 7 11 7 11 5 C7.37 4.01 3.74 3.02 0 2 C0 1.34 0 0.68 0 0 Z " fill="#5ECA9A" transform="translate(437,186)"/>
<path d="M0 0 C1.65 0 3.3 0 5 0 C3.51222697 3.25964342 1.64333184 5.93169293 -0.5625 8.75 C-1.49255859 9.94882812 -1.49255859 9.94882812 -2.44140625 11.171875 C-2.95574219 11.77515625 -3.47007812 12.3784375 -4 13 C-4.33 13 -4.66 13 -5 13 C-5 11.02 -5 9.04 -5 7 C-3.68 7 -2.36 7 -1 7 C-0.67 4.69 -0.34 2.38 0 0 Z " fill="#8FDEBC" transform="translate(368,360)"/>
<path d="M0 0 C0.99 0.33 1.98 0.66 3 1 C2.67 1.99 2.34 2.98 2 4 C1.34 4 0.68 4 0 4 C-0.10183594 4.58265625 -0.20367187 5.1653125 -0.30859375 5.765625 C-1.11517153 8.37219275 -2.24157009 9.73535414 -4.0625 11.75 C-4.61035156 12.36359375 -5.15820312 12.9771875 -5.72265625 13.609375 C-6.14417969 14.06828125 -6.56570313 14.5271875 -7 15 C-8.33332095 12.3333581 -7.67102033 10.83319697 -7 8 C-5.35 7.67 -3.7 7.34 -2 7 C-1.34 4.69 -0.68 2.38 0 0 Z " fill="#A4E5C9" transform="translate(440,271)"/>
<path d="M0 0 C0.33 0.66 0.66 1.32 1 2 C-0.28715972 3.64936048 -1.57987019 5.29439047 -2.875 6.9375 C-3.95394531 8.31228516 -3.95394531 8.31228516 -5.0546875 9.71484375 C-7 12 -7 12 -9 13 C-8.43768609 9.06380262 -7.38314183 6.20807554 -5 3 C-4.01 3 -3.02 3 -2 3 C-1.34 2.01 -0.68 1.02 0 0 Z " fill="#A0E4C8" transform="translate(459,250)"/>
<path d="M0 0 C0.33 0.99 0.66 1.98 1 3 C-1.64 5.97 -4.28 8.94 -7 12 C-7.66 10.68 -8.32 9.36 -9 8 C-8.34 7.67 -7.68 7.34 -7 7 C-7 6.34 -7 5.68 -7 5 C-5.68 5 -4.36 5 -3 5 C-3 4.01 -3 3.02 -3 2 C-2.01 1.34 -1.02 0.68 0 0 Z " fill="#9EDFC3" transform="translate(339,401)"/>
<path d="M0 0 C1.32 0 2.64 0 4 0 C4.33 2.64 4.66 5.28 5 8 C5.99 8 6.98 8 8 8 C7.34 9.32 6.68 10.64 6 12 C5.18071114 10.75443908 4.36984814 9.50333365 3.5625 8.25 C2.88380859 7.20585937 2.88380859 7.20585937 2.19140625 6.140625 C1.0391991 4.07042986 0.45323018 2.31303676 0 0 Z " fill="#7BD7B0" transform="translate(32,288)"/>
<path d="M0 0 C0 3 0 3 -1.875 5.125 C-4.65308918 8.88359125 -5.24757942 12.45577573 -6 17 C-6.33 16.01 -6.66 15.02 -7 14 C-7.99 13.67 -8.98 13.34 -10 13 C-8.5217985 11.02010587 -7.0424882 9.04105782 -5.5625 7.0625 C-5.14162109 6.49853516 -4.72074219 5.93457031 -4.28710938 5.35351562 C-1.11328125 1.11328125 -1.11328125 1.11328125 0 0 Z " fill="#ABEAD0" transform="translate(79,199)"/>
<path d="M0 0 C0.33 0 0.66 0 1 0 C1 1.98 1 3.96 1 6 C0.34 6 -0.32 6 -1 6 C-1.268125 6.61875 -1.53625 7.2375 -1.8125 7.875 C-3 10 -3 10 -6 12 C-5.12144594 7.43151889 -3.30045979 3.30045979 0 0 Z " fill="#81D8B3" transform="translate(48,238)"/>
<path d="M0 0 C1 2 1 2 -0.125 5.4375 C-1.68880731 8.92879075 -3.479691 10.38256073 -7 12 C-7.33 11.34 -7.66 10.68 -8 10 C-7.67 9.34 -7.34 8.68 -7 8 C-6.34 8 -5.68 8 -5 8 C-4.34 6.35 -3.68 4.7 -3 3 C-2.34 3 -1.68 3 -1 3 C-0.67 2.01 -0.34 1.02 0 0 Z " fill="#A2E5CA" transform="translate(148,112)"/>
<path d="M0 0 C0 3.52032428 -0.70351351 4.4385343 -3 7 C-3.66 7 -4.32 7 -5 7 C-5.103125 7.61875 -5.20625 8.2375 -5.3125 8.875 C-6 11 -6 11 -9 13 C-8.22095813 9.56714882 -7.37303608 6.24682649 -6 3 C-3.375 1.4375 -3.375 1.4375 -1 1 C-0.67 0.67 -0.34 0.34 0 0 Z " fill="#A6E3C9" transform="translate(310,438)"/>
<path d="M0 0 C-0.61875 0.0825 -1.2375 0.165 -1.875 0.25 C-4.67505419 1.23825442 -4.74113932 2.40359985 -6 5 C-7.32407669 5.68486725 -8.65909241 6.34870203 -10 7 C-11.70496537 8.62746694 -13.37897032 10.28891311 -15 12 C-13.63055898 9.05043472 -12.12169591 6.47531189 -10 4 C-9.34 4 -8.68 4 -8 4 C-8 3.34 -8 2.68 -8 2 C-3.61016949 -1.20338983 -3.61016949 -1.20338983 0 0 Z " fill="#CEF4E5" transform="translate(223,26)"/>
<path d="M0 0 C-2.64 3.63 -5.28 7.26 -8 11 C-8.33 10.01 -8.66 9.02 -9 8 C-8.34 7.34 -7.68 6.68 -7 6 C-6.835 4.989375 -6.67 3.97875 -6.5 2.9375 C-6.335 1.968125 -6.17 0.99875 -6 0 C-4 -1 -4 -1 0 0 Z " fill="#9EE3C4" transform="translate(432,287)"/>
<path d="M0 0 C1.24546405 2.49092811 0.7767578 3.41080733 0 6 C-0.66 6 -1.32 6 -2 6 C-2.2475 6.639375 -2.495 7.27875 -2.75 7.9375 C-4 10 -4 10 -6.125 10.75 C-7.053125 10.87375 -7.053125 10.87375 -8 11 C-6.63629701 8.00779732 -5.05091917 5.70973471 -2.875 3.25 C-2.33617188 2.63640625 -1.79734375 2.0228125 -1.2421875 1.390625 C-0.62730469 0.70226562 -0.62730469 0.70226562 0 0 Z " fill="#A2E2C7" transform="translate(88,188)"/>
<path d="M0 0 C0 3.99282941 -1.47808076 5.15331592 -4 8.1875 C-4.7425 9.08855469 -5.485 9.98960937 -6.25 10.91796875 C-6.8275 11.60503906 -7.405 12.29210937 -8 13 C-8.33 12.34 -8.66 11.68 -9 11 C-6.79710145 4.50724638 -6.79710145 4.50724638 -3.9375 2.6875 C-3.298125 2.460625 -2.65875 2.23375 -2 2 C-1.34 1.34 -0.68 0.68 0 0 Z " fill="#B3E9D2" transform="translate(407,316)"/>
<path d="M0 0 C4.95 0 9.9 0 15 0 C15 0.66 15 1.32 15 2 C15.99 2 16.98 2 18 2 C17.67 2.99 17.34 3.98 17 5 C15.0625 4.6875 15.0625 4.6875 13 4 C12.67 3.01 12.34 2.02 12 1 C8.04 1 4.08 1 0 1 C0 0.67 0 0.34 0 0 Z " fill="#43BF88" transform="translate(422,186)"/>
<path d="M0 0 C0.66 0.33 1.32 0.66 2 1 C-2.11378556 9.50765864 -2.11378556 9.50765864 -5.8125 11.5625 C-6.534375 11.706875 -7.25625 11.85125 -8 12 C-6.59023295 8.96147295 -4.91129772 6.4060405 -2.875 3.75 C-2.06675781 2.69039062 -2.06675781 2.69039062 -1.2421875 1.609375 C-0.83226562 1.07828125 -0.42234375 0.5471875 0 0 Z " fill="#B8ECD6" transform="translate(193,55)"/>
<path d="M0 0 C0.66 0 1.32 0 2 0 C0.59023295 3.03852705 -1.08870228 5.5939595 -3.125 8.25 C-3.66382813 8.95640625 -4.20265625 9.6628125 -4.7578125 10.390625 C-5.16773438 10.92171875 -5.57765625 11.4528125 -6 12 C-6.66 11.67 -7.32 11.34 -8 11 C-7.1875 8.5625 -7.1875 8.5625 -6 6 C-5.01 5.67 -4.02 5.34 -3 5 C-2.67 4.01 -2.34 3.02 -2 2 C-1.34 2 -0.68 2 0 2 C0 1.34 0 0.68 0 0 Z " fill="#B8E6D2" transform="translate(293,458)"/>
<path d="M0 0 C1.32 0 2.64 0 4 0 C4 0.66 4 1.32 4 2 C3.34 2 2.68 2 2 2 C1.5978125 3.2065625 1.5978125 3.2065625 1.1875 4.4375 C0.5996875 5.7059375 0.5996875 5.7059375 0 7 C-0.99 7.33 -1.98 7.66 -3 8 C-3 6.35 -3 4.7 -3 3 C-2.01 3 -1.02 3 0 3 C0 2.01 0 1.02 0 0 Z " fill="#94DFBF" transform="translate(343,393)"/>
<path d="M0 0 C0.598125 0.20625 1.19625 0.4125 1.8125 0.625 C1.5 2.5 1.5 2.5 0.8125 4.625 C-0.1775 5.285 -1.1675 5.945 -2.1875 6.625 C-3.6875 5.25 -3.6875 5.25 -5.1875 3.625 C-5.1875 2.965 -5.1875 2.305 -5.1875 1.625 C-2.1875 -0.375 -2.1875 -0.375 0 0 Z " fill="#40CC8C" transform="translate(398.1875,321.375)"/>
<path d="M0 0 C0 0.99 0 1.98 0 3 C-0.66 3.66 -1.32 4.32 -2 5 C-2.71927295 7.31765729 -3.3909893 9.65095874 -4 12 C-5.32 12.33 -6.64 12.66 -8 13 C-7.33333333 11.66666667 -6.66666667 10.33333333 -6 9 C-5.525625 7.989375 -5.05125 6.97875 -4.5625 5.9375 C-3.2182755 3.41035794 -2.14224039 1.83620604 0 0 Z " fill="#89DAB7" transform="translate(104,168)"/>
<path d="M0 0 C0.66 0 1.32 0 2 0 C2 0.66 2 1.32 2 2 C1.34 2 0.68 2 0 2 C0 2.66 0 3.32 0 4 C0.66 4.33 1.32 4.66 2 5 C-0.64 6.65 -3.28 8.3 -6 10 C-4.25 5.125 -4.25 5.125 -2 4 C-0.86649466 1.98330173 -0.86649466 1.98330173 0 0 Z " fill="#A9E8CE" transform="translate(161,95)"/>
<path d="M0 0 C0.99 0 1.98 0 3 0 C2.67 1.98 2.34 3.96 2 6 C0.68 6.33 -0.64 6.66 -2 7 C-2.33 5.68 -2.66 4.36 -3 3 C-2.01 2.67 -1.02 2.34 0 2 C0 1.34 0 0.68 0 0 Z " fill="#43CA8F" transform="translate(436,272)"/>
<path d="M0 0 C-1.55500981 3.81684226 -4.03595495 6.19195732 -7 9 C-7.3125 6.1875 -7.3125 6.1875 -7 3 C-4.61107499 1.11400657 -3.08148442 0 0 0 Z " fill="#9CE6C8" transform="translate(450,263)"/>
<path d="M0 0 C1.125 3.75 1.125 3.75 0 6 C-0.99 6.33 -1.98 6.66 -3 7 C-4.66710346 8.49985609 -4.66710346 8.49985609 -6 10 C-6 6.41087588 -5.33563446 5.89142971 -3 3.3125 C-2.443125 2.68988281 -1.88625 2.06726562 -1.3125 1.42578125 C-0.879375 0.95527344 -0.44625 0.48476563 0 0 Z " fill="#B3EBD5" transform="translate(207,38)"/>
<path d="M0 0 C0.33 0 0.66 0 1 0 C1 1.65 1 3.3 1 5 C-1.31 6.32 -3.62 7.64 -6 9 C-4.47300326 5.56425733 -2.44973747 2.84485642 0 0 Z " fill="#59C898" transform="translate(214,31)"/>
<path d="M0 0 C0.66 0.33 1.32 0.66 2 1 C-0.31 3.97 -2.62 6.94 -5 10 C-6 7 -6 7 -4.75 4.4375 C-3 2 -3 2 0 0 Z " fill="#BCEDDB" transform="translate(389,338)"/>
<path d="M0 0 C0.33 0 0.66 0 1 0 C1.4375 2.1875 1.4375 2.1875 1 5 C-1.13995327 6.98441782 -3.50175965 8.5023304 -6 10 C-4.34784004 6.42032008 -2.26875648 3.22017048 0 0 Z " fill="#B5EAD5" transform="translate(111,158)"/>
<path d="M0 0 C6.15234375 0.5859375 6.15234375 0.5859375 8 1 C8.33 1.66 8.66 2.32 9 3 C6.36 3.33 3.72 3.66 1 4 C0.67 2.68 0.34 1.36 0 0 Z " fill="#59D09D" transform="translate(233,27)"/>
<path d="M0 0 C0.99 0.33 1.98 0.66 3 1 C2.67 2.32 2.34 3.64 2 5 C0.35 5 -1.3 5 -3 5 C-3.33 5.66 -3.66 6.32 -4 7 C-4 4 -4 4 -2 1.8125 C-1.34 1.214375 -0.68 0.61625 0 0 Z " fill="#4DC892" transform="translate(346,388)"/>
<path d="M0 0 C0.66 0 1.32 0 2 0 C1.75 3.375 1.75 3.375 1 7 C-1.0625 8.4375 -1.0625 8.4375 -3 9 C-1.125 2.25 -1.125 2.25 0 0 Z " fill="#57CC99" transform="translate(412,304)"/>
<path d="M0 0 C0.66 0 1.32 0 2 0 C1.67 1.65 1.34 3.3 1 5 C-0.65 5.33 -2.3 5.66 -4 6 C-3.67 4.35 -3.34 2.7 -3 1 C-2.01 1.33 -1.02 1.66 0 2 C0 1.34 0 0.68 0 0 Z " fill="#4CCA91" transform="translate(431,281)"/>
<path d="M0 0 C0.66 0.33 1.32 0.66 2 1 C0.7260411 3.03833424 -0.61061923 5.03852126 -2 7 C-2.66 7 -3.32 7 -4 7 C-3.6875 4.625 -3.6875 4.625 -3 2 C-2.01 1.34 -1.02 0.68 0 0 Z " fill="#A2E1C7" transform="translate(329,413)"/>
<path d="M0 0 C2.475 0.495 2.475 0.495 5 1 C4.67 2.32 4.34 3.64 4 5 C2.68 4.67 1.36 4.34 0 4 C0 2.68 0 1.36 0 0 Z " fill="#3FC285" transform="translate(320,416)"/>
<path d="M0 0 C0.66 0.33 1.32 0.66 2 1 C0.68 3.31 -0.64 5.62 -2 8 C-3 5 -3 5 -3 1 C-2.01 0.67 -1.02 0.34 0 0 Z " fill="#89DAB8" transform="translate(351,384)"/>
<path d="M0 0 C0.66 0.66 1.32 1.32 2 2 C1.9375 4 1.9375 4 1 6 C-1.5625 7.25 -1.5625 7.25 -4 8 C-4 7.01 -4 6.02 -4 5 C-3.01 4.67 -2.02 4.34 -1 4 C-0.26676204 1.98491642 -0.26676204 1.98491642 0 0 Z " fill="#45CD92" transform="translate(424,288)"/>
<path d="M0 0 C1.485 0.99 1.485 0.99 3 2 C2.625 4.9375 2.625 4.9375 2 8 C1.01 8.495 1.01 8.495 0 9 C0 6.03 0 3.06 0 0 Z " fill="#4AC991" transform="translate(441,264)"/>
<path d="M0 0 C0.33 0.99 0.66 1.98 1 3 C2.65 2.67 4.3 2.34 6 2 C6 3.65 6 5.3 6 7 C4.68 6.67 3.36 6.34 2 6 C2 5.34 2 4.68 2 4 C1.34 4 0.68 4 0 4 C0 2.68 0 1.36 0 0 Z " fill="#3DA97A" transform="translate(256,464)"/>
<path d="M0 0 C0.66 0.33 1.32 0.66 2 1 C0.75 3.9375 0.75 3.9375 -1 7 C-3.1875 7.875 -3.1875 7.875 -5 8 C-1.125 1.125 -1.125 1.125 0 0 Z " fill="#B6EFD8" transform="translate(58,225)"/>
<path d="M0 0 C0.33 0 0.66 0 1 0 C1.08131463 1.43655854 1.13933559 2.8744483 1.1875 4.3125 C1.23970703 5.51326172 1.23970703 5.51326172 1.29296875 6.73828125 C0.93801608 9.47851584 0.10633718 10.29171079 -2 12 C-2.26252625 7.66831683 -1.29243536 4.1196377 0 0 Z " fill="#4FC693" transform="translate(467,227)"/>
<path d="M0 0 C1.32 0.33 2.64 0.66 4 1 C1.36 2.98 -1.28 4.96 -4 7 C-2 3 -2 3 0 0 Z " fill="#59CB98" transform="translate(81,198)"/>
<path d="M0 0 C2.0625 0.4375 2.0625 0.4375 4 1 C2.625 3.5 2.625 3.5 1 6 C0.34 6 -0.32 6 -1 6 C-1.042721 4.33388095 -1.04063832 2.66617115 -1 1 C-0.67 0.67 -0.34 0.34 0 0 Z " fill="#96E2C1" transform="translate(374,354)"/>
<path d="M0 0 C1.24546405 2.49092811 0.7767578 3.41080733 0 6 C-1.65 6.33 -3.3 6.66 -5 7 C-1.125 1.125 -1.125 1.125 0 0 Z " fill="#51C994" transform="translate(108,165)"/>
<path d="M0 0 C1.24546405 2.49092811 0.7767578 3.41080733 0 6 C-1.65 6.33 -3.3 6.66 -5 7 C-3.47793991 4.37098712 -2.15634036 2.15634036 0 0 Z " fill="#ADEAD1" transform="translate(154,105)"/>
<path d="M0 0 C1.65 0 3.3 0 5 0 C3.69593116 2.01920337 2.36176581 4.01924973 1 6 C0.67 6 0.34 6 0 6 C0 4.02 0 2.04 0 0 Z " fill="#99E4C6" transform="translate(363,367)"/>
<path d="M0 0 C1.65 0 3.3 0 5 0 C3.69593116 2.01920337 2.36176581 4.01924973 1 6 C0.67 6 0.34 6 0 6 C0 4.02 0 2.04 0 0 Z " fill="#98E1C3" transform="translate(378,348)"/>
<path d="M0 0 C3 0 3 0 4.6875 1.375 C6 3 6 3 6 5 C4.02 4.34 2.04 3.68 0 3 C0 2.01 0 1.02 0 0 Z " fill="#A2E5C8" transform="translate(48,307)"/>
<path d="M0 0 C0.433125 0.474375 0.86625 0.94875 1.3125 1.4375 C3.02309613 3.23686957 3.02309613 3.23686957 6 4 C5.34 5.32 4.68 6.64 4 8 C0 2.25 0 2.25 0 0 Z " fill="#ADE9D0" transform="translate(34,292)"/>
<path d="M0 0 C0.66 0 1.32 0 2 0 C0.70700306 2.88437779 -0.65941363 4.87219421 -3 7 C-3.66 6.34 -4.32 5.68 -5 5 C-4.34 5 -3.68 5 -3 5 C-2.67 4.01 -2.34 3.02 -2 2 C-1.34 2 -0.68 2 0 2 C0 1.34 0 0.68 0 0 Z " fill="#54CB99" transform="translate(459,247)"/>
<path d="M0 0 C0.99 0 1.98 0 3 0 C2.67 1.32 2.34 2.64 2 4 C1.01 4 0.02 4 -1 4 C-1.33 4.66 -1.66 5.32 -2 6 C-1.125 1.125 -1.125 1.125 0 0 Z " fill="#49CD93" transform="translate(90,187)"/>
<path d="M0 0 C2.79872437 2.52788007 4.45773019 4.20411134 5 8 C3.0625 7.375 3.0625 7.375 1 6 C0.25 2.875 0.25 2.875 0 0 Z " fill="#B3EAD2" transform="translate(243,30)"/>
</svg>
