<svg xmlns="http://www.w3.org/2000/svg" viewBox="0 0 500 500"><path fill="#42cf90" d="M237 25c5.752 2.23 8.768 6.407 11.309 11.875 1.51 4.643 1.816 9.27 1.811 14.124l.004 3.569-.01 3.873v4.11q-.001 5.564-.013 11.126-.007 5.82-.008 11.639-.004 11.012-.021 22.024-.015 12.54-.022 25.081-.016 25.79-.05 51.579l2.827-.006q34.092-.066 68.184-.098 16.486-.014 32.973-.047 14.374-.03 28.748-.037a6436 6436 0 0 0 15.214-.023q7.17-.02 14.338-.015 2.623 0 5.245-.012c14.322-.06 28.336-.104 39.541 10.129 9.465 10.407 13.816 20.75 13.356 34.828-.42 5.988-2.549 11.062-5.426 16.281l-1.543 2.828L462 250h-2l-.668 2.102c-1.66 3.613-4.032 6.328-6.644 9.273-3.088 3.547-6.105 7.04-8.75 10.938L442 275h-2l-.191 1.629c-1.154 3.383-3.408 5.683-5.747 8.308a296 296 0 0 0-12.218 15.04c-6.628 8.703-13.513 17.207-20.469 25.648-3.586 4.367-7.056 8.814-10.485 13.304-3.745 4.903-7.56 9.75-11.4 14.578-2.475 3.095-2.475 3.095-4.49 6.493h-2l-.723 1.66c-1.59 2.912-3.574 5.244-5.714 7.777-2.316 2.744-4.414 5.307-6.223 8.41L359 380h-2l-.562 2c-1.76 3.672-4.138 6.25-6.88 9.23-1.629 1.698-1.629 1.698-2.558 3.77h-2l-.875 2.438C343 400 343 400 341 401a737 737 0 0 0-3 5 238 238 0 0 1-4.562 5.625c-2.291 2.746-4.453 5.398-6.438 8.375h-2l-.668 2.102c-1.66 3.613-4.032 6.328-6.644 9.273-3.088 3.547-6.105 7.04-8.75 10.938L307 445h-2l-.176 1.61c-1.206 3.498-3.593 5.916-6.012 8.64-3.788 4.35-7.395 8.714-10.69 13.457L287 470h-2v2c-5.8 4.394-12.527 4.475-19.504 3.625-5.138-1.287-8.902-4.259-11.844-8.625-3.601-6.816-3.81-13.296-3.857-20.866l-.03-3.004a4643 4643 0 0 1-.081-9.864l-.063-6.939q-.066-7.303-.124-14.607-.073-9.207-.158-18.416-.08-8.925-.155-17.85l-.03-3.302c-.16-18.717-.175-37.434-.154-56.152l-2.812.006q-33.903.066-67.808.098-16.395.014-32.791.047-14.295.03-28.59.037-7.565.003-15.13.023-7.13.02-14.26.015-2.607 0-5.215.012c-14.298.06-28.28.084-39.464-10.129-9.558-10.51-13.736-20.782-13.285-34.968.329-5.251 1.819-9.549 4.355-14.141l1.156-2.156A142 142 0 0 1 38 250h2l2-5h2l.688-2.117c1.589-3.49 3.814-6.146 6.312-9.008 2.48-2.884 4.885-5.702 7-8.875h2l.191-1.629c1.154-3.383 3.408-5.683 5.746-8.309a296 296 0 0 0 12.219-15.04c6.628-8.702 13.513-17.206 20.469-25.647 3.586-4.367 7.056-8.814 10.485-13.304 3.745-4.903 7.56-9.75 11.4-14.578 2.475-3.095 2.475-3.095 4.49-6.493h2l.723-1.66c1.59-2.912 3.574-5.244 5.715-7.778 2.315-2.743 4.413-5.306 6.222-8.41L141 120h2l2-5h2l.75-1.645c1.524-2.872 3.34-5.412 5.25-8.043l2.125-2.949C157 100 157 100 159 99c1.134-2.017 1.134-2.017 2-4h2l.625-2.062c1.55-3.313 3.5-5.596 5.938-8.29 1.63-1.798 1.63-1.798 3.437-4.648h2l2-5h2l.688-2.117c1.589-3.49 3.814-6.146 6.312-9.008 2.48-2.884 4.885-5.702 7-8.875h2l.176-1.61c1.206-3.498 3.593-5.916 6.012-8.64 3.788-4.35 7.395-8.714 10.69-13.457L213 30h2v-2c5.934-4.763 14.775-4.102 22-3"/><path fill="#2fad75" d="M249 186h188v2l1.898.402 2.477.536 2.46.527C446 190 446 190 448 191v2l3 1 1 3h3c4.939 2.539 8.204 5.413 9.938 10.75q.546 2.12 1.062 4.25l1 2c.238 3.078.185 6.164.188 9.25l.037 2.566c.01 4.825-.41 8.643-2.225 13.184-.361 1.66-.705 3.326-1 5l-3 1v2.875c-.7 4.79-3.532 7.689-6.598 11.281a140 140 0 0 0-5.086 6.375l-1.355 1.806q-1.323 1.77-2.635 3.548c-1.062 1.408-2.189 2.767-3.326 4.115h-2l-.191 1.629c-1.154 3.383-3.408 5.683-5.747 8.308a296 296 0 0 0-12.218 15.04c-6.628 8.703-13.513 17.207-20.469 25.648-3.586 4.367-7.056 8.814-10.485 13.304-3.745 4.903-7.56 9.75-11.4 14.578-2.475 3.095-2.475 3.095-4.49 6.493h-2l-.723 1.66c-1.59 2.912-3.574 5.244-5.714 7.777-2.316 2.744-4.414 5.307-6.223 8.41L359 380h-2l-.562 2c-1.76 3.672-4.138 6.25-6.88 9.23-1.629 1.698-1.629 1.698-2.558 3.77h-2l-.875 2.438C343 400 343 400 341 401a737 737 0 0 0-3 5 238 238 0 0 1-4.562 5.625c-2.291 2.746-4.453 5.398-6.438 8.375h-2l-.668 2.102c-1.66 3.613-4.032 6.328-6.644 9.273-3.088 3.547-6.105 7.04-8.75 10.938L307 445h-2l-.176 1.61c-1.206 3.498-3.593 5.916-6.012 8.64-3.788 4.35-7.395 8.714-10.69 13.457L287 470h-2v2c-5.8 4.394-12.527 4.475-19.504 3.625-5.138-1.287-8.902-4.259-11.844-8.625-2.768-5.24-3.767-10.211-3.81-16.13l-.03-3.08-.017-3.362-.03-3.583q-.04-4.911-.068-9.822l-.06-8.402q-.085-11.383-.155-22.767-.05-8.346-.109-16.692c-.241-35.69-.41-71.38-.435-107.072l-.002-2.11c-.022-29.326.03-58.653.064-87.98"/><path fill="#81b79f" d="M249 185q37.187-.248 74.376-.363c11.512-.036 23.024-.085 34.537-.165q15.057-.106 30.115-.13c5.312-.01 10.623-.031 15.934-.082 5.009-.048 10.017-.062 15.025-.052q2.745-.002 5.488-.042c12.594-.177 23.043 1.127 32.838 9.907 1.766 1.882 3.234 3.795 4.687 5.927l1.418 2.004c6.501 9.742 8.087 19.455 6.582 30.996-1.763 6.213-4.64 11.521-8 17l-2-1v-6l4 1 .184-2.152.253-2.786.247-2.777C465 234 465 234 466 233c.28-3.054.232-6.123.25-9.187l.063-2.58c.032-5.246-.57-8.62-3.313-13.233l-.812-3.125c-1.572-3.805-3.626-4.946-7.188-6.875h-5l1-2-1.5-1.375C448 193 448 193 448 191l-11-3v-2H249z"/><path fill="#8addb9" d="M432 287a828 828 0 0 1-18.39 23.334 555 555 0 0 0-9.743 12.268c-3.592 4.614-7.266 9.165-10.926 13.726a1254 1254 0 0 0-5.351 6.719l-2.09 2.64-1.781 2.262c-1.798 2.145-3.713 4.102-5.719 6.051-.187-2.812-.187-2.812 0-6 1.375-1.562 1.375-1.562 3-3l.688-2.312c1.451-2.973 2.52-3.715 5.187-5.563 4.173-2.92 5.83-5.621 8.125-10.125 1.75-1.937 1.75-1.937 3-3l1 1 .75-2.187c1.389-3.125 2.904-5.329 5.25-7.813 2.25-.812 2.25-.812 4-1l.375-3.312C410 307 410 307 412 304l3-1 1.25-2.812c1.807-3.291 2.228-3.666 5.375-5.188l3.375-2c.892-3.096.892-3.096 1-6 2.49-1.245 3.41-.777 6 0"/><path fill="#1d8f5c" d="M249 186h111v1l-3.96.011q-18.45.056-36.904.173c-6.324.04-12.649.072-18.973.087q-9.153.025-18.304.097-3.495.023-6.99.024c-3.26.002-6.517.03-9.776.062l-2.932-.015c-5.234.035-5.234.035-9.762 2.43-1.802 2.745-1.874 4.466-1.825 7.736l.026 3.229.088 3.353.029 3.39c-.4 5.068-.4 5.068 1.283 9.423-.097 2.78-.252 5.538-.437 8.313-.79 13.222-.656 26.446-.563 39.687l-2-1z"/><path fill="#55c695" d="m324 420 1 2-1.398 1.73c-3.144 3.909-6.276 7.819-9.29 11.829l-1.354 1.794a484 484 0 0 0-2.631 3.53c-1.063 1.409-2.19 2.768-3.327 4.117h-2l-.176 1.61c-1.206 3.498-3.593 5.916-6.012 8.64a1546 1546 0 0 0-3 3.465l-1.464 1.695c-2.611 3.08-4.978 6.323-7.348 9.59l-2-1c.813-2.437.813-2.437 2-5l3-1 1-3h2l.813-2.75c1.106-3.03 2.013-4.91 4.187-7.25l1.988-.844c3.206-1.842 3.53-4.425 4.551-7.824.593-2.998.286-5.406-.539-8.332l3.688-.062c2.663-.316 3.923-.554 5.851-2.458a64 64 0 0 0 2.356-3.69c2.1-3.401 4.487-5.168 8.105-6.79"/><path fill="#3ec68a" d="m359 376 1 2-1 2h-2l-.562 2c-1.76 3.672-4.138 6.25-6.88 9.23-1.629 1.698-1.629 1.698-2.558 3.77h-2l-.875 2.438C343 400 343 400 341 401l-1.25 2.125c-2.216 3.641-4.922 6.7-7.75 9.875l-2-4 2-1v-2h2l-.187-2.312C334 401 334 401 335.563 399.5L337 398c-.23-2.655-.23-2.655-1-5l1.75-.375c3.948-1.097 7.14-2.959 10.25-5.625v-2l5-2v-3h2v-2z"/><path fill="#a6e3cb" d="M448 189c5.065 1.296 7.582 3.069 11 7l1.469 1.684c8.154 10.005 10.984 20.605 9.835 33.295-1.058 7.032-4.645 13.055-8.304 19.021l-2-1v-6l4 1c.09-1.065.09-1.065.184-2.152l.253-2.786.247-2.777C465 234 465 234 466 233c.28-3.054.232-6.123.25-9.187l.063-2.58c.032-5.246-.57-8.62-3.313-13.233l-.812-3.125c-1.557-3.769-3.845-4.67-7.188-6.875a176 176 0 0 1-1-5c-2.457-1.233-2.457-1.233-5-2z"/><path fill="#4fc491" d="M243 30c4.942 4.782 4.942 4.782 5.123 8.573l-.003 3.324.004 3.808-.01 4.2v4.405q-.001 5.99-.013 11.98-.007 6.256-.008 12.512-.005 11.853-.021 23.704-.015 13.491-.022 26.982-.016 27.756-.05 55.512h-1l-.007-2.303q-.089-27.716-.229-55.432-.07-13.402-.11-26.806-.034-11.68-.103-23.36-.037-6.186-.049-12.373-.01-5.82-.056-11.64a577 577 0 0 1-.011-4.277c.002-1.943-.017-3.886-.036-5.83l-.014-3.298c-.444-3.094-1.183-3.626-3.385-5.681z"/><path fill="#e6faf3" d="M250 362h1l2 101 3 1v4h2v2c-3-1-3-1-4.133-2.672l-.992-2.078-1.008-2.047c-2.122-5.39-2.004-10.695-1.98-16.4l-.001-2.78c0-3.025.009-6.05.016-9.074l.005-6.3q.006-8.284.024-16.567.014-8.456.02-16.912.016-16.585.049-33.17"/><path fill="#2a7e5a" d="M250 186h110v1l-3.953.018q-18.429.086-36.859.218c-6.317.044-12.633.084-18.95.11q-9.143.04-18.285.117-3.489.025-6.979.035c-3.256.01-6.512.037-9.768.07l-2.92-.005c-4.923.07-8.264.256-12.286 3.437z"/><path fill="#4da17d" d="M251 366c2 2 2 2 2.16 4.555l-.097 3.32c-.08 4.883.005 9.666.341 14.537 1.073 15.852.205 31.73-.404 47.588h-1c-1.262-14.656-1.114-29.302-1.062-44q.008-3.793.013-7.586.017-9.207.049-18.414"/><path fill="#62d2a2" d="m397 324 2 3c-2.975 5.578-6.473 10.325-10.5 15.188l-1.723 2.115c-2.785 3.396-5.585 6.669-8.777 9.697-.187-2.812-.187-2.812 0-6 1.375-1.562 1.375-1.562 3-3l.688-2.312c1.451-2.973 2.52-3.715 5.187-5.563 4.167-2.921 5.897-5.583 8.125-10.125z"/><path fill="#43cb8e" d="m459 250 1 2-16 20c-1.333-2.667-.671-4.167 0-7l3-1 2-10 3.313-.312c3.543-.661 4.62-.89 6.687-3.688"/><path fill="#83d0b1" d="M310 438c0 3.52-.704 4.439-3 7h-2l-.176 1.61c-1.206 3.498-3.593 5.916-6.012 8.64a1546 1546 0 0 0-3 3.465l-1.464 1.695c-2.611 3.08-4.978 6.323-7.348 9.59l-2-1c.813-2.437.813-2.437 2-5l3-1 1-3h2l.813-2.75c1.106-3.03 2.013-4.91 4.187-7.25l2.063-.812c2.354-1.138 2.354-1.138 2.875-4.688 1.062-3.5 1.062-3.5 3.625-4.875L309 439z"/><path fill="#89ceb1" d="M282 468h2l1 4c-6.15 4.286-12.45 4.395-19.687 3.59-3.626-.925-5.066-2.67-7.313-5.59l3.625 1c6.409 1.456 12.841 1.167 19.375 1z"/><path fill="#92dcbc" d="m228.625 24.625 2.313-.035c5.556.03 5.556.03 8.085 1.933L240 28l-3.543-.07q-2.322-.029-4.644-.055l-2.33-.05c-7.905-.069-13.525 2.348-19.296 7.863L208 38c1.37-2.95 2.878-5.525 5-8h2v-2c4.317-3.526 8.317-3.457 13.625-3.375"/><path fill="#aae6ce" d="M48 238h1v6h-2l-.75 1.875C45 248 45 248 42.938 249c-2.133.818-2.133.818-2.626 3L40 254l-1 2h-3l-1 3-1-2c.777-1.727.777-1.727 1.938-3.625L38 250h2l2-5h2l.875-2.375C46 240 46 240 48 238"/><path fill="#57c395" d="M243 30c4.933 4.774 4.933 4.774 5.12 8.215L248.114 41v3.155l-.016 3.415-.005 3.49c-.005 3.688-.018 7.376-.03 11.065l-.014 7.488Q248.032 78.807 248 88h-1l-.018-1.916c-.064-6.57-.148-13.14-.244-19.709q-.051-3.68-.084-7.36c-.034-3.522-.086-7.044-.142-10.566l-.02-3.333-.06-3.094-.033-2.725c-.48-2.765-1.442-3.389-3.399-5.297z"/><path fill="#79d9b0" d="M199 48c0 2.966-.474 4.733-1.437 7.5l-.81 2.344L196 60l-1 3h-4l-1 2a78 78 0 0 1-5 2c1.402-2.993 3.034-5.595 5-8.25l1.563-2.14L193 55h2l.313-1.812c.776-2.47 1.758-3.51 3.687-5.188"/><path fill="#a7e6cb" d="M448 189c8.216 2.102 12.41 8.291 17 15 1.938 3.313 1.938 3.313 3 6l-1 3c-2.79-1.395-2.777-2.896-3.75-5.812-1.831-4.865-3.765-6.497-8.25-9.188a176 176 0 0 1-1-5c-2.457-1.233-2.457-1.233-5-2z"/><path fill="#9de3c5" d="M123 144c0 6.056-3.847 10.27-7.598 14.68C114 160 114 160 112 160l-.125 1.75c-1.316 3.383-3.84 4.442-6.875 6.25 1.686-3.85 4.18-7.023 6.75-10.312.445-.575.89-1.15 1.35-1.741A250 250 0 0 1 123 144"/><path fill="#a3e4c8" d="M184 67c0 3.441-.837 5.076-2.375 8.125-.44.89-.882 1.779-1.336 2.695C179 80 179 80 177 81l-1 3a107 107 0 0 1-6 4l-2-1a340 340 0 0 1 2.375-3.5l1.336-1.969L173 80h2l2-5h2l.813-2.312c1.131-2.562 2.1-3.885 4.187-5.688"/><path fill="#cdefe1" d="M251 420h1l1 43 3 1v4h2v2c-3.375-1.125-3.61-1.455-5.163-4.453-2.24-4.802-2.354-9.07-2.228-14.297l.018-2.723c.022-2.843.072-5.685.123-8.527q.03-2.909.055-5.816c.044-4.729.112-9.456.195-14.184"/><path fill="#9ce3c6" d="M68 213c0 2.84-.403 5.237-1 8h-2v3l-2.875 1.188C58.536 227.269 58.37 228.28 57 232c-2.125.813-2.125.813-4 1 3.625-6.875 3.625-6.875 7-8q.515-1.995 1-4c1.629-2.14 1.629-2.14 3.563-4.25l1.94-2.14z"/><path fill="#c3f1de" d="M104 168v3l-2 2-.812 3.5L100 180c-2.5 1.125-2.5 1.125-5 2a208 208 0 0 0-2 5c-2.125.813-2.125.813-4 1 3.47-7.535 9.59-13.797 15-20"/><path fill="#8bd9b8" d="m324 420 1 2q-1.931 2.473-3.875 4.938l-2.18 2.777C317 432 317 432 315 433l-1-3c2.434-4.868 5.048-7.78 10-10"/><path fill="#ade8cf" d="m359 376 1 2-1 2h-2l-.625 2.063c-1.83 3.907-4.478 6.776-7.375 9.937-1-3-1-3-1-7l5-2v-3h2v-2z"/><path fill="#5eca9a" d="M437 186c10.171 1.333 10.171 1.333 13.563 4.063L452 192l2 1-1 5h-3l1-2-1.5-1.375C448 193 448 193 448 191l-11-3z"/><path fill="#8fdebc" d="M368 360h5c-1.488 3.26-3.357 5.932-5.562 8.75l-1.88 2.422L364 373h-1v-6h4z"/><path fill="#a4e5c9" d="m440 271 3 1-1 3h-2l-.309 1.766c-.806 2.606-1.933 3.97-3.753 5.984l-1.66 1.86L433 286c-1.333-2.667-.671-4.167 0-7l5-1z"/><path fill="#a0e4c8" d="m459 250 1 2q-1.931 2.474-3.875 4.938l-2.18 2.777C452 262 452 262 450 263c.562-3.936 1.617-6.792 4-10h3z"/><path fill="#9edfc3" d="m339 401 1 3-8 9-2-4 2-1v-2h4v-3z"/><path fill="#7bd7b0" d="M32 288h4l1 8h3l-2 4q-1.228-1.87-2.437-3.75l-1.372-2.11c-1.152-2.07-1.738-3.827-2.191-6.14"/><path fill="#abead0" d="M79 199c0 3 0 3-1.875 5.125-2.778 3.759-3.373 7.33-4.125 11.875l-1-3-3-1q2.217-2.97 4.438-5.937l1.275-1.71c3.174-4.24 3.174-4.24 4.287-5.353"/><path fill="#81d8b3" d="M48 238h1v6h-2l-.812 1.875C45 248 45 248 42 250c.879-4.568 2.7-8.7 6-12"/><path fill="#a2e5ca" d="M148 112c1 2 1 2-.125 5.438-1.564 3.49-3.355 4.945-6.875 6.562l-1-2 1-2h2l2-5h2z"/><path fill="#a6e3c9" d="M310 438c0 3.52-.704 4.439-3 7h-2l-.312 1.875C304 449 304 449 301 451c.779-3.433 1.627-6.753 3-10 2.625-1.562 2.625-1.562 5-2z"/><path fill="#cef4e5" d="m223 26-1.875.25c-2.8.988-2.866 2.154-4.125 4.75-1.324.685-2.66 1.349-4 2a141 141 0 0 0-5 5c1.37-2.95 2.878-5.525 5-8h2v-2c4.39-3.203 4.39-3.203 8-2"/><path fill="#9ee3c4" d="m432 287-8 11-1-3 2-2 .5-3.062.5-2.938c2-1 2-1 6 0"/><path fill="#a2e2c7" d="M88 188c1.245 2.49.777 3.41 0 6h-2l-.75 1.938C84 198 84 198 81.875 198.75L80 199c1.364-2.992 2.95-5.29 5.125-7.75l1.633-1.86z"/><path fill="#b3e9d2" d="M407 316c0 3.993-1.478 5.153-4 8.188l-2.25 2.73L399 329l-1-2c2.203-6.493 2.203-6.493 5.063-8.312L405 318z"/><path fill="#43bf88" d="M422 186h15v2h3l-1 3c-1.937-.312-1.937-.312-4-1l-1-3h-12z"/><path fill="#b8ecd6" d="m193 55 2 1c-4.114 8.508-4.114 8.508-7.812 10.563L185 67c1.41-3.039 3.089-5.594 5.125-8.25l1.633-2.14z"/><path fill="#b8e6d2" d="M293 458h2c-1.41 3.039-3.089 5.594-5.125 8.25l-1.633 2.14L287 470l-2-1c.813-2.437.813-2.437 2-5l3-1 1-3h2z"/><path fill="#94dfbf" d="M343 393h4v2h-2l-.812 2.438L343 400l-3 1v-5h3z"/><path fill="#40cc8c" d="M398.188 321.375 400 322c-.312 1.875-.312 1.875-1 4l-3 2c-1.5-1.375-1.5-1.375-3-3v-2c3-2 3-2 5.188-1.625"/><path fill="#89dab7" d="M104 168v3l-2 2a154 154 0 0 0-2 7l-4 1 2-4 1.438-3.062c1.344-2.528 2.42-4.102 4.562-5.938"/><path fill="#a9e8ce" d="M161 95h2v2h-2v2l2 1-8 5c1.75-4.875 1.75-4.875 4-6 1.134-2.017 1.134-2.017 2-4"/><path fill="#43ca8f" d="M436 272h3l-1 6-4 1-1-4 3-1z"/><path fill="#9ce6c8" d="M450 263c-1.555 3.817-4.036 6.192-7 9-.312-2.812-.312-2.812 0-6 2.389-1.886 3.919-3 7-3"/><path fill="#b3ebd5" d="M207 38c1.125 3.75 1.125 3.75 0 6l-3 1c-1.667 1.5-1.667 1.5-3 3 0-3.59.664-4.109 3-6.687l1.688-1.887z"/><path fill="#59c898" d="M214 31h1v5l-7 4c1.527-3.436 3.55-6.155 6-9"/><path fill="#bceddb" d="m389 338 2 1-7 9c-1-3-1-3 .25-5.562C386 340 386 340 389 338"/><path fill="#b5ead5" d="M111 158h1c.438 2.188.438 2.188 0 5-2.14 1.984-4.502 3.502-7 5 1.652-3.58 3.731-6.78 6-10"/><path fill="#59d09d" d="M233 27c6.152.586 6.152.586 8 1l1 2-8 1z"/><path fill="#4dc892" d="m346 388 3 1-1 4h-5l-1 2c0-3 0-3 2-5.187z"/><path fill="#57cc99" d="M412 304h2c-.25 3.375-.25 3.375-1 7-2.062 1.438-2.062 1.438-4 2 1.875-6.75 1.875-6.75 3-9"/><path fill="#4cca91" d="M431 281h2l-1 5-5 1 1-5 3 1z"/><path fill="#a2e1c7" d="m329 413 2 1a125 125 0 0 1-4 6h-2c.313-2.375.313-2.375 1-5z"/><path fill="#3fc285" d="m320 416 5 1-1 4-4-1z"/><path fill="#89dab8" d="m351 384 2 1-4 7c-1-3-1-3-1-7z"/><path fill="#45cd92" d="m424 288 2 2c-.062 2-.062 2-1 4-2.562 1.25-2.562 1.25-5 2v-3l3-1c.733-2.015.733-2.015 1-4"/><path fill="#4ac991" d="m441 264 3 2c-.375 2.938-.375 2.938-1 6l-2 1z"/><path fill="#3da97a" d="m256 464 1 3 5-1v5l-4-1v-2h-2z"/><path fill="#b6efd8" d="m58 225 2 1c-1.25 2.938-1.25 2.938-3 6-2.187.875-2.187.875-4 1 3.875-6.875 3.875-6.875 5-8"/><path fill="#4fc693" d="M467 227h1c.081 1.437.14 2.874.188 4.313l.105 2.425c-.355 2.74-1.187 3.554-3.293 5.262-.263-4.332.708-7.88 2-12"/><path fill="#59cb98" d="m81 198 4 1-8 6c2-4 2-4 4-7"/><path fill="#96e2c1" d="M374 354c2.063.438 2.063.438 4 1-1.375 2.5-1.375 2.5-3 5h-2a100 100 0 0 1 0-5z"/><path fill="#51c994" d="M108 165c1.245 2.49.777 3.41 0 6l-5 1c3.875-5.875 3.875-5.875 5-7"/><path fill="#adead1" d="M154 105c1.245 2.49.777 3.41 0 6l-5 1c1.522-2.629 2.844-4.844 5-7"/><path fill="#99e4c6" d="M363 367h5a250 250 0 0 1-4 6h-1z"/><path fill="#98e1c3" d="M378 348h5a250 250 0 0 1-4 6h-1z"/><path fill="#a2e5c8" d="M48 307c3 0 3 0 4.688 1.375C54 310 54 310 54 312l-6-2z"/><path fill="#ade9d0" d="m34 292 1.313 1.438c1.71 1.799 1.71 1.799 4.687 2.562l-2 4c-4-5.75-4-5.75-4-8"/><path fill="#54cb99" d="M459 247h2c-1.293 2.884-2.66 4.872-5 7l-2-2h2l1-3h2z"/><path fill="#49cd93" d="M90 187h3l-1 4h-3l-1 2c.875-4.875.875-4.875 2-6"/><path fill="#b3ead2" d="M243 30c2.799 2.528 4.458 4.204 5 8-1.937-.625-1.937-.625-4-2-.75-3.125-.75-3.125-1-6"/></svg>