<svg xmlns="http://www.w3.org/2000/svg" viewBox="0 0 2048 407"><path fill="#fff" d="M233 0h2l1.063 1.914c7.057 12.692 14.196 25.323 21.543 37.85A2191 2191 0 0 1 271 63c5.013 8.8 10.068 17.574 15.188 26.313a1692 1692 0 0 1 14.92 26.048c3.875 6.879 7.834 13.705 11.83 20.514 5.485 9.351 10.814 18.781 16.089 28.252a851 851 0 0 0 11.297 19.644c3.176 5.358 6.28 10.755 9.363 16.167a4862 4862 0 0 0 15.537 27.06q3.822 6.622 7.648 13.242a8212 8212 0 0 1 22.138 38.53 5984 5984 0 0 0 16.343 28.437 4960 4960 0 0 1 13.71 23.918 2839 2839 0 0 0 16.628 28.762q4.827 8.25 9.563 16.55l1.09 1.91q2.625 4.605 5.24 9.216c2.711 4.766 5.423 9.506 8.38 14.125C468 405 468 405 468 407H0c1.411-4.233 2.38-6.96 4.61-10.574l1.538-2.526 1.602-2.587c3.73-6.068 7.315-12.172 10.696-18.44 2.8-5.175 5.682-10.302 8.554-15.435l1.79-3.21a565 565 0 0 1 9.665-16.653c3.017-5.028 5.93-10.118 8.858-15.2l.996-1.729c4.23-7.334 8.42-14.687 12.547-22.078 3.084-5.502 6.28-10.934 9.49-16.364 3.561-6.031 7.048-12.103 10.51-18.193a4640 4640 0 0 1 20.005-34.857 2633 2633 0 0 0 9.951-17.341 2226 2226 0 0 1 13.126-22.688c5.208-8.9 10.32-17.849 15.38-26.834 6.22-11.04 12.576-21.998 18.987-32.928a1775 1775 0 0 0 19.449-34.013c4.518-8.097 9.161-16.114 13.851-24.113 4.557-7.78 9.052-15.594 13.52-23.424l1.022-1.79a8977 8977 0 0 0 10.251-18.007c8.721-15.348 8.721-15.348 13.227-22.828l1.852-3.083zm227 18h85c5.863 11.14 11.703 22.258 17.31 33.523l1.996 3.995q2.114 4.233 4.224 8.467 3.354 6.729 6.715 13.454 7.733 15.486 15.46 30.977 7.096 14.223 14.198 28.443 2.786 5.577 5.567 11.156c9.839 19.75 9.839 19.75 20.02 39.327 4.943 9.316 9.625 18.763 14.33 28.201l2.984 5.972q3.874 7.755 7.743 15.51 3.971 7.956 7.945 15.91Q671.25 268.468 679 284c2.136-2.136 2.983-3.833 4.25-6.559l1.329-2.829 1.421-3.05c3.55-7.529 7.192-14.975 11.125-22.312 2.838-5.3 5.577-10.621 8.123-16.07l1.252-2.68.942-2.026c2.6-5.55 5.361-10.986 8.248-16.39 5.07-9.567 9.941-19.225 14.767-28.916l2.684-5.378q2.856-5.72 5.708-11.443 4.51-9.047 9.027-18.09 12.828-25.692 25.643-51.391 7.104-14.246 14.218-28.487 4.492-8.994 8.975-17.994 2.777-5.572 5.562-11.141 1.293-2.589 2.581-5.179 1.754-3.524 3.517-7.043l1.035-2.089c1.338-2.663 2.47-4.81 4.593-6.933 2.71-.188 5.319-.252 8.03-.227h2.513c2.749 0 5.497.016 8.246.032l5.709.008c5.014.008 10.028.028 15.042.05 5.114.02 10.229.03 15.343.04q15.059.032 30.117.097c-1.288 3.958-2.688 7.59-4.617 11.281l-1.57 3.014-1.688 3.205-1.764 3.373c-4.12 7.847-8.352 15.63-12.628 23.393-4.752 8.672-9.26 17.464-13.773 26.262a1003 1003 0 0 1-14.382 27.046c-4.34 7.9-8.465 15.906-12.578 23.926-5.034 9.814-10.161 19.558-15.492 29.215-4.137 7.527-8.083 15.147-12.008 22.785-4.376 8.517-8.81 16.991-13.437 25.375-5.22 9.459-10.174 19.043-15.104 28.654-4.664 9.09-9.44 18.101-14.38 27.045-4.342 7.9-8.466 15.906-12.579 23.926-5.01 9.768-10.114 19.464-15.422 29.074-4.702 8.557-9.15 17.24-13.604 25.927a1195 1195 0 0 1-18.013 33.744A113 113 0 0 0 704 389c-6.868.254-13.734.429-20.605.55q-3.505.075-7.007.204c-3.362.122-6.72.178-10.083.223l-3.154.156c-3.027.002-5.302-.102-8.151-1.133-2.748-3.027-4.37-6.276-6-10l-1.809-3.492-1.629-3.383c-3.71-7.579-7.683-15.01-11.687-22.437a1726 1726 0 0 1-15.25-28.938c-4.05-7.864-8.182-15.651-12.582-23.325-2.44-4.28-4.686-8.627-6.856-13.05-3.063-6.242-6.328-12.35-9.687-18.437-5.03-9.131-9.86-18.355-14.625-27.625l-5.126-9.971c-6.857-13.34-13.933-26.562-21.033-39.775a1814 1814 0 0 1-13.404-25.442 985 985 0 0 0-12.187-22.875c-5.027-9.13-9.83-18.365-14.593-27.633-4.077-7.93-8.226-15.81-12.532-23.617-4.985-9.037-9.74-18.182-14.456-27.361-5.23-10.173-10.628-20.244-16.153-30.26C460 21.536 460 21.536 460 18m536.375 87.75 2.153-.002c11.402.017 22.337.68 33.472 3.252l2.188.472c18.536 4.087 36.175 12.41 50.812 24.528l1.67 1.382c30.478 25.721 43.462 62.934 47.33 101.618v32H928l1 2c.292 2.038.58 4.077.849 6.119 2.532 18.73 9.05 37.556 24.151 49.881 16.749 12.203 34.8 14.533 55 13 5.647-.897 10.767-2.74 16-5l2.996-1.281c9.584-4.677 18.646-11.845 23.026-21.718 3.791-6.614 3.791-6.614 6.978-9.001 3.47-.758 6.721-.407 10.234-.05l3.044.222q3.217.243 6.43.532a580 580 0 0 0 9.761.78c6.494.482 12.98 1.026 19.468 1.579l6.768.564q8.148.679 16.295 1.373c-.768 5.24-2.24 9.322-4.5 14.063-.355.745-.71 1.49-1.074 2.258-5.483 11.196-12.83 20.678-21.426 29.679l-1.746 1.973c-23.284 25.254-60.735 37.722-94.217 39.154-44.577 1.126-82.907-9.785-115.69-40.686-4.295-4.155-7.878-8.538-11.284-13.441l-1.563-2.242c-24.612-35.92-29.972-80.851-22.352-123.164C860.45 193.796 869.092 173.427 883 156l1.992-2.637c4.21-5.48 8.64-10.028 14.008-14.363l2.27-1.926c27.043-22.5 60.509-31.294 95.105-31.324m-49.5 74.375C936.065 192.901 930.835 207.48 929 224h132c-2.253-20.275-8.608-38.939-24.781-52.375-27.617-20.226-66.025-15.858-89.344 8.5M1823 109l2.188.472c31.223 6.885 58.62 25.87 76.145 52.59C1922.506 195.339 1925 229.928 1925 269h-206l2 10 .824 4.133c3.056 14.5 7.728 27.988 18.176 38.867l2.086 2.172c13.541 13.003 30.992 16.468 49.133 16.298 17.651-.523 32.605-7.323 45.183-19.693 4.222-4.513 7.458-9.307 10.045-14.912C1849 303 1849 303 1851.063 302.574c2.718-.015 5.36.169 8.066.422l3.067.213c3.271.234 6.537.512 9.804.791q3.237.244 6.476.481a1889 1889 0 0 1 19.461 1.582l6.768.564q8.148.679 16.295 1.373c-.806 5.662-2.608 10.072-5.062 15.188l-1.225 2.558c-5.309 10.818-12.479 19.521-20.713 28.254l-1.82 2.016c-23.602 25.134-60.3 37.66-94.108 39.11-40.92 1.262-80.322-8.007-111.072-36.126l-2.422-2.172c-23.998-22.637-38.774-58.274-39.755-91.059a611 611 0 0 1-.061-4.527l-.03-2.477c-.163-17.235-.317-34.008 4.268-50.765l.6-2.243c9.46-34.517 30.129-63.847 61.4-81.757 33.033-18.41 75.166-23.51 112-15m-85.312 71.313C1726.808 193.358 1722.554 207.4 1720 224h132c-.872-8.718-2.355-15.781-5-24l-.871-2.73c-5.036-14.078-15.983-25.47-29.129-32.27-27.479-11.52-58.572-6.706-79.312 15.313m-150.994-39.401C1604.513 156.88 1618.31 179.906 1621 204q.016 3.5 0 7-11.013.651-22.028 1.282-3.734.215-7.467.436c-14.518.86-28.96 1.524-43.505 1.282l-.975-3.379C1541.9 192.996 1533.503 178.364 1517 169c-16.806-8.26-35.414-9.704-53.383-4.254-17.334 6.009-29.213 17.425-37.195 33.835-13.254 28.46-12.93 65.486-3.64 95.15 3.803 10.204 8.794 19.237 16.218 27.269l1.723 1.887c12.452 12.178 30.417 16.625 47.354 16.47 16.621-.561 31.196-6.027 43.22-17.56 4.495-4.833 7.82-9.877 10.703-15.797l1.086-2.074c3.272-6.656 4.52-13.686 5.914-20.926 13.54-.136 27.029.212 40.557.8 3.23.14 6.462.27 9.693.401l6.234.264 2.892.117c4.94.22 9.744.617 14.624 1.418-.115 24.579-12.652 48.406-29 66l-2.11 2.648c-2.914 3.626-6.288 6.424-9.89 9.352l-3.047 2.508c-31.284 24.805-72.917 31.756-111.867 27.996-37.476-4.347-71.873-20.007-95.84-49.844-19.196-25.111-28.353-56.298-29.246-87.66l-.121-3.219c-.704-35.454 8.344-69.539 30.121-97.781l2-2.656c4.216-5.468 8.678-9.969 14-14.344l1.566-1.445c52.06-47.755 145.887-40.875 197.128 3.357M1964 18h71v371h-71zm-792 94h66l2 48 7-16c2.286-3.525 4.42-6.746 7-10l1.89-2.52c6.333-7.446 15.182-11.892 24.11-15.48l2.306-.993c11.02-4.12 23.434-3.248 35.006-3.132L1335 112v58c-19.5.313-19.5.313-25.545.388-20.31.354-38.707 2.9-54.166 17.194-12.27 12.8-12.74 32.956-12.721 49.635l-.031 5.001a2732 2732 0 0 0-.043 13.429c-.01 4.696-.036 9.393-.06 14.09a11240 11240 0 0 0-.095 26.613c-.028 10.109-.071 20.218-.117 30.327A39849 39849 0 0 0 1242 389h-70z"/></svg>