<?xml version="1.0" encoding="UTF-8"?>
<svg version="1.1" xmlns="http://www.w3.org/2000/svg" width="2048" height="407">
<path d="M0 0 C0.66 0 1.32 0 2 0 C2.35078613 0.63164063 2.70157227 1.26328125 3.06298828 1.9140625 C10.11975136 14.60572062 17.25887841 27.23736913 24.60595703 39.76367188 C29.12600076 47.47794667 33.574809 55.23113378 38 63 C43.01309333 71.80010525 48.0679294 80.57372513 53.1875 89.3125 C58.24620552 97.94875853 63.2037701 106.63653336 68.10839844 115.36108398 C71.98346558 122.23973841 75.94230944 129.06552081 79.9375 135.875 C85.42253088 145.2262901 90.75172899 154.65628397 96.02661133 164.12744141 C99.7088125 170.72746634 103.46797972 177.27205823 107.32446289 183.77148438 C110.50038491 189.12936215 113.60439509 194.5257262 116.6875 199.9375 C121.20626917 207.86748971 125.7491458 215.78307645 130.3125 223.6875 C131.25851074 225.32634155 131.25851074 225.32634155 132.22363281 226.99829102 C134.77231063 231.41257255 137.32182427 235.82637038 139.87207031 240.23974609 C147.28289554 253.0652738 154.66867068 265.90453429 162.00997925 278.7699585 C167.42889381 288.26555233 172.88238875 297.74078434 178.35327148 307.20654297 C182.94943607 315.16438754 187.51065947 323.14177199 192.0625 331.125 C197.54855751 340.74605132 203.09310951 350.33099207 208.69140625 359.88720703 C211.90836174 365.38742974 215.09709881 370.90260489 218.25390625 376.4375 C218.6133432 377.06769043 218.97278015 377.69788086 219.34310913 378.34716797 C221.09307203 381.41724723 222.8401603 384.48893002 224.58398438 387.5625 C227.2954114 392.32887427 230.00676612 397.0692026 232.96484375 401.6875 C235 405 235 405 235 407 C80.56 407 -73.88 407 -233 407 C-231.58894388 402.76683165 -230.61947201 400.04073698 -228.390625 396.42578125 C-227.88273438 395.59240234 -227.37484375 394.75902344 -226.8515625 393.90039062 C-226.32304687 393.04638672 -225.79453125 392.19238281 -225.25 391.3125 C-221.52056816 385.24514544 -217.93498372 379.1411588 -214.55371094 372.87231445 C-211.75494572 367.69829296 -208.87243073 362.57087238 -206 357.4375 C-205.11441406 355.84905273 -205.11441406 355.84905273 -204.2109375 354.22851562 C-201.07456022 348.62241394 -197.87080751 343.07132222 -194.54541016 337.57543945 C-191.52783402 332.5466226 -188.61456631 327.45684233 -185.6875 322.375 C-185.35851715 321.80451935 -185.0295343 321.2340387 -184.69058228 320.64627075 C-180.46167097 313.3124951 -176.27152817 305.95932406 -172.14355469 298.56835938 C-169.06048203 293.06599175 -165.86313047 287.63373107 -162.65454102 282.20385742 C-159.09261509 276.17253197 -155.60581545 270.10063298 -152.14404297 264.01123047 C-145.52015966 252.36642666 -138.86317856 240.74128759 -132.13867188 229.15429688 C-128.79551906 223.38843132 -125.48670375 217.60360357 -122.1875 211.8125 C-117.86159007 204.2208347 -113.47748118 196.66517889 -109.0625 189.125 C-103.85357892 180.22553037 -98.74112814 171.27639455 -93.68164062 162.29125977 C-87.46160624 151.25183516 -81.10618841 140.29284437 -74.6953125 129.36328125 C-68.08928855 118.09134077 -61.60198756 106.76538235 -55.24633789 95.3503418 C-50.72779727 87.25344403 -46.08494697 79.2356173 -41.39501953 71.23706055 C-36.83774431 63.45747593 -32.34318203 55.64343577 -27.875 47.8125 C-27.53784973 47.22188782 -27.20069946 46.63127563 -26.85333252 46.02276611 C-23.42937057 40.02419233 -20.0116699 34.02208706 -16.6015625 28.015625 C-7.88070663 12.66810152 -7.88070663 12.66810152 -3.375 5.1875 C-2.76398438 4.17042969 -2.15296875 3.15335937 -1.5234375 2.10546875 C-1.02070313 1.41066406 -0.51796875 0.71585937 0 0 Z " fill="#FFFFFF" transform="translate(233,0)"/>
<path d="M0 0 C28.05 0 56.1 0 85 0 C90.86327992 11.14023185 96.70287141 22.25845523 102.31054688 33.5234375 C102.9754092 34.85509161 103.64045981 36.18665173 104.30567932 37.51812744 C105.7150073 40.33989458 107.12310117 43.16227246 108.53016663 45.98516846 C110.76614922 50.47091351 113.00536715 54.95503899 115.24499512 59.43896484 C120.40125949 69.76341972 125.55346558 80.08989837 130.70560455 90.41641235 C135.43622245 99.89795778 140.16775042 109.37904634 144.9025445 118.85850716 C146.75956224 122.57665754 148.6157414 126.29522122 150.46983337 130.01483154 C160.30869755 149.76569457 160.30869755 149.76569457 170.48993492 169.34156513 C175.43340967 178.65761902 180.11473212 188.10522524 184.8203125 197.54296875 C185.8147543 199.53372385 186.80937657 201.52438881 187.8041687 203.51496887 C190.38687906 208.68415718 192.96718248 213.85454309 195.54693604 219.02520752 C198.19386174 224.32939889 200.84313171 229.6324191 203.4921875 234.93554688 C208.66371562 245.28923848 213.83269431 255.6442005 219 266 C221.13581183 263.86418817 221.9832756 262.16723882 223.25 259.44140625 C223.68844238 258.50780273 224.12688477 257.57419922 224.57861328 256.61230469 C225.28219971 255.10265137 225.28219971 255.10265137 226 253.5625 C229.54920318 246.03317751 233.19230402 238.58652822 237.125 231.25 C239.96270486 225.94934998 242.7022066 220.62861044 245.24755859 215.18066406 C245.86751709 213.85373535 245.86751709 213.85373535 246.5 212.5 C246.81079215 211.83127819 247.1215843 211.16255639 247.4417944 210.47357029 C250.04171007 204.92388934 252.80321144 199.48820575 255.69018555 194.08326721 C260.76007786 184.51659438 265.6314627 174.85937999 270.45703125 165.16772461 C271.3516129 163.37499231 272.24638927 161.58235717 273.14134216 159.78981018 C275.04502479 155.97596992 276.94749284 152.16152733 278.84899902 148.34660149 C281.85538454 142.31534162 284.86538446 136.28589007 287.87597656 130.25672913 C296.42801245 113.1286434 304.97515122 95.99811635 313.51904297 78.8659668 C318.25527286 69.36899246 322.99435675 59.87344779 327.73652744 50.37943846 C330.73151439 44.38292045 333.72288752 38.38461791 336.71160221 32.3849715 C338.56326624 28.66994944 340.41824523 24.95659035 342.27418709 21.24370384 C343.13587085 19.51818223 343.99617055 17.79196867 344.85500908 16.06502914 C346.02369953 13.71552821 347.19724285 11.3685162 348.37207031 9.02207947 C348.88421443 7.98802952 348.88421443 7.98802952 349.4067049 6.93308967 C350.74519977 4.27040906 351.87768024 2.12231976 354 0 C356.71083658 -0.18802953 359.31867274 -0.25180173 362.02978516 -0.22705078 C362.85913071 -0.22734283 363.68847626 -0.22763489 364.54295349 -0.22793579 C367.29176192 -0.22653939 370.04030127 -0.21096368 372.7890625 -0.1953125 C374.69192354 -0.19158347 376.5947865 -0.18873598 378.49765015 -0.18673706 C383.51185383 -0.17909192 388.52594209 -0.15943589 393.5401001 -0.1373291 C398.65432168 -0.11688962 403.76856187 -0.10773941 408.8828125 -0.09765625 C418.92192578 -0.07619081 428.9609533 -0.04204427 439 0 C437.71162224 3.95785696 436.31171383 7.59046942 434.3828125 11.28125 C433.86485107 12.27592285 433.34688965 13.2705957 432.81323242 14.29541016 C432.25611572 15.3529248 431.69899902 16.41043945 431.125 17.5 C430.54274658 18.61294434 429.96049316 19.72588867 429.3605957 20.87255859 C425.24030993 28.72013717 421.00929752 36.50238133 416.73291016 44.265625 C411.98132536 52.93800076 407.47222191 61.72995677 402.95980835 70.52813721 C398.29501177 79.61836221 393.51853064 88.62991293 388.578125 97.57421875 C384.23710911 105.47440089 380.11331752 113.47985704 376 121.5 C370.96644668 131.31423998 365.83884808 141.0578039 360.5078125 150.71484375 C356.37089212 158.24158568 352.42497368 165.86155893 348.5 173.5 C344.12374211 182.016691 339.69056032 190.49138254 335.0625 198.875 C329.84249864 208.33358557 324.88885671 217.91751055 319.95925903 227.52923584 C315.2946443 236.61909239 310.51833189 245.63027276 305.578125 254.57421875 C301.23710969 262.47439983 297.11329502 270.47984644 293 278.5 C287.99035002 288.26787757 282.88627054 297.96414206 277.578125 307.57421875 C272.87629479 316.13104415 268.42882414 324.81360423 263.97409058 333.50057983 C258.15078901 344.84990673 252.14511753 356.08758167 245.96118164 367.24536133 C245.28281298 368.48372443 244.63146294 369.73707412 244 371 C237.13231575 371.25394067 230.26584341 371.42881781 223.39453125 371.54931641 C221.05845916 371.59955103 218.72270066 371.66775544 216.38769531 371.75439453 C213.02590719 371.87599112 209.66827599 371.93245882 206.3046875 371.9765625 C205.26384003 372.02817535 204.22299255 372.07978821 203.15060425 372.13296509 C200.12436708 372.13529614 197.8491518 372.03147445 195 371 C192.25208246 367.97315954 190.62975347 364.7235237 189 361 C188.40316406 359.84757812 187.80632812 358.69515625 187.19140625 357.5078125 C186.65386719 356.39148438 186.11632812 355.27515625 185.5625 354.125 C181.85105347 346.54614027 177.87906192 339.11496215 173.875 331.6875 C168.70017865 322.08694085 163.61740627 312.44684158 158.625 302.75 C154.574663 294.88606315 150.4431606 287.0985098 146.04272461 279.42529297 C143.60217472 275.14536432 141.35747508 270.79768943 139.1875 266.375 C136.12388807 260.13283322 132.85901322 254.02546859 129.5 247.9375 C124.46990494 238.80658072 119.64028281 229.58327541 114.875 220.3125 C114.52929962 219.64019348 114.18359924 218.96788696 113.8274231 218.27520752 C112.46780871 215.63083817 111.10840174 212.98636243 109.74946594 210.34164429 C102.8916721 197.00132692 95.81577131 183.77997668 88.71612549 170.56723022 C84.17970696 162.12154583 79.71456865 153.64165527 75.3125 145.125 C71.3433399 137.44620411 67.29478614 129.82169174 63.125 122.25 C58.09816756 113.12081005 53.29505632 103.88522029 48.5322876 94.61682129 C44.45540321 86.68781342 40.30639138 78.80752258 36 71 C31.01548404 61.96303204 26.25956218 52.81765925 21.54382324 43.6388855 C16.31417444 33.46570493 10.91587135 23.39488473 5.390625 13.37890625 C0 3.53579215 0 3.53579215 0 0 Z " fill="#FFFFFF" transform="translate(460,18)"/>
<path d="M0 0 C0.71053528 -0.00067474 1.42107056 -0.00134949 2.15313721 -0.00204468 C13.55509511 0.01511584 24.49031613 0.67768183 35.625 3.25 C36.346875 3.4056543 37.06875 3.56130859 37.8125 3.72167969 C56.3493346 7.80924753 73.98773374 16.13178809 88.625 28.25 C89.17591309 28.70600586 89.72682617 29.16201172 90.29443359 29.63183594 C120.77322529 55.35300565 133.75662347 92.56623471 137.625 131.25 C137.625 141.81 137.625 152.37 137.625 163.25 C69.645 163.25 1.665 163.25 -68.375 163.25 C-68.045 163.91 -67.715 164.57 -67.375 165.25 C-67.08290896 167.28833312 -66.79422396 169.32723739 -66.52636719 171.36889648 C-63.99370125 190.0993114 -57.47659428 208.92544662 -42.375 221.25 C-25.62600373 233.45284014 -7.57418391 235.7834459 12.625 234.25 C18.27245258 233.35274118 23.3915845 231.50920118 28.625 229.25 C29.61371094 228.8271875 30.60242187 228.404375 31.62109375 227.96875 C41.20469705 223.29249534 50.26727498 216.12375203 54.64746094 206.25073242 C58.43822417 199.63698408 58.43822417 199.63698408 61.625 197.25 C65.09566072 196.49218658 68.34596187 196.84251429 71.859375 197.19921875 C72.86388199 197.27273056 73.86838898 197.34624237 74.90333557 197.42198181 C77.04753282 197.58350581 79.19055656 197.76129327 81.33218384 197.95391846 C84.58461364 198.24636856 87.83761962 198.49635171 91.09448242 198.73388672 C97.58775741 199.21589612 104.07487323 199.76035124 110.5625 200.3125 C112.81832461 200.50106738 115.07418392 200.68922019 117.33007812 200.87695312 C122.7621257 201.32988482 128.19373142 201.78782538 133.625 202.25 C132.8571867 207.49069669 131.38557707 211.57233733 129.125 216.3125 C128.77042725 217.05765869 128.41585449 217.80281738 128.05053711 218.57055664 C122.56787965 229.7671618 115.22052105 239.24888267 106.625 248.25 C106.04878906 248.90097656 105.47257812 249.55195313 104.87890625 250.22265625 C81.59475211 275.47740695 44.14445707 287.94471791 10.66235352 289.37670898 C-33.9153005 290.50257082 -72.24474609 279.59232112 -105.02856445 248.69140625 C-109.3225249 244.53584667 -112.90596404 240.15265741 -116.3125 235.25 C-117.0861792 234.14023804 -117.0861792 234.14023804 -117.87548828 233.00805664 C-142.48721447 197.08813633 -147.84688018 152.15688366 -140.2265625 109.84350586 C-135.92561716 88.04603504 -127.28298304 67.67720951 -113.375 50.25 C-112.38886719 48.94482422 -112.38886719 48.94482422 -111.3828125 47.61328125 C-107.17252285 42.13335173 -102.74222973 37.58545174 -97.375 33.25 C-96.62605469 32.61449219 -95.87710938 31.97898438 -95.10546875 31.32421875 C-68.06208688 8.82447454 -34.59646081 0.02958162 0 0 Z M-49.5 74.375 C-60.31004347 87.15050592 -65.53943422 101.729908 -67.375 118.25 C-23.815 118.25 19.745 118.25 64.625 118.25 C62.37226918 97.97542262 56.01707261 79.31129878 39.84375 65.875 C12.22700291 45.64865002 -26.18118326 50.01677864 -49.5 74.375 Z " fill="#FFFFFF" transform="translate(996.375,105.75)"/>
<path d="M0 0 C0.721875 0.1556543 1.44375 0.31130859 2.1875 0.47167969 C33.41141507 7.35688279 60.8078469 26.34172872 78.33325195 53.0625 C99.50616671 86.33834966 102 120.92742677 102 160 C34.02 160 -33.96 160 -104 160 C-103.34 163.3 -102.68 166.6 -102 170 C-101.72800781 171.36382812 -101.45601562 172.72765625 -101.17578125 174.1328125 C-98.11951611 188.63217809 -93.44811079 202.1214427 -83 213 C-82.31164063 213.71671875 -81.62328125 214.4334375 -80.9140625 215.171875 C-67.37275806 228.17543811 -49.92183019 231.64023544 -31.78100586 231.47045898 C-14.12960245 230.94674063 0.82444666 224.14723647 13.40234375 211.77734375 C17.62392164 207.26374694 20.85981938 202.47042341 23.44702148 196.86474609 C26 194 26 194 28.06338501 193.5738678 C30.78133609 193.55879839 33.42252912 193.74301599 36.12890625 193.99609375 C37.14102676 194.06622177 38.15314728 194.13634979 39.19593811 194.20860291 C42.46695376 194.44271943 45.73257893 194.7205017 49 195 C51.15849931 195.16288493 53.31719283 195.32321694 55.47607422 195.48095703 C61.96696259 195.96578179 68.45203264 196.51053502 74.9375 197.0625 C77.19332461 197.25106738 79.44918392 197.43922019 81.70507812 197.62695312 C87.1371257 198.07988482 92.56873142 198.53782538 98 199 C97.19371274 204.66225491 95.39221655 209.07164755 92.9375 214.1875 C92.53337891 215.03175537 92.12925781 215.87601074 91.71289062 216.74584961 C86.40416337 227.56373141 79.23449758 236.26732997 71 245 C70.39929687 245.66515625 69.79859375 246.3303125 69.1796875 247.015625 C45.57796944 272.14992216 8.8793805 284.67645084 -24.92773438 286.12548828 C-65.84786795 287.38759407 -105.2498262 278.11914289 -136 250 C-136.79921875 249.28328125 -137.5984375 248.5665625 -138.421875 247.828125 C-162.42020353 225.19140376 -177.1959278 189.55366189 -178.17700195 156.76904297 C-178.20314712 155.2601794 -178.2233206 153.75120341 -178.23828125 152.2421875 C-178.24802979 151.42473053 -178.25777832 150.60727356 -178.26782227 149.76504517 C-178.43119677 132.52964737 -178.58540518 115.75663339 -174 99 C-173.80212891 98.25975586 -173.60425781 97.51951172 -173.40039062 96.75683594 C-163.9406714 62.23957566 -143.2712781 32.91044942 -112 15 C-78.96740554 -3.40955233 -36.83383696 -8.50929845 0 0 Z M-85.3125 71.3125 C-96.19143284 84.35819125 -100.44627302 98.4007746 -103 115 C-59.44 115 -15.88 115 29 115 C28.12821592 106.28215922 26.6447245 99.21855248 24 91 C23.71253906 90.09894531 23.42507813 89.19789063 23.12890625 88.26953125 C18.09304987 74.19151498 7.14604005 62.79967589 -6 56 C-33.47885424 44.48035361 -64.57230533 49.29352647 -85.3125 71.3125 Z " fill="#FFFFFF" transform="translate(1823,109)"/>
<path d="M0 0 C17.81849389 15.96847041 31.61518466 38.9942894 34.30566406 63.08813477 C34.31613084 65.42144462 34.31704521 67.75482919 34.30566406 70.08813477 C26.96357551 70.52315933 19.62100946 70.94935054 12.27807617 71.36987305 C9.78870485 71.51342578 7.2994423 71.65887969 4.81030273 71.80639648 C-9.70754238 72.66537142 -24.14936953 73.33045738 -38.69433594 73.08813477 C-39.0160376 71.9730957 -39.33773926 70.85805664 -39.66918945 69.70922852 C-44.79522045 52.08423542 -53.19090765 37.45230223 -69.69433594 28.08813477 C-86.49985954 19.82853929 -105.10838852 18.38421673 -123.07714844 23.83422852 C-140.41113711 29.843095 -152.29055408 41.25891037 -160.2722168 57.66870117 C-173.52671302 86.12899749 -173.20284955 123.15469927 -163.91308594 152.81860352 C-160.10943122 163.02263877 -155.11868645 172.0559427 -147.69433594 180.08813477 C-147.12585937 180.71075195 -146.55738281 181.33336914 -145.97167969 181.97485352 C-133.5194163 194.15344079 -115.55414227 198.60060086 -98.61767578 198.44458008 C-81.99591428 197.88388512 -67.4214672 192.41824026 -55.39746094 180.88500977 C-50.90246136 176.05204029 -47.57648071 171.00793573 -44.69433594 165.08813477 C-44.33597656 164.40364258 -43.97761719 163.71915039 -43.60839844 163.01391602 C-40.3358601 156.35811436 -39.08772847 149.32831167 -37.69433594 142.08813477 C-24.153749 141.9523265 -10.66538111 142.3003968 2.86230469 142.88769531 C6.09321227 143.02725669 9.32438557 143.15864425 12.55566406 143.28930664 C14.63380931 143.37671732 16.71193515 143.46459065 18.79003906 143.55297852 C19.74424744 143.59156479 20.69845581 143.63015106 21.68157959 143.66990662 C26.62149379 143.8894811 31.42519949 144.28715849 36.30566406 145.08813477 C36.19054216 169.66666052 23.65400153 193.49446203 7.30566406 211.08813477 C6.60957031 211.96211914 5.91347656 212.83610352 5.19628906 213.73657227 C2.28146153 217.36203957 -1.09218295 220.16000427 -4.69433594 223.08813477 C-6.20253906 224.32950195 -6.20253906 224.32950195 -7.74121094 225.59594727 C-39.02539181 250.40089045 -80.65871951 257.35219835 -119.60839844 253.59204102 C-157.08481353 249.24467211 -191.48167362 233.58530264 -215.44824219 203.74829102 C-234.64390923 178.63690862 -243.80161374 147.4498537 -244.69433594 116.08813477 C-244.73429687 115.02594727 -244.77425781 113.96375977 -244.81542969 112.86938477 C-245.51954585 77.41506528 -236.4714026 43.3302681 -214.69433594 15.08813477 C-213.70433594 13.77329102 -213.70433594 13.77329102 -212.69433594 12.43188477 C-208.47847396 6.96443876 -204.01650113 2.46341167 -198.69433594 -1.91186523 C-198.17742187 -2.38881836 -197.66050781 -2.86577148 -197.12792969 -3.35717773 C-145.06750826 -51.11185002 -51.24101442 -44.23194045 0 0 Z " fill="#FFFFFF" transform="translate(1586.6943359375,140.911865234375)"/>
<path d="M0 0 C23.43 0 46.86 0 71 0 C71 122.43 71 244.86 71 371 C47.57 371 24.14 371 0 371 C0 248.57 0 126.14 0 0 Z " fill="#FFFFFF" transform="translate(1964,18)"/>
<path d="M0 0 C21.78 0 43.56 0 66 0 C66.99 23.76 66.99 23.76 68 48 C70.31 42.72 72.62 37.44 75 32 C77.28571785 28.47457078 79.41983197 25.25377833 82 22 C82.62390625 21.16855469 83.2478125 20.33710938 83.890625 19.48046875 C90.22297258 12.03409706 99.07186823 7.5879408 108 4 C109.14166626 3.50838379 109.14166626 3.50838379 110.30639648 3.00683594 C121.32678789 -1.11245112 133.73969754 -0.24120622 145.3125 -0.125 C154.0678125 -0.063125 154.0678125 -0.063125 163 0 C163 19.14 163 38.28 163 58 C143.5 58.3125 143.5 58.3125 137.45507812 58.38793945 C117.1448449 58.74246488 98.74765333 61.28812877 83.2890625 75.58203125 C71.01914902 88.38135724 70.54905718 108.53839597 70.56762695 125.21655273 C70.55858525 126.88377598 70.54825224 128.55099264 70.53674316 130.21820068 C70.50942945 134.69446053 70.49992396 139.1705934 70.49388909 143.64692569 C70.48443789 148.34344834 70.45822966 153.03987859 70.43388367 157.73634338 C70.39039909 166.6075251 70.36174176 175.4786887 70.33856028 184.34994417 C70.31141128 194.45898053 70.26750618 204.56792309 70.22227156 214.67689216 C70.12968396 235.45122399 70.06009647 256.22554702 70 277 C46.9 277 23.8 277 0 277 C0 185.59 0 94.18 0 0 Z " fill="#FFFFFF" transform="translate(1172,112)"/>
</svg>
