<?xml version="1.0" encoding="UTF-8"?>
<svg version="1.1" xmlns="http://www.w3.org/2000/svg" width="1024" height="1024">
<path d="M0 0 C1.84030719 -0.00532831 3.68061003 -0.01239563 5.5209046 -0.02104706 C10.56646006 -0.03966348 15.61172179 -0.03337278 20.65728939 -0.02289402 C26.10320709 -0.01589924 31.54906462 -0.03190208 36.9949646 -0.04489136 C47.65923893 -0.06653178 58.32340655 -0.06640434 68.98769563 -0.05826581 C77.65540785 -0.05196564 86.32308896 -0.05310302 94.99080086 -0.05953789 C96.84135757 -0.06089037 96.84135757 -0.06089037 98.72929927 -0.06227018 C101.23557016 -0.06412138 103.74184104 -0.06598394 106.24811191 -0.06785773 C129.07980569 -0.08396373 151.91144743 -0.07676065 174.7431374 -0.06030459 C195.57592295 -0.045457 216.4085774 -0.0542378 237.24134827 -0.08226013 C260.6574377 -0.11369721 284.07345443 -0.12858728 307.48956591 -0.11846012 C309.98691562 -0.11743757 312.48426534 -0.11644296 314.98161507 -0.11547661 C316.21034624 -0.11500022 317.4390774 -0.11452383 318.70504285 -0.114033 C327.36122712 -0.1118688 336.01735032 -0.12167329 344.67352104 -0.13624763 C355.22422501 -0.15376404 365.77475079 -0.15366339 376.32544773 -0.13089598 C381.70799153 -0.1197477 387.09022132 -0.11660487 392.47275162 -0.13519669 C397.40203424 -0.1520038 402.33072904 -0.14564693 407.25997359 -0.1209799 C409.04116019 -0.11609703 410.82239423 -0.11961116 412.60354113 -0.13246734 C424.06142076 -0.20918785 432.73803222 0.75467479 441.70545959 8.51856995 C446.30490263 13.50768242 449.36931582 19.54166019 452.61561584 25.4521637 C453.31599688 26.70601707 454.01776196 27.95909824 454.72084045 29.21144104 C455.79505887 31.12518396 456.86847592 33.03932181 457.93765259 34.95588684 C461.2524009 40.89639033 464.67145704 46.77331513 468.11561584 52.6396637 C472.95888815 60.91378807 477.76840046 69.20654031 482.55311584 77.5146637 C487.36156343 85.86268879 492.19217295 94.19709601 497.05311584 102.5146637 C505.07593262 116.24513186 513.01169912 130.02544455 520.94862366 143.80567932 C528.19344633 156.3823029 535.46044395 168.94503327 542.78382874 181.47608948 C547.70362866 189.90035709 552.57833722 198.35020266 557.44764709 206.8037262 C561.62660742 214.0541791 565.83059573 221.28950233 570.05311584 228.5146637 C578.07593262 242.24513186 586.01169912 256.02544455 593.94862366 269.80567932 C601.19344633 282.3823029 608.46044395 294.94503327 615.78382874 307.47608948 C620.70147466 315.89666875 625.57438692 324.34262267 630.4410553 332.79273987 C634.68247984 340.15235715 638.95356391 347.49404855 643.24061584 354.8271637 C645.5133449 358.72189413 647.78355215 362.61808811 650.05311584 366.5146637 C650.62819885 367.50031311 651.20328186 368.48596252 651.79579163 369.5014801 C653.47088235 372.37745438 655.1380876 375.25785481 656.80311584 378.1396637 C657.30480286 378.99858215 657.80648987 379.85750061 658.32337952 380.7424469 C662.06912465 387.25329705 664.34168234 392.62394163 664.42811584 400.2646637 C664.45647522 401.39388245 664.48483459 402.5231012 664.51405334 403.6865387 C663.35825928 413.28550633 658.00984352 421.45449874 653.17811584 429.6396637 C652.16958783 431.36772632 651.16106151 433.09578994 650.15266418 434.82392883 C649.12362746 436.58463551 648.09138395 438.34342026 647.05799866 440.10157776 C644.61687021 444.25732249 642.18886525 448.42062954 639.76161194 452.58448792 C638.61699655 454.54757364 637.47147979 456.51013406 636.3250885 458.47218323 C632.04181518 465.80481074 627.79170197 473.15612862 623.55311584 480.5146637 C618.74459741 488.86264828 613.91405902 497.19709554 609.05311584 505.5146637 C601.66896692 518.15209823 594.3582145 530.83141668 587.05311584 543.5146637 C579.1773086 557.1887855 571.28455739 570.85203344 563.32240295 584.47608948 C559.04066667 591.80778849 554.79091577 599.15749351 550.55311584 606.5146637 C545.74459741 614.86264828 540.91405902 623.19709554 536.05311584 631.5146637 C528.66896692 644.15209823 521.3582145 656.83141668 514.05311584 669.5146637 C506.1773086 683.1887855 498.28455739 696.85203344 490.32240295 710.47608948 C486.04066595 717.80778972 481.79110325 725.15760061 477.55311584 732.5146637 C470.98060471 743.91902868 464.387567 755.31074877 457.72303772 766.66163635 C456.05769867 769.50683403 454.40672284 772.36004723 452.75624084 775.21388245 C451.71000534 777.00201719 450.6631597 778.78979512 449.61561584 780.5771637 C449.15582336 781.3800885 448.69603088 782.18301331 448.2223053 783.01026917 C443.30227144 791.33729994 437.64573271 797.89199791 428.05311584 800.5146637 C422.0696971 801.10189168 416.11344982 801.05964598 410.10623169 801.02932739 C408.2659245 801.0346557 406.42562166 801.04172302 404.58532709 801.05037445 C399.53977163 801.06899087 394.4945099 801.06270017 389.4489423 801.05222142 C384.0030246 801.04522663 378.55716707 801.06122947 373.11126709 801.07421875 C362.44699276 801.09585917 351.78282514 801.09573173 341.11853606 801.08759321 C332.45082384 801.08129303 323.78314273 801.08243041 315.11543083 801.08886528 C313.26487412 801.09021776 313.26487412 801.09021776 311.37693242 801.09159757 C308.87066153 801.09344877 306.36439065 801.09531133 303.85811978 801.09718513 C281.026426 801.11329112 258.19478426 801.10608804 235.36309429 801.08963198 C214.53030873 801.0747844 193.69765429 801.0835652 172.86488342 801.11158752 C149.44879399 801.14302461 126.03277726 801.15791467 102.61666578 801.14778751 C100.11931607 801.14676496 97.62196635 801.14577035 95.12461662 801.144804 C93.89588545 801.14432761 92.66715429 801.14385122 91.40118884 801.14336039 C82.74500457 801.1411962 74.08888137 801.15100068 65.43271065 801.16557503 C54.88200668 801.18309143 44.3314809 801.18299078 33.78078396 801.16022337 C28.39824016 801.1490751 23.01601037 801.14593226 17.63348007 801.16452408 C12.70419745 801.1813312 7.77550265 801.17497433 2.8462581 801.15030729 C1.06507149 801.14542442 -0.71616254 801.14893855 -2.49730944 801.16179473 C-13.98046114 801.23868447 -22.69105608 800.2882204 -31.63438416 792.44044495 C-35.94529653 787.76315538 -38.8810255 782.2365501 -41.94688416 776.7021637 C-42.93231026 774.95871752 -43.91775412 773.21528108 -44.90428162 771.47245789 C-45.92061337 769.67382056 -46.93211469 767.87253143 -47.94297791 766.07081604 C-51.06123165 760.52354521 -54.25846122 755.02178726 -57.44688416 749.5146637 C-58.69596326 747.35082119 -59.94466009 745.18675798 -61.19297791 743.0224762 C-61.81156677 741.95029846 -62.43015564 740.87812073 -63.06748962 739.77345276 C-64.95668581 736.49766804 -66.84452524 733.22110477 -68.73204041 729.9443512 C-74.77743574 719.45234276 -80.83798634 708.96984694 -86.94688416 698.5146637 C-94.96955927 684.78411181 -102.90546674 671.00388404 -110.84239197 657.22364807 C-118.08721464 644.64702449 -125.35421226 632.08429413 -132.67759705 619.55323792 C-137.59739697 611.12897031 -142.47210553 602.67912473 -147.34141541 594.2256012 C-151.52037573 586.97514829 -155.72436405 579.73982506 -159.94688416 572.5146637 C-167.96970093 558.78419553 -175.90546743 545.00388284 -183.84239197 531.22364807 C-191.08721464 518.64702449 -198.35421226 506.08429413 -205.67759705 493.55323792 C-210.59524297 485.13265864 -215.46815523 476.68670472 -220.33482361 468.23658752 C-224.57624815 460.87697024 -228.84733222 453.53527885 -233.13438416 446.2021637 C-235.40711321 442.30743327 -237.67732046 438.41123929 -239.94688416 434.5146637 C-240.52196716 433.52901428 -241.09705017 432.54336487 -241.68955994 431.52784729 C-243.36465066 428.65187301 -245.03185592 425.77147258 -246.69688416 422.8896637 C-247.19857117 422.03074524 -247.70025818 421.17182678 -248.21714783 420.28688049 C-251.96289296 413.77603035 -254.23545065 408.40538576 -254.32188416 400.7646637 C-254.36442322 399.07083557 -254.36442322 399.07083557 -254.40782166 397.3427887 C-253.25202759 387.74382106 -247.90361183 379.57482866 -243.07188416 371.3896637 C-242.06335614 369.66160107 -241.05482982 367.93353745 -240.0464325 366.20539856 C-239.01739577 364.44469188 -237.98515226 362.68590713 -236.95176697 360.92774963 C-234.51063852 356.7720049 -232.08263356 352.60869786 -229.65538025 348.44483948 C-228.51076486 346.48175376 -227.3652481 344.51919334 -226.21885681 342.55714417 C-221.93558349 335.22451665 -217.68547028 327.87319878 -213.44688416 320.5146637 C-208.63836572 312.16667911 -203.80782733 303.83223186 -198.94688416 295.5146637 C-191.56273523 282.87722916 -184.25198281 270.19791071 -176.94688416 257.5146637 C-169.07107691 243.8405419 -161.1783257 230.17729396 -153.21617126 216.55323792 C-148.93443499 209.22153891 -144.68468409 201.87183388 -140.44688416 194.5146637 C-135.63836572 186.16667911 -130.80782733 177.83223186 -125.94688416 169.5146637 C-118.56273523 156.87722916 -111.25198281 144.19791071 -103.94688416 131.5146637 C-96.07107691 117.8405419 -88.1783257 104.17729396 -80.21617126 90.55323792 C-75.93443426 83.22153767 -71.68487156 75.87172678 -67.44688416 68.5146637 C-60.87437302 57.11029871 -54.28133531 45.71857862 -47.61680603 34.36769104 C-45.95146698 31.52249336 -44.30049115 28.66928016 -42.65000916 25.81544495 C-41.60377365 24.02731021 -40.55692801 22.23953228 -39.50938416 20.4521637 C-39.04959167 19.64923889 -38.58979919 18.84631409 -38.11607361 18.01905823 C-28.64700895 1.99290981 -17.62843997 -0.08897119 0 0 Z " fill="#0D4FB2" transform="translate(306.94688415527344,111.48533630371094)"/>
<path d="M0 0 C1.8445814 -0.00317856 3.68916047 -0.00810811 5.53373307 -0.01463282 C10.59089246 -0.02743707 15.64773069 -0.01534154 20.70486891 0.00089574 C26.16292621 0.01406767 31.62094813 0.004149 37.07901001 -0.00286865 C47.76535015 -0.01294591 58.4515664 -0.00167865 69.13789115 0.01683195 C81.57753198 0.03760511 94.01714605 0.03745946 106.45680096 0.03648679 C129.31613655 0.03545555 152.17541736 0.05552287 175.03472993 0.08549167 C195.90769942 0.11275541 216.78062308 0.12521349 237.65361023 0.12387085 C238.99459397 0.12379003 240.33557771 0.12370931 241.67656145 0.12362869 C242.33951659 0.12358799 243.00247173 0.12354729 243.68551642 0.12350535 C268.8691843 0.12198408 294.05282909 0.1332873 319.23648996 0.15169055 C327.91350288 0.15772958 336.59051184 0.1598504 345.26752663 0.16075516 C355.83372879 0.16211751 366.39989454 0.17102034 376.96608124 0.18942077 C382.3599368 0.19867221 387.75374568 0.20474205 393.14760971 0.20223236 C398.0801122 0.20004855 403.01251129 0.20704047 407.94499221 0.22152941 C409.73414627 0.22516738 411.52331096 0.22540571 413.31246547 0.22199483 C415.73521514 0.21788572 418.15762251 0.22595578 420.58034229 0.23720741 C421.28279968 0.23309678 421.98525706 0.22898614 422.70900103 0.22475094 C426.31242314 0.25553954 428.94518992 0.52881297 432.01274109 2.49447632 C427.39585935 11.44147695 422.48784012 20.18880175 417.38774109 28.86947632 C410.66658596 40.31253001 404.16720408 51.86968706 397.70658875 63.46127319 C389.91559213 77.4127494 381.99374758 91.29015022 374.05192566 105.15612793 C369.27952301 113.49074148 364.56230358 121.85450622 359.88774109 130.24447632 C355.37509203 138.34174944 350.77123752 146.377201 346.07524109 154.36947632 C340.39149556 164.04541445 334.90483849 173.82003571 329.47563171 183.64071655 C324.28121213 193.03234043 318.98255384 202.35959078 313.63627625 211.66537476 C310.50345746 217.12448815 307.38433943 222.59144196 304.26274109 228.05697632 C302.89568311 230.45027949 301.52849193 232.84350652 300.16117859 235.23666382 C299.81905838 235.83547363 299.47693817 236.43428345 299.12445068 237.05123901 C297.066188 240.65308529 295.00569404 244.25364418 292.9433136 247.85313416 C291.25738152 250.79565733 289.57232481 253.73868104 287.88774109 256.68197632 C287.55554565 257.2623465 287.22335022 257.84271667 286.88108826 258.44067383 C282.16677499 266.6810457 277.50936363 274.95176851 272.88774109 283.24447632 C267.81936483 292.3386446 262.61612876 301.34418379 257.34135437 310.31991577 C252.86720454 317.96174367 248.5422699 325.68030569 244.26274109 333.43197632 C239.87820211 341.37290067 235.44162476 349.26481942 230.79570007 357.05551147 C226.41847743 364.42777115 222.26199118 371.92351034 218.09648132 379.4168396 C217.00238336 381.38238919 215.88362491 383.33449432 214.73616123 385.26937485 C212.92959188 388.39773607 212.92959188 388.39773607 212.05251217 391.66171646 C210.58000151 395.67237498 209.29647355 397.71193215 206.01274109 400.49447632 C197.85674832 402.91806131 188.74445404 402.00484536 180.34111023 401.85678101 C177.67001247 401.85339562 174.99931161 401.85476822 172.32826233 401.86209106 C166.57967019 401.86837548 160.83271572 401.8308167 155.0845356 401.763237 C146.77399147 401.66559607 138.46423702 401.63444879 130.15318149 401.6193811 C116.6686635 401.59313488 103.18501794 401.5133252 89.70097351 401.39974976 C76.60466367 401.28955508 63.50859102 401.20463759 50.41191101 401.15365601 C49.20045591 401.14892698 49.20045591 401.14892698 47.96452696 401.14410242 C43.91273958 401.12844166 39.86095053 401.11327724 35.80916035 401.09835958 C2.20972129 400.97401314 -31.38866177 400.76270505 -64.98725891 400.49447632 C-64.35549902 401.93201249 -63.72201729 403.36879204 -63.08781433 404.80525208 C-62.73522993 405.60543983 -62.38264553 406.40562757 -62.01937675 407.23006344 C-60.76242921 409.98774099 -59.33336957 412.59927652 -57.80757141 415.21713257 C-56.91968933 416.74817627 -56.91968933 416.74817627 -56.01387024 418.31015015 C-55.3863385 419.38160278 -54.75880676 420.45305542 -54.11225891 421.55697632 C-53.12358826 423.25793457 -53.12358826 423.25793457 -52.11494446 424.99325562 C-50.07816281 428.49705457 -48.03303322 431.9959201 -45.98725891 435.49447632 C-44.76185191 437.59334908 -43.53658573 439.69230406 -42.31147766 441.79135132 C-40.55779738 444.79575773 -38.80383872 447.79999674 -37.04829407 450.80331421 C-32.82568967 458.03397271 -28.66216809 465.29670599 -24.51899719 472.5730896 C-20.77820488 479.13335148 -16.98617243 485.66252299 -13.17475891 492.18197632 C-6.36367909 503.83258185 0.38547778 515.51819605 7.12162781 527.21224976 C10.24954257 532.64107574 13.38132557 538.06766913 16.51274109 543.49447632 C17.76275988 545.66113214 19.01275987 547.82779881 20.26274109 549.99447632 C20.88149109 551.06697632 21.50024109 552.13947632 22.13774109 553.24447632 C27.76274109 562.99447632 27.76274109 562.99447632 29.63798523 566.2449646 C30.88709627 568.41004702 32.13628238 570.57508614 33.38554382 572.74008179 C36.52476418 578.18063338 39.66264672 583.62194848 42.79789734 589.06478882 C49.48248016 600.66595262 56.19685395 612.24864257 62.95439148 623.8074646 C67.17353279 631.03328857 71.3348861 638.29045078 75.47441101 645.56210327 C79.27700814 652.23190267 83.13633376 658.86734327 87.01274109 665.49447632 C91.87766514 673.81158447 96.68950665 682.15633138 101.45610046 690.53012085 C106.01351275 698.52384635 110.64777966 706.47202581 115.29399109 714.41439819 C116.38562055 716.28052864 117.47542572 718.14772796 118.56303406 720.01620483 C119.46862542 721.56431159 120.38290843 723.1074049 121.31010437 724.64266968 C124.02609299 729.19405856 124.02609299 729.19405856 123.88774109 732.30697632 C123.01274109 734.49447632 123.01274109 734.49447632 121.01274109 736.49447632 C118.86246872 736.75453854 118.86246872 736.75453854 116.14305115 736.76863098 C115.11403183 736.77860611 114.08501251 736.78858124 113.02481079 736.79885864 C111.89128677 736.79952332 110.75776276 736.80018799 109.58988953 736.8008728 C108.39954605 736.80919632 107.20920258 736.81751984 105.98278809 736.82609558 C102.71191529 736.84610655 99.44119013 736.85684477 96.17026424 736.86192203 C94.12624181 736.86556272 92.08224397 736.8718014 90.0382309 736.87892342 C82.90553713 736.90343484 75.77291622 736.91647251 68.6401825 736.92001343 C61.99515921 736.92364543 55.35059875 736.95351171 48.70571685 736.99541801 C42.99945678 737.03014093 37.29334985 737.04556224 31.58698487 737.04625946 C28.17949304 737.04705191 24.77247196 737.05577365 21.36508942 737.08425713 C17.56070641 737.11108688 13.75759982 737.10636902 9.95317078 737.09384155 C8.82774368 737.10867584 7.70231659 737.12351013 6.54278564 737.13879395 C-1.97545402 737.05884667 -1.97545402 737.05884667 -5.61305237 734.1293335 C-8.03856624 731.43753625 -9.82836062 728.89404345 -11.58100891 725.72494507 C-12.21144104 724.60136597 -12.84187317 723.47778687 -13.4914093 722.32015991 C-14.15672408 721.10744937 -14.82200647 719.89472106 -15.48725891 718.68197632 C-16.19214992 717.41898254 -16.89847088 716.15678586 -17.6061554 714.89535522 C-18.68816261 712.96630985 -19.76929664 711.03683489 -20.8460083 709.10482788 C-24.16750128 703.14599761 -27.59532037 697.25216014 -31.04975891 691.36947632 C-39.0586424 677.68464785 -46.96902264 663.94344914 -54.88276672 650.20346069 C-61.55682203 638.61765866 -68.24189975 627.03894279 -74.98725891 615.49447632 C-83.00993402 601.76392444 -90.9458415 587.98369666 -98.88276672 574.20346069 C-105.55682203 562.61765866 -112.24189975 551.03894279 -118.98725891 539.49447632 C-125.73427085 527.94718116 -132.42065209 516.36545604 -139.09614563 504.77670288 C-142.22406037 499.34787693 -145.35579622 493.92125625 -148.48725891 488.49447632 C-152.2508981 481.97214357 -156.01370513 475.4493387 -159.77241516 468.92416382 C-161.03142842 466.7392096 -162.29054265 464.55431355 -163.54975891 462.36947632 C-164.16746155 461.29762085 -164.78516418 460.22576538 -165.42158508 459.12142944 C-169.09658006 452.75124546 -172.79447598 446.39505189 -176.51167297 440.04940796 C-178.81065141 436.12162025 -181.10063991 432.18867862 -183.38569641 428.2527771 C-184.43824883 426.44001228 -185.49287548 424.62844995 -186.54975891 422.81820679 C-187.9785809 420.3628841 -189.39158385 417.8991836 -190.79975891 415.43197632 C-191.21459534 414.72428101 -191.62943176 414.01658569 -192.05683899 413.28744507 C-192.43219788 412.62228882 -192.80755676 411.95713257 -193.19429016 411.27182007 C-193.51889221 410.70713013 -193.84349426 410.14244019 -194.17793274 409.56063843 C-194.98725891 407.49447632 -194.98725891 407.49447632 -195.98725891 400.49447632 C-215.12725891 400.49447632 -234.26725891 400.49447632 -253.98725891 400.49447632 C-253.98725891 389.06703875 -248.81922492 381.03733454 -243.11225891 371.36947632 C-242.10373089 369.64141369 -241.09520458 367.91335007 -240.08680725 366.18521118 C-239.05777052 364.4245045 -238.02552701 362.66571975 -236.99214172 360.90756226 C-234.55101327 356.75181753 -232.12300832 352.58851048 -229.695755 348.4246521 C-228.55113962 346.46156638 -227.40562285 344.49900596 -226.25923157 342.53695679 C-221.97595824 335.20432927 -217.72584503 327.8530114 -213.48725891 320.49447632 C-208.67874047 312.14649173 -203.84820208 303.81204448 -198.98725891 295.49447632 C-191.60310998 282.85704178 -184.29235756 270.17772333 -176.98725891 257.49447632 C-169.11145167 243.82035452 -161.21870045 230.15710658 -153.25654602 216.53305054 C-148.97480974 209.20135153 -144.72505884 201.85164651 -140.48725891 194.49447632 C-135.67874047 186.14649173 -130.84820208 177.81204448 -125.98725891 169.49447632 C-118.60310998 156.85704178 -111.29235756 144.17772333 -103.98725891 131.49447632 C-96.11145167 117.82035452 -88.21870045 104.15710658 -80.25654602 90.53305054 C-75.97480902 83.20135029 -71.72524631 75.8515394 -67.48725891 68.49447632 C-60.91474778 57.09011133 -54.32171006 45.69839125 -47.65718079 34.34750366 C-45.99184174 31.50230598 -44.34086591 28.64909278 -42.69038391 25.79525757 C-41.64414841 24.00712283 -40.59730277 22.2193449 -39.54975891 20.43197632 C-39.08996643 19.62905151 -38.63017395 18.82612671 -38.15644836 17.99887085 C-28.67509096 1.95191727 -17.64847827 -0.10997059 0 0 Z " fill="#3E89DC" transform="translate(306.9872589111328,111.50552368164063)"/>
<path d="M0 0 C19.14 0 38.28 0 58 0 C58.99 2.97 59.98 5.94 61 9 C62.37863955 11.75457058 63.77879722 14.40048116 65.3125 17.0625 C65.74344971 17.82433594 66.17439941 18.58617187 66.6184082 19.37109375 C71.43393805 27.8462909 76.3703769 36.25308096 81.296875 44.6640625 C85.03634589 51.05281992 88.74125034 57.46116076 92.4375 63.875 C93.05971436 64.95458984 93.68192871 66.03417969 94.32299805 67.14648438 C95.58511517 69.3368252 96.84707785 71.52725502 98.10888672 73.71777344 C101.23680146 79.14659938 104.36853731 84.57322007 107.5 90 C111.26363919 96.52233275 115.02644622 103.04513762 118.78515625 109.5703125 C124.83055159 120.06232094 130.89110219 130.54481676 137 141 C143.74701194 152.54729516 150.43339318 164.12902027 157.10888672 175.71777344 C160.23680146 181.14659938 163.36853731 186.57322007 166.5 192 C170.26363919 198.52233275 174.02644622 205.04513762 177.78515625 211.5703125 C183.83055159 222.06232094 189.89110219 232.54481676 196 243 C200.8366792 251.27782177 205.64854789 259.56947168 210.4375 267.875 C211.06011719 268.95450928 211.68273437 270.03401855 212.32421875 271.14624023 C215.47318381 276.60853978 218.6168792 282.07380436 221.75390625 287.54296875 C228.16622269 298.71278336 234.62569462 309.85482259 241.1875 320.9375 C241.81140625 322.00427979 242.4353125 323.07105957 243.078125 324.17016602 C243.66464844 325.15428467 244.25117188 326.13840332 244.85546875 327.15234375 C245.36746826 328.01851318 245.87946777 328.88468262 246.40698242 329.77709961 C248.12052043 332.16817448 249.50813366 333.4470521 252 335 C254.45096951 335.44477229 254.45096951 335.44477229 257.13711548 335.3742218 C258.69343941 335.38474327 258.69343941 335.38474327 260.28120422 335.39547729 C261.98013069 335.38401169 261.98013069 335.38401169 263.71337891 335.37231445 C264.91043961 335.37596512 266.10750031 335.37961578 267.34083557 335.38337708 C270.61968762 335.39009278 273.89816915 335.38337173 277.17699099 335.37004495 C280.60736413 335.35872453 284.03772268 335.36283828 287.46810913 335.36479187 C293.22651048 335.36567442 298.984794 335.35460065 304.74316406 335.33618164 C311.40519688 335.31499446 318.06705735 335.3115086 324.72911704 335.3177436 C331.13530548 335.32343257 337.54143309 335.31779843 343.94761276 335.30657005 C346.67565406 335.3019199 349.40365823 335.30105197 352.13170242 335.3031559 C355.93637363 335.30352501 359.74077876 335.29095003 363.54541016 335.2746582 C365.25040932 335.27837433 365.25040932 335.27837433 366.98985291 335.28216553 C368.02176254 335.27508072 369.05367218 335.26799591 370.11685181 335.26069641 C371.46685996 335.25761711 371.46685996 335.25761711 372.84414101 335.25447559 C375.21232005 335.2005738 375.21232005 335.2005738 377 333 C376.68483011 328.6612241 375.48379693 325.60084343 373.26171875 321.90234375 C372.69517578 320.94714844 372.12863281 319.99195313 371.54492188 319.0078125 C370.93197266 317.99460937 370.31902344 316.98140625 369.6875 315.9375 C368.39885616 313.77005624 367.1111109 311.60207801 365.82421875 309.43359375 C365.17759277 308.34933105 364.5309668 307.26506836 363.86474609 306.14794922 C361.18818567 301.62954518 358.59062382 297.06803796 356 292.5 C351.7157922 284.97089749 347.37368619 277.47745776 343 270 C338.15717391 261.7189456 333.3608526 253.41362823 328.61157227 245.07861328 C319.87912261 229.75898145 311.03360517 214.50388419 302.1940918 199.24584961 C298.37220777 192.6472099 294.56025816 186.04285851 290.75 179.4375 C290.11650635 178.33937988 289.4830127 177.24125977 288.83032227 176.10986328 C285.61841099 170.5415782 282.40784652 164.97252156 279.19921875 159.40234375 C272.58805527 147.92877063 265.95080258 136.47132674 259.26928711 125.03857422 C254.34866342 116.61289607 249.47275343 108.16185401 244.60327148 99.70654297 C240.44874148 92.49748005 236.26437068 85.30655259 232.0625 78.125 C226.32966012 68.32115408 220.68004297 58.4710255 215.05566406 48.60473633 C209.72415431 39.2540124 204.35285669 29.92685597 198.95922852 20.61181641 C197.30083709 17.74423419 195.65011657 14.87234867 194 12 C193.49388184 11.13294434 192.98776367 10.26588867 192.46630859 9.37255859 C192.00691895 8.57285645 191.5475293 7.7731543 191.07421875 6.94921875 C190.67162842 6.25530029 190.26903809 5.56138184 189.85424805 4.84643555 C189 3 189 3 189 0 C278.43 0 367.86 0 460 0 C464.62 8.25 469.24 16.5 474 25 C479.80527626 35.20506458 485.64440382 45.38879786 491.51855469 55.55419922 C497.49747589 65.90092773 503.43462383 76.26875365 509.30322266 86.6784668 C512.7877858 92.85884669 516.28989859 99.02872083 519.8125 105.1875 C520.53626831 106.45315796 520.53626831 106.45315796 521.2746582 107.74438477 C523.46701881 111.57665247 525.6608128 115.40809559 527.85595703 119.23876953 C535.03979186 131.77603745 542.20409412 144.32196394 549.25 156.9375 C556.59418414 170.08670496 564.04602637 183.17133087 571.58984375 196.20703125 C580.78816144 212.10373373 589.81464301 228.0884662 598.74560547 244.13671875 C605.62404932 256.49297492 612.58995895 268.78526908 619.75 280.98071289 C623.92266025 288.1053207 627.98488552 295.28557772 632 302.5 C639.38958661 315.77421448 647.04325884 328.88862668 654.75439453 341.97802734 C658.09297536 347.66560692 661.33508558 353.39064562 664.47265625 359.19140625 C667.26330244 364.32305487 670.13833009 369.40772713 673 374.5 C677.38623461 382.30519914 681.73241939 390.12920573 686 398 C682.32649335 400.35326975 678.79020691 400.28304791 674.57039452 400.26006222 C673.81576044 400.26386789 673.06112636 400.26767356 672.28362459 400.27159455 C669.7404771 400.28194782 667.19755127 400.27799731 664.65438843 400.27415466 C662.81839995 400.27860506 660.98241338 400.28391845 659.14642966 400.29002339 C654.08965655 400.30423795 649.0329448 400.30586602 643.97615457 400.30542648 C638.52675361 400.30707167 633.07737817 400.32013269 627.62799072 400.33161926 C615.70644911 400.35449255 603.78492527 400.36239252 591.8633647 400.36744571 C584.42114083 400.37070032 576.97892214 400.37722141 569.5367012 400.3844471 C548.93648889 400.40401683 528.3362814 400.4204186 507.73605919 400.42332363 C505.75771142 400.42360499 505.75771142 400.42360499 503.73939703 400.42389202 C501.73510336 400.42416836 499.73080968 400.42444111 497.72651601 400.42471164 C495.7162776 400.42498336 493.70603919 400.42526004 491.69580078 400.42553711 C491.03154008 400.42562513 490.36727937 400.42571315 489.68288955 400.42580384 C468.81735994 400.42870847 447.95192301 400.45079585 427.08642578 400.48706055 C403.64657987 400.52779843 380.20678623 400.55146271 356.76690161 400.55178314 C344.35535814 400.55236807 331.94393392 400.5608824 319.53242111 400.58978081 C308.96331143 400.61427593 298.39436449 400.62159022 287.8252341 400.60653328 C282.43258877 400.59935655 277.04026492 400.60025496 271.64765549 400.62294388 C266.70893818 400.64352394 261.77078973 400.64094232 256.83207865 400.62006903 C255.04737105 400.61657228 253.2626225 400.62149198 251.47796862 400.63577347 C239.98123603 400.72183012 231.26737564 399.78280112 222.3125 391.92578125 C218.00158762 387.24849168 215.06585866 381.72188641 212 376.1875 C211.0145739 374.44405382 210.02913004 372.70061738 209.04260254 370.95779419 C208.02627078 369.15915686 207.01476947 367.35786773 206.00390625 365.55615234 C202.88565251 360.00888152 199.68842294 354.50712357 196.5 349 C195.2509209 346.8361575 194.00222407 344.67209428 192.75390625 342.5078125 C192.13531738 341.43563477 191.51672852 340.36345703 190.87939453 339.25878906 C188.99019834 335.98300434 187.10235891 332.70644107 185.21484375 329.4296875 C179.16944841 318.93767906 173.10889781 308.45518324 167 298 C158.97732489 284.26944812 151.04141741 270.48922034 143.10449219 256.70898438 C135.85966952 244.1323608 128.5926719 231.56963043 121.26928711 219.03857422 C116.34948718 210.61430661 111.47477862 202.16446104 106.60546875 193.7109375 C102.42650842 186.46048459 98.22252011 179.22516137 94 172 C85.97718322 158.26953183 78.04141672 144.48921914 70.10449219 130.70898438 C62.85966952 118.1323608 55.5926719 105.56963043 48.26928711 93.03857422 C43.35164118 84.61799495 38.47872892 76.17204102 33.61206055 67.72192383 C29.370636 60.36230654 25.09955193 53.02061515 20.8125 45.6875 C18.53977095 41.79276957 16.26956369 37.89657559 14 34 C13.42491699 33.01435059 12.84983398 32.02870117 12.25732422 31.01318359 C10.5822335 28.13720932 8.91502824 25.25680888 7.25 22.375 C6.74831299 21.51608154 6.24662598 20.65716309 5.72973633 19.7722168 C1.72311539 12.80791261 0 8.28528823 0 0 Z " fill="#2667B7" transform="translate(53,512)"/>
<path d="M0 0 C1.03610413 -0.00701431 2.07220825 -0.01402863 3.13970947 -0.02125549 C4.27075607 -0.01361176 5.40180267 -0.00596802 6.56712341 0.00190735 C7.76257782 -0.00174332 8.95803223 -0.00539398 10.18971252 -0.00915527 C13.46449977 -0.01587131 16.73891607 -0.00914889 20.01367307 0.00417686 C23.440909 0.01549921 26.86813037 0.01138331 30.29537964 0.00942993 C36.04958485 0.00854732 41.80367217 0.01962136 47.55784607 0.03804016 C54.21190654 0.05921739 60.86579444 0.06271535 67.51988178 0.0564782 C73.92072744 0.05078549 80.32151228 0.05642845 86.72234917 0.06765175 C89.44677288 0.07229795 92.17115941 0.07317151 94.89558601 0.0710659 C98.69765848 0.07069634 102.49946567 0.08328489 106.30149841 0.0995636 C107.43456924 0.09708618 108.56764008 0.09460876 109.73504639 0.09205627 C111.28497284 0.10268349 111.28497284 0.10268349 112.86621094 0.11352539 C114.2148364 0.1166047 114.2148364 0.1166047 115.59070683 0.11974621 C117.86961365 0.3742218 117.86961365 0.3742218 120.86961365 2.3742218 C121.40957633 6.80667113 120.66349596 9.45933326 118.36961365 13.2257843 C117.82055359 14.14472473 117.27149353 15.06366516 116.70579529 16.01045227 C116.09985535 16.99674622 115.49391541 17.98304016 114.86961365 18.9992218 C113.57516555 21.15979451 112.28225747 23.32129046 110.9907074 25.4835968 C110.31249939 26.61217102 109.63429138 27.74074524 108.93553162 28.90351868 C105.85551494 34.05446539 102.8949177 39.27415871 99.93058777 44.49220276 C98.25130997 47.44723485 96.56618094 50.398926 94.8813324 53.3507843 C94.54764648 53.93560577 94.21396057 54.52042725 93.87016296 55.12297058 C85.63785884 69.5448476 77.31548494 83.91471386 68.93211365 98.2492218 C63.19218172 108.06566687 57.53638085 117.92887575 51.90330505 127.80683899 C45.55037469 138.94574685 39.14414734 150.0535476 32.72850037 161.15644836 C29.6063676 166.56092826 26.48820161 171.96769592 23.36961365 177.3742218 C22.11963243 179.54089931 20.86963244 181.70756598 19.61961365 183.8742218 C19.00086365 184.9467218 18.38211365 186.0192218 17.74461365 187.1242218 C5.86961365 207.70755514 -6.00538635 228.29088847 -17.88038635 248.8742218 C-18.49921692 249.94688293 -19.11804749 251.01954407 -19.75563049 252.12471008 C-21.00474153 254.28979251 -22.25392765 256.45483162 -23.50318909 258.61982727 C-26.64240945 264.06037886 -29.78029198 269.50169396 -32.9155426 274.9445343 C-38.50769157 284.64980947 -44.10662213 294.35065944 -49.75660706 304.02241516 C-50.94713567 306.0611894 -52.13583076 308.10103562 -53.32252502 310.14204407 C-55.77656251 314.36139728 -58.23865148 318.5717088 -60.7827301 322.73750305 C-61.16566223 323.37526672 -61.54859436 324.0130304 -61.94313049 324.67012024 C-62.90931228 326.27694428 -63.89015328 327.8749308 -64.87257385 329.47187805 C-66.51581985 333.26359165 -66.74664556 335.25035024 -66.13038635 339.3742218 C-64.41263542 343.21153232 -62.28729096 346.76983433 -60.13038635 350.3742218 C-59.01509464 352.32229091 -57.90184387 354.27152979 -56.7905426 356.22187805 C-55.59263809 358.29425286 -54.39336298 360.36583589 -53.19288635 362.4367218 C-52.20031935 364.15303558 -51.20775448 365.86935059 -50.21531677 367.58573914 C-49.19408128 369.35156623 -48.17228376 371.11706717 -47.15040588 372.88252258 C-43.97118646 378.37636162 -40.80135706 383.87561922 -37.63038635 389.3742218 C-36.38042867 391.54091288 -35.13042857 393.70757949 -33.88038635 395.8742218 C-11.38038635 434.87422181 -11.38038635 434.87422181 -9.50514221 438.12471008 C-8.25603117 440.28979251 -7.00684506 442.45483162 -5.75758362 444.61982727 C-2.61836326 450.06037886 0.51951928 455.50169396 3.6547699 460.9445343 C9.70016523 471.43654274 15.76071583 481.91903856 21.86961365 492.3742218 C28.6123196 503.91414739 35.29423889 515.48857701 41.96531677 527.07002258 C43.88468027 530.40036432 45.80643718 533.72931328 47.72898865 537.05781555 C53.54651926 547.13074153 59.3554251 557.208158 65.11961365 567.3117218 C72.34665059 579.97724433 79.65788978 592.59265657 87.0153656 605.18281555 C92.56512609 614.68070242 98.07526111 624.1988959 103.52146912 633.75654602 C106.97066182 639.80802625 110.44212927 645.84617295 113.93211365 651.8742218 C114.38546082 652.6577301 114.83880798 653.4412384 115.30589294 654.24848938 C115.73039734 654.98091858 116.15490173 655.71334778 116.5922699 656.4679718 C116.98535339 657.14819397 117.37843689 657.82841614 117.78343201 658.5292511 C118.7191443 660.11863698 119.70041556 661.68104112 120.68992615 663.23750305 C121.86961365 665.3742218 121.86961365 665.3742218 121.68211365 668.0617218 C120.86961365 670.3742218 120.86961365 670.3742218 118.86961365 672.3742218 C116.71934128 672.63428402 116.71934128 672.63428402 113.99992371 672.64837646 C112.97090439 672.65835159 111.94188507 672.66832672 110.88168335 672.67860413 C109.74815933 672.6792688 108.61463531 672.67993347 107.44676208 672.68061829 C106.25641861 672.6889418 105.06607513 672.69726532 103.83966064 672.70584106 C100.56878785 672.72585203 97.29806269 672.73659025 94.0271368 672.74166751 C91.98311437 672.7453082 89.93911653 672.75154688 87.89510345 672.7586689 C80.76240969 672.78318033 73.62978878 672.79621799 66.49705505 672.79975891 C59.85203177 672.80339091 53.20747131 672.8332572 46.56258941 672.8751635 C40.85632934 672.90988642 35.15022241 672.92530773 29.44385743 672.92600495 C26.0363656 672.9267974 22.62934452 672.93551913 19.22196198 672.96400261 C15.41757897 672.99083237 11.61447238 672.9861145 7.81004333 672.97358704 C6.68461624 672.98842133 5.55918915 673.00325562 4.3996582 673.01853943 C-4.11858147 672.93859216 -4.11858147 672.93859216 -7.75617981 670.00907898 C-10.18169368 667.31728173 -11.97148806 664.77378893 -13.72413635 661.60469055 C-14.35456848 660.48111145 -14.98500061 659.35753235 -15.63453674 658.1999054 C-16.29985152 656.98719485 -16.96513391 655.77446654 -17.63038635 654.5617218 C-18.33527736 653.29872802 -19.04159832 652.03653134 -19.74928284 650.77510071 C-20.83129005 648.84605534 -21.91242408 646.91658037 -22.98913574 644.98457336 C-26.31062872 639.02574309 -29.73844781 633.13190562 -33.19288635 627.2492218 C-41.20176984 613.56439334 -49.11215008 599.82319462 -57.02589417 586.08320618 C-63.69994947 574.49740414 -70.3850272 562.91868828 -77.13038635 551.3742218 C-85.15306146 537.64366992 -93.08896894 523.86344214 -101.02589417 510.08320618 C-107.69994947 498.49740414 -114.3850272 486.91868828 -121.13038635 475.3742218 C-127.87739829 463.82692664 -134.56377953 452.24520153 -141.23927307 440.65644836 C-144.36718781 435.22762242 -147.49892366 429.80100173 -150.63038635 424.3742218 C-154.39402555 417.85188906 -158.15683257 411.32908418 -161.9155426 404.8039093 C-163.17455586 402.61895508 -164.43367009 400.43405903 -165.69288635 398.2492218 C-166.31058899 397.17736633 -166.92829163 396.10551086 -167.56471252 395.00117493 C-171.23988258 388.63068747 -174.93851405 382.27451293 -178.65480042 375.92793274 C-198.27217817 342.42518002 -198.27217817 342.42518002 -198.38038635 337.2492218 C-198.4061676 336.52476868 -198.43194885 335.80031555 -198.45851135 335.0539093 C-197.47689679 327.03739039 -192.94208751 320.28831303 -188.88038635 313.4992218 C-187.61278123 311.35378894 -186.34587783 309.20794134 -185.0796051 307.0617218 C-184.42653381 305.9582843 -183.77346252 304.8548468 -183.1006012 303.7179718 C-179.92767602 298.33304204 -176.81023432 292.91645431 -173.69288635 287.4992218 C-172.43382156 285.31429728 -171.17470672 283.12940159 -169.9155426 280.9445343 C-168.97799133 279.31693176 -168.97799133 279.31693176 -168.02149963 277.65644836 C-164.89358487 272.22762238 -161.76180187 266.80102899 -158.63038635 261.3742218 C-157.38036756 259.20756598 -156.13036757 257.04089931 -154.88038635 254.8742218 C-152.38038635 250.54088847 -149.88038635 246.20755514 -147.38038635 241.8742218 C-146.76155579 240.80156067 -146.14272522 239.72889954 -145.50514221 238.62373352 C-144.25603117 236.4586511 -143.00684506 234.29361198 -141.75758362 232.12861633 C-138.61836326 226.68806474 -135.48048072 221.24674964 -132.3452301 215.8039093 C-125.72815744 204.3197336 -119.08404658 192.85225287 -112.3974762 181.40840149 C-106.23119582 170.84801898 -100.12542686 160.25295414 -94.02149963 149.65644836 C-90.89358487 144.22762238 -87.76180187 138.80102899 -84.63038635 133.3742218 C-83.38036756 131.20756598 -82.13036757 129.04089931 -80.88038635 126.8742218 C-77.13038635 120.3742218 -77.13038635 120.3742218 -73.38038635 113.8742218 C-72.76155579 112.80156067 -72.14272522 111.72889954 -71.50514221 110.62373352 C-70.25603117 108.4586511 -69.00684506 106.29361198 -67.75758362 104.12861633 C-64.61836326 98.68806474 -61.48048072 93.24674964 -58.3452301 87.8039093 C-51.73274228 76.32769077 -45.0953219 64.86691181 -38.41065979 53.43257141 C-34.67353857 47.03504614 -30.96324907 40.62262443 -27.26832581 34.20063782 C-24.77944527 29.87617284 -22.28408279 25.55548446 -19.78565979 21.23652649 C-18.74294986 19.43346879 -17.7017233 17.62955165 -16.66261292 15.82441711 C-15.43127307 13.69003475 -14.18946282 11.56222947 -12.94288635 9.4367218 C-12.28933167 8.31394836 -11.63577698 7.19117493 -10.9624176 6.03437805 C-7.88398707 1.56441816 -5.4410915 -0.00101472 0 0 Z " fill="#E6E7E7" transform="translate(309.13038635253906,175.6257781982422)"/>
<path d="M0 0 C4.75795036 1.8368177 6.02817223 5.2028875 8.32421875 9.5859375 C9.2859137 11.33363313 10.24816876 13.08102066 11.2109375 14.828125 C11.6961084 15.72499023 12.1812793 16.62185547 12.68115234 17.54589844 C14.92102863 21.64695337 17.28022005 25.67616632 19.63671875 29.7109375 C20.55404724 31.29388749 21.47071194 32.87722233 22.38671875 34.4609375 C22.84046875 35.2446875 23.29421875 36.0284375 23.76171875 36.8359375 C38.88671875 62.9609375 38.88671875 62.9609375 40.26098633 65.3347168 C41.1800431 66.92214884 42.09915139 68.50955106 43.01831055 70.09692383 C45.27382646 73.99230715 47.52852102 77.88816047 49.78125 81.78515625 C54.79698103 90.45934451 59.83276107 99.12146126 64.88671875 107.7734375 C70.46587964 117.32555588 76.00284563 126.90137905 81.52368164 136.48730469 C85.76541711 143.8474941 90.03618427 151.19013959 94.32421875 158.5234375 C99.13216852 166.74728031 103.88559292 174.99988182 108.59838867 183.27856445 C112.40098602 189.94836423 116.260341 196.58378684 120.13671875 203.2109375 C125.07751983 211.65855013 129.96700921 220.13318088 134.81298828 228.63549805 C138.02817187 234.27516744 141.25895632 239.90535366 144.51171875 245.5234375 C145.16769043 246.65676514 145.16769043 246.65676514 145.83691406 247.81298828 C148.47714361 252.36743171 151.13270953 256.91264067 153.796875 261.453125 C154.73684326 263.05740356 154.73684326 263.05740356 155.69580078 264.6940918 C156.91717861 266.77760934 158.14069591 268.85987469 159.36669922 270.94067383 C160.47849018 272.83779262 161.58053681 274.7406655 162.67138672 276.64990234 C163.56778619 278.2165852 164.48415933 279.77230838 165.43408203 281.30712891 C168.60486441 286.78747633 169.25083661 291.97377294 168.13671875 298.2109375 C166.51555838 302.37727657 164.33354521 306.08664285 162.01171875 309.8984375 C161.37935303 310.9800415 160.7469873 312.06164551 160.09545898 313.17602539 C158.77637862 315.42733651 157.44708597 317.67269362 156.10791016 319.91210938 C154.25418975 323.01434744 152.42941377 326.13119612 150.6171875 329.2578125 C148.32119814 333.21818929 146.01540177 337.17249193 143.69921875 341.12109375 C140.00458565 347.42664169 136.34819194 353.75388186 132.69921875 360.0859375 C131.76541382 361.70616821 131.76541382 361.70616821 130.81274414 363.35913086 C129.55095049 365.54890084 128.28931341 367.73876105 127.02783203 369.92871094 C123.89991725 375.35753695 120.76809909 380.78410999 117.63671875 386.2109375 C116.39062036 388.37109107 115.14452661 390.53124733 113.8984375 392.69140625 C111.36055882 397.09052825 108.82135292 401.48888071 106.28125 405.88671875 C100.52363653 415.85741633 94.77449982 425.83233491 89.07421875 435.8359375 C84.28914978 444.23026063 79.43258683 452.58133397 74.55615234 460.92285156 C67.69980477 472.65678119 60.9195712 484.43442398 54.13671875 496.2109375 C46.26680955 509.87481901 38.38116184 523.52855259 30.42358398 537.14160156 C27.31341662 542.46627151 24.2157052 547.79786274 21.13671875 553.140625 C20.8018042 553.72177063 20.46688965 554.30291626 20.12182617 554.90167236 C18.50797989 557.70304933 16.89574986 560.50534538 15.28515625 563.30859375 C12.48904103 568.16792174 9.67991301 573.01914789 6.82421875 577.84375 C6.11845703 579.03701904 6.11845703 579.03701904 5.3984375 580.25439453 C4.13671875 582.2109375 4.13671875 582.2109375 2.13671875 584.2109375 C-0.23828125 584.6484375 -0.23828125 584.6484375 -2.86328125 584.2109375 C-5.67291481 581.07652888 -7.80482189 577.77825801 -9.82421875 574.09765625 C-10.6440625 572.61555664 -10.6440625 572.61555664 -11.48046875 571.10351562 C-12.06054688 570.04583984 -12.640625 568.98816406 -13.23828125 567.8984375 C-18.01401173 559.27503341 -22.8667965 550.70835093 -27.86328125 542.2109375 C-33.26945534 533.00226954 -38.5333137 523.72225495 -43.73193359 514.39501953 C-48.54279595 505.76596922 -53.42649468 497.18040092 -58.33984375 488.609375 C-58.98034668 487.48160645 -58.98034668 487.48160645 -59.63378906 486.33105469 C-60.42468894 484.96723925 -61.2401227 483.61720889 -62.08496094 482.28613281 C-64.55272314 478.33035974 -65.27138347 475.83609596 -64.86328125 471.2109375 C-63.72436523 468.55566406 -63.72436523 468.55566406 -62.109375 465.8515625 C-61.21025391 464.32208984 -61.21025391 464.32208984 -60.29296875 462.76171875 C-59.63554688 461.67246094 -58.978125 460.58320312 -58.30078125 459.4609375 C-57.61580708 458.30420174 -56.9322374 457.14663326 -56.25 455.98828125 C-54.83207783 453.58332667 -53.40818946 451.18206191 -51.97998047 448.78320312 C-48.71751536 443.29208338 -45.54517132 437.74898659 -42.36328125 432.2109375 C-41.11370467 430.04402661 -39.86370325 427.87736065 -38.61328125 425.7109375 C-37.68515625 424.1021875 -37.68515625 424.1021875 -36.73828125 422.4609375 C-24.86328125 401.87760417 -12.98828125 381.29427083 -1.11328125 360.7109375 C-0.49420898 359.63787354 0.12486328 358.56480957 0.76269531 357.45922852 C2.00942131 355.29824762 3.25616602 353.13727752 4.50292969 350.97631836 C7.67817758 345.47274899 10.8530737 339.96897718 14.02734375 334.46484375 C14.66792725 333.3547998 15.30851074 332.24475586 15.96850586 331.10107422 C17.23456633 328.90476465 18.49844758 326.70719725 19.76000977 324.50830078 C22.62772309 319.51662404 25.52193764 314.54930575 28.5234375 309.63671875 C29.04131836 308.77812256 29.55919922 307.91952637 30.09277344 307.03491211 C31.04366419 305.46299629 32.00808083 303.89913891 32.98925781 302.34594727 C35.82543518 297.62498921 37.3443311 293.7262612 36.13671875 288.2109375 C34.92086292 285.21449814 33.29846261 282.56519642 31.57421875 279.8359375 C30.56135087 278.16215318 29.54970014 276.48763189 28.5390625 274.8125 C27.9910498 273.91563477 27.44303711 273.01876953 26.87841797 272.09472656 C23.71116084 266.85059407 20.68508571 261.52473631 17.63671875 256.2109375 C16.35088906 253.98010629 15.06443844 251.74963285 13.77734375 249.51953125 C13.15923828 248.44815918 12.54113281 247.37678711 11.90429688 246.27294922 C8.09212902 239.66905291 4.26998865 233.07093454 0.44726562 226.47314453 C-1.36205227 223.34998142 -3.17043213 220.22627562 -4.97875977 217.10253906 C-5.90104609 215.50939555 -6.82340925 213.91629652 -7.74584961 212.32324219 C-10.00105266 208.42843585 -12.25541187 204.53314651 -14.5078125 200.63671875 C-18.99263159 192.88084297 -23.49033724 185.13286613 -28.01123047 177.39794922 C-33.56266867 167.89915824 -39.07423269 158.37987133 -44.51953125 148.81982422 C-48.35422193 142.08978745 -52.2269074 135.38245284 -56.1237793 128.68823242 C-56.95797831 127.2524584 -57.78777197 125.81411432 -58.61279297 124.37304688 C-59.48603836 122.86319502 -60.38006637 121.36525695 -61.28955078 119.87695312 C-61.7482959 119.10544922 -62.20704102 118.33394531 -62.6796875 117.5390625 C-63.09806885 116.85231445 -63.5164502 116.16556641 -63.94750977 115.45800781 C-65.58312322 111.44462837 -65.34116882 108.34931288 -63.67675781 104.38452148 C-63.1247168 103.41844971 -62.57267578 102.45237793 -62.00390625 101.45703125 C-61.08170288 99.82133179 -61.08170288 99.82133179 -60.14086914 98.15258789 C-59.46527667 96.98438148 -58.78940719 95.81633523 -58.11328125 94.6484375 C-57.42001828 93.42959388 -56.7278923 92.2101029 -56.03686523 90.98999023 C-54.64308236 88.53429494 -53.24202088 86.08301154 -51.83349609 83.63574219 C-50.1324756 80.67887533 -48.44178177 77.71659532 -46.7578125 74.75 C-44.34575825 70.50663233 -41.91829717 66.27229867 -39.48681641 62.04003906 C-37.03161808 57.76171752 -34.58547527 53.4782289 -32.13916016 49.19482422 C-30.792255 46.8364594 -29.44422547 44.4787431 -28.09521484 42.12158203 C-24.88865175 36.51716865 -21.68886456 30.90919071 -18.51187134 25.28794861 C-17.0470274 22.69693188 -15.57864493 20.10792885 -14.10998535 17.51907349 C-13.40907183 16.28120625 -12.70990633 15.04234746 -12.01257324 13.80245972 C-11.04404479 12.08066063 -10.06903831 10.36251034 -9.09375 8.64453125 C-8.26460083 7.17584595 -8.26460083 7.17584595 -7.41870117 5.67749023 C-4.02545765 0.29655486 -4.02545765 0.29655486 0 0 Z " fill="#E3E3E3" transform="translate(745.86328125,219.7890625)"/>
</svg>
