<svg xmlns="http://www.w3.org/2000/svg" viewBox="0 0 1024 1024"><path fill="#0d4fb2" d="M306.947 111.485q2.76-.008 5.52-.02c5.046-.02 10.092-.013 15.137-.003 5.446.007 10.892-.009 16.338-.022 10.664-.021 21.328-.021 31.993-.013q13 .008 26.003-.001l3.738-.003 7.519-.006c22.832-.016 45.663-.008 68.495.008q31.249.021 62.498-.022a39576 39576 0 0 1 81.464-.032q12.984.002 25.968-.022a8290 8290 0 0 1 31.652.005c5.383.012 10.765.015 16.148-.004q7.393-.024 14.787.014 2.671.008 5.343-.011c11.458-.077 20.135.887 29.102 8.65 4.6 4.99 7.664 11.024 10.91 16.935q1.05 1.88 2.106 3.759 1.611 2.87 3.217 5.744c3.314 5.94 6.733 11.818 10.177 17.684A4072 4072 0 0 1 789.5 189a4588 4588 0 0 0 14.5 25c8.023 13.73 15.959 27.51 23.896 41.291a6958 6958 0 0 0 21.835 37.67c4.92 8.425 9.794 16.875 14.664 25.328Q870.664 329.163 877 340c8.023 13.73 15.959 27.51 23.896 41.291a6958 6958 0 0 0 21.835 37.67c4.917 8.421 9.79 16.867 14.657 25.317a4102 4102 0 0 0 12.8 22.035Q953.595 472.154 957 478l1.743 2.987q2.511 4.314 5.007 8.638l1.52 2.603c3.746 6.51 6.019 11.881 6.105 19.522l.086 3.422c-1.156 9.599-6.504 17.768-11.336 25.953l-3.025 5.184q-1.545 2.641-3.095 5.278c-2.441 4.156-4.87 8.319-7.297 12.483q-1.716 2.944-3.436 5.888A4188 4188 0 0 0 930.5 592a4594 4594 0 0 1-14.5 25c-7.384 12.637-14.695 25.317-22 38-7.876 13.674-15.769 27.337-23.73 40.961A4258 4258 0 0 0 857.5 718a4594 4594 0 0 1-14.5 25c-7.384 12.637-14.695 25.317-22 38-7.876 13.674-15.769 27.337-23.73 40.961A4276 4276 0 0 0 784.5 844c-6.573 11.404-13.166 22.796-19.83 34.147a1897 1897 0 0 0-4.967 8.552l-3.14 5.364-1.394 2.433C750.25 902.823 744.593 909.377 735 912c-5.983.587-11.94.545-17.947.515q-2.76.008-5.52.02c-5.046.02-10.092.013-15.137.003-5.446-.007-10.892.009-16.338.022-10.664.021-21.328.021-31.993.013q-13-.008-26.003.001l-3.738.003-7.519.006c-22.832.016-45.663.008-68.495-.008q-31.249-.021-62.498.022a39576 39576 0 0 1-81.464.032q-12.984-.002-25.968.022-15.827.027-31.652-.005c-5.383-.012-10.765-.015-16.148.004q-7.394.024-14.787-.014a537 537 0 0 0-5.343.011c-11.484.077-20.194-.873-29.138-8.721-4.31-4.678-7.246-10.204-10.312-15.738q-1.477-2.616-2.957-5.23-1.524-2.699-3.04-5.402c-3.117-5.547-6.315-11.049-9.503-16.556l-3.746-6.492-1.875-3.25q-2.834-4.913-5.664-9.828A5992 5992 0 0 0 220 810c-8.023-13.73-15.959-27.51-23.896-41.291a6958 6958 0 0 0-21.835-37.67 4893 4893 0 0 1-14.664-25.328A4171 4171 0 0 0 147 684c-8.023-13.73-15.959-27.51-23.896-41.291a6958 6958 0 0 0-21.835-37.67 4935 4935 0 0 1-14.657-25.317 4102 4102 0 0 0-12.8-22.034Q70.405 551.845 67 546l-1.743-2.987a2857 2857 0 0 1-5.007-8.638l-1.52-2.603c-3.746-6.51-6.019-11.881-6.105-19.522l-.086-3.422c1.156-9.599 6.504-17.768 11.336-25.953l3.025-5.184q1.545-2.641 3.095-5.278c2.441-4.156 4.87-8.319 7.297-12.483q1.716-2.944 3.436-5.888A4188 4188 0 0 0 93.5 432q7.212-12.523 14.5-25c7.384-12.637 14.695-25.317 22-38 7.876-13.674 15.769-27.337 23.73-40.961A4258 4258 0 0 0 166.5 306q7.212-12.523 14.5-25c7.384-12.637 14.695-25.317 22-38 7.876-13.674 15.769-27.337 23.73-40.961A4276 4276 0 0 0 239.5 180c6.573-11.404 13.166-22.796 19.83-34.147 1.665-2.845 3.316-5.698 4.967-8.552l3.14-5.363 1.394-2.434c9.469-16.026 20.487-18.108 38.116-18.019"/><path fill="#3e89dc" d="M306.987 111.506q2.768-.006 5.534-.015a2740 2740 0 0 1 15.171.015c5.458.014 10.916.004 16.374-.003 10.687-.01 21.373 0 32.06.02 12.439.02 24.878.02 37.318.019 22.86-.001 45.719.019 68.578.049a45691 45691 0 0 0 66.642.038h2.009q37.775 0 75.55.028 13.017.008 26.032.01 15.849 0 31.698.028 8.091.016 16.182.013 7.399-.003 14.797.02 2.685.004 5.368 0c2.422-.005 4.845.003 7.268.015l2.128-.013c3.604.031 6.236.304 9.304 2.27-4.617 8.947-9.525 17.694-14.625 26.375-6.721 11.443-13.22 23-19.681 34.592-7.791 13.951-15.713 27.829-23.655 41.695a2461 2461 0 0 0-14.164 25.088 1219 1219 0 0 1-13.812 24.125c-5.684 9.676-11.17 19.45-16.6 29.271-5.195 9.392-10.493 18.72-15.84 28.025-3.132 5.459-6.251 10.926-9.373 16.392l-4.102 7.18-1.036 1.814a10882 10882 0 0 1-6.181 10.802l-6.063 10.587a2540 2540 0 0 0-13.993 24.804c-5.068 9.094-10.272 18.1-15.546 27.075-4.475 7.642-8.8 15.36-13.079 23.113-4.385 7.94-8.821 15.832-13.467 23.623-4.377 7.372-8.534 14.868-12.7 22.361a247 247 0 0 1-3.36 5.853c-1.806 3.128-1.806 3.128-2.683 6.392-1.473 4.01-2.756 6.05-6.04 8.833-8.156 2.424-17.268 1.51-25.672 1.362q-4.005-.005-8.012.006c-5.75.006-11.496-.032-17.244-.1-8.31-.097-16.62-.128-24.932-.143a6246 6246 0 0 1-40.452-.22c-13.096-.11-26.192-.195-39.289-.246l-2.447-.01-12.156-.045C309.197 512.48 275.6 512.268 242 512a2771 2771 0 0 0 1.9 4.31l1.068 2.426c1.257 2.757 2.686 5.369 4.212 7.987l1.793 3.093 1.902 3.247 1.997 3.436A4734 4734 0 0 0 261 547l3.676 6.297q2.63 4.507 5.263 9.012a2288 2288 0 0 1 12.53 21.77c3.74 6.56 7.532 13.089 11.344 19.609 6.81 11.65 13.56 23.336 20.296 35.03q4.693 8.143 9.391 16.282l26.285 45.57a6376 6376 0 0 0 20.157 34.743c4.219 7.226 8.38 14.483 12.52 21.755A2074 2074 0 0 0 394 777a2454 2454 0 0 1 14.443 25.036c4.558 7.993 9.192 15.942 13.838 23.884q1.638 2.799 3.27 5.602 1.357 2.322 2.746 4.626c2.716 4.552 2.716 4.552 2.578 7.665C430 846 430 846 428 848c-2.15.26-2.15.26-4.87.274l-3.118.03-3.435.002-3.607.026q-4.906.029-9.812.035-3.066.006-6.133.017-10.698.037-21.398.042c-6.645.003-13.29.033-19.934.075q-8.559.051-17.119.05c-3.407.002-6.814.01-10.222.039-3.804.027-7.607.022-11.412.01l-3.41.044c-8.518-.08-8.518-.08-12.156-3.01-2.425-2.69-4.215-5.234-5.968-8.404l-1.91-3.404-1.996-3.638q-1.057-1.895-2.119-3.787a2419 2419 0 0 1-3.24-5.79c-3.321-5.96-6.75-11.853-10.203-17.736-8.01-13.685-15.92-27.426-23.834-41.166C245.43 750.123 238.745 738.544 232 727c-8.023-13.73-15.959-27.51-23.896-41.291C201.43 674.123 194.745 662.544 188 651c-6.747-11.547-13.433-23.129-20.109-34.718Q163.198 608.14 158.5 600a29898 29898 0 0 1-15.062-26.125l-1.872-3.248a3323 3323 0 0 0-11.09-19.072q-3.449-5.892-6.874-11.797a2630 2630 0 0 0-3.164-5.434 1016 1016 0 0 1-4.25-7.386l-1.258-2.145-1.137-2.016-.984-1.71C112 519 112 519 111 512H53c0-11.427 5.168-19.457 10.875-29.125l3.025-5.184q1.545-2.641 3.095-5.278c2.441-4.156 4.87-8.319 7.297-12.483l3.436-5.888A4188 4188 0 0 0 93.5 432q7.212-12.522 14.5-25c7.384-12.637 14.695-25.317 22-38 7.876-13.674 15.769-27.337 23.73-40.961A4258 4258 0 0 0 166.5 306q7.212-12.523 14.5-25c7.384-12.637 14.695-25.317 22-38 7.876-13.674 15.769-27.337 23.73-40.961A4276 4276 0 0 0 239.5 180c6.573-11.404 13.166-22.796 19.83-34.147 1.665-2.845 3.316-5.698 4.967-8.552l3.14-5.363 1.394-2.434c9.481-16.047 20.508-18.108 38.156-17.998"/><path fill="#2667b7" d="M53 512h58l3 9c1.379 2.755 2.779 5.4 4.313 8.063l1.305 2.308c4.816 8.475 9.752 16.882 14.679 25.293 3.74 6.389 7.444 12.797 11.14 19.211l1.886 3.271 3.786 6.572q4.693 8.142 9.391 16.282 5.646 9.783 11.285 19.57A5992 5992 0 0 0 190 653c6.747 11.547 13.433 23.129 20.109 34.718q4.693 8.143 9.391 16.282 5.646 9.783 11.285 19.57A5992 5992 0 0 0 249 755q7.255 12.417 14.438 24.875l1.886 3.271a8660 8660 0 0 1 9.43 16.397c6.412 11.17 12.872 22.312 19.433 33.394l1.891 3.233 1.777 2.982 1.552 2.625c1.714 2.391 3.101 3.67 5.593 5.223 2.451.445 2.451.445 5.137.374l3.144.021 3.432-.023 3.628.011q4.918.008 9.836-.013c3.43-.011 6.86-.007 10.291-.005q8.638 0 17.275-.029c6.662-.021 13.324-.024 19.986-.018q9.609.006 19.219-.011 4.092-.007 8.184-.004 5.707-.002 11.413-.028l3.445.007 3.127-.021 2.727-.007c2.368-.053 2.368-.053 4.156-2.254-.315-4.339-1.516-7.4-3.738-11.098l-1.717-2.894-1.858-3.07-3.863-6.504c-.646-1.085-1.293-2.169-1.96-3.286-2.676-4.518-5.273-9.08-7.864-13.648a2179 2179 0 0 0-13-22.5 2556 2556 0 0 1-14.388-24.921c-8.733-15.32-17.578-30.575-26.418-45.833q-5.731-9.9-11.444-19.808l-1.92-3.328q-4.818-8.352-9.63-16.708a6467 6467 0 0 0-19.93-34.363 4832 4832 0 0 1-14.667-25.332c-4.154-7.21-8.339-14.4-12.54-21.582-5.733-9.804-11.383-19.654-17.007-29.52a4852 4852 0 0 0-16.097-27.993A3447 3447 0 0 1 247 524l-1.534-2.627-1.392-2.424-1.22-2.103C242 515 242 515 242 512h271l14 25a5203 5203 0 0 0 17.519 30.554 3372 3372 0 0 1 17.784 31.124q5.226 9.27 10.51 18.51l1.462 2.556q3.288 5.749 6.581 11.495c7.184 12.537 14.348 25.083 21.394 37.698a2963 2963 0 0 0 22.34 39.27c9.198 15.897 18.225 31.881 27.156 47.93 6.878 12.356 13.844 24.648 21.004 36.844 4.173 7.124 8.235 14.305 12.25 21.519 7.39 13.274 15.043 26.389 22.754 39.478a565 565 0 0 1 9.719 17.213c2.79 5.132 5.665 10.217 8.527 15.309 4.386 7.805 8.732 15.63 13 23.5-3.674 2.353-7.21 2.283-11.43 2.26l-2.286.012c-2.544.01-5.086.006-7.63.002l-5.508.016c-5.056.014-10.113.016-15.17.015-5.45.002-10.899.015-16.348.027-11.922.022-23.843.03-35.765.035q-11.163.006-22.326.017-30.9.032-61.8.04h-3.998l-12.043.002h-2.013q-31.298.006-62.597.061-35.16.062-70.32.065c-12.41 0-24.822.009-37.234.038q-15.853.038-31.707.017c-5.392-.008-10.785-.007-16.177.016q-7.409.03-14.816-.003-2.678-.005-5.354.016c-11.497.086-20.21-.853-29.166-8.71-4.31-4.678-7.246-10.204-10.312-15.739l-2.957-5.23a2040 2040 0 0 1-3.04-5.4c-3.117-5.548-6.315-11.05-9.503-16.557l-3.746-6.492-1.875-3.25q-2.834-4.913-5.664-9.828A5992 5992 0 0 0 220 810c-8.023-13.73-15.959-27.51-23.896-41.291a6958 6958 0 0 0-21.835-37.67 4893 4893 0 0 1-14.664-25.328A4171 4171 0 0 0 147 684c-8.023-13.73-15.959-27.51-23.896-41.291a6958 6958 0 0 0-21.835-37.67 4935 4935 0 0 1-14.657-25.317 4102 4102 0 0 0-12.8-22.034Q70.405 551.846 67 546l-1.743-2.987a2857 2857 0 0 1-5.007-8.638l-1.52-2.603C54.723 524.808 53 520.285 53 512"/><path fill="#e6e7e7" d="m309.13 175.626 3.14-.021 3.428.023 3.622-.011c3.275-.007 6.55 0 9.824.013 3.427.011 6.855.007 10.282.005q8.631 0 17.262.029c6.654.021 13.308.024 19.962.018q9.602-.007 19.203.011 4.087.007 8.173.004 5.703.002 11.406.028l3.433-.007 3.132.021 2.724.007C427 176 427 176 430 178c.54 4.432-.206 7.085-2.5 10.852l-1.664 2.784-1.836 2.989q-1.941 3.24-3.879 6.484l-2.055 3.42c-3.08 5.151-6.04 10.37-9.005 15.589q-2.52 4.432-5.05 8.859l-1.01 1.772a4740 4740 0 0 1-24.938 43.126c-5.74 9.816-11.396 19.68-17.03 29.558a6821 6821 0 0 1-19.174 33.35q-4.682 8.106-9.359 16.217l-5.625 9.75-35.625 61.75-5.623 9.746a25831 25831 0 0 0-9.412 16.324 5631 5631 0 0 1-16.841 29.078 3768 3768 0 0 0-3.566 6.12c-2.454 4.22-4.916 8.43-7.46 12.595l-1.16 1.933a555 555 0 0 1-2.93 4.802c-1.643 3.791-1.874 5.778-1.258 9.902 1.718 3.837 3.843 7.396 6 11q1.673 2.922 3.34 5.848 1.797 3.109 3.598 6.214l6.042 10.446c3.18 5.494 6.349 10.993 9.52 16.492l3.75 6.5 24.375 42.25 3.748 6.496a25831 25831 0 0 1 9.412 16.324A5992 5992 0 0 0 331 668c6.743 11.54 13.425 23.114 20.096 34.696q2.88 4.995 5.763 9.988a6599 6599 0 0 1 17.391 30.253 4234 4234 0 0 0 21.896 37.872c5.55 9.497 11.06 19.016 16.506 28.573q5.174 9.077 10.41 18.118l1.374 2.374 1.287 2.22 1.19 2.061a162 162 0 0 0 2.907 4.708c1.18 2.137 1.18 2.137.993 4.824C430 846 430 846 428 848c-2.15.26-2.15.26-4.87.274l-3.118.03-3.435.002-3.607.026q-4.906.029-9.812.035-3.066.006-6.133.017-10.698.037-21.398.042c-6.645.003-13.29.033-19.934.075q-8.559.051-17.119.05c-3.407.002-6.814.01-10.222.039-3.804.027-7.607.022-11.412.01l-3.41.044c-8.518-.08-8.518-.08-12.156-3.01-2.425-2.69-4.215-5.234-5.968-8.404l-1.91-3.404-1.996-3.639a1961 1961 0 0 0-2.119-3.786 2419 2419 0 0 1-3.24-5.79c-3.321-5.96-6.75-11.853-10.203-17.736-8.01-13.685-15.92-27.426-23.834-41.166C245.43 750.123 238.745 738.544 232 727c-8.023-13.73-15.959-27.51-23.896-41.291C201.43 674.123 194.745 662.544 188 651c-6.747-11.547-13.433-23.129-20.109-34.718Q163.198 608.14 158.5 600a29898 29898 0 0 1-15.062-26.125l-1.872-3.248a3412 3412 0 0 0-11.09-19.073c-19.618-33.503-19.618-33.503-19.726-38.679l-.078-2.195c.981-8.017 5.516-14.766 9.578-21.555q1.902-3.217 3.8-6.438l1.98-3.343c3.173-5.385 6.29-10.802 9.408-16.219l3.777-6.555 1.894-3.288q4.693-8.142 9.391-16.282l11.25-19.5 1.875-3.25 3.748-6.496a25831 25831 0 0 0 9.412-16.324 6559 6559 0 0 1 19.948-34.396c6.166-10.56 12.272-21.155 18.376-31.752q4.693-8.143 9.391-16.282l3.75-6.5 7.5-13 1.875-3.25 3.748-6.496a25831 25831 0 0 0 9.412-16.324 6307 6307 0 0 1 19.935-34.372c3.737-6.397 7.447-12.81 11.142-19.232q3.734-6.486 7.483-12.964 1.564-2.704 3.123-5.412a1033 1033 0 0 1 3.72-6.388l1.98-3.402c3.078-4.47 5.521-6.035 10.962-6.034"/><path fill="#e3e3e3" d="M745.863 219.79c4.758 1.836 6.028 5.202 8.324 9.585l2.887 5.242 1.47 2.718c2.24 4.101 4.6 8.13 6.956 12.165a6575 6575 0 0 1 4.125 7.125l16.5 28.499q1.377 2.381 2.757 4.762 3.383 5.843 6.763 11.688a6813 6813 0 0 0 15.105 25.988 5445 5445 0 0 1 16.637 28.714c4.242 7.36 8.512 14.703 12.8 22.036a2478 2478 0 0 1 14.275 24.756c3.802 6.67 7.662 13.305 11.538 19.932a2624 2624 0 0 1 14.676 25.425q4.821 8.46 9.699 16.887l1.325 2.29c2.64 4.554 5.296 9.1 7.96 13.64l1.9 3.241q1.83 3.126 3.67 6.247 1.668 2.846 3.305 5.709a157 157 0 0 0 2.762 4.657c3.171 5.48 3.817 10.667 2.703 16.904-1.621 4.166-3.803 7.876-6.125 11.688l-1.916 3.277a875 875 0 0 1-3.988 6.736 814 814 0 0 0-5.49 9.346 2689 2689 0 0 1-6.918 11.863 3035 3035 0 0 0-11 18.965l-1.887 3.273-3.785 6.57Q868.198 597.86 863.5 606l-3.738 6.48q-3.807 6.6-7.617 13.196a6016 6016 0 0 0-17.207 29.949c-4.786 8.394-9.642 16.745-14.519 25.087C813.563 692.446 806.783 704.223 800 716c-7.87 13.664-15.756 27.318-23.713 40.93a3164 3164 0 0 0-10.302 17.76 8356 8356 0 0 0-4.837 8.408 1385 1385 0 0 1-8.46 14.535l-1.426 2.41C750 802 750 802 748 804c-2.375.438-2.375.438-5 0-2.81-3.134-4.942-6.433-6.96-10.113l-1.657-2.994-1.758-3.206c-4.776-8.623-9.629-17.19-14.625-25.687-5.406-9.209-10.67-18.489-15.869-27.816a2459 2459 0 0 0-14.608-25.786l-1.294-2.278a118 118 0 0 0-2.45-4.045c-2.468-3.956-3.187-6.45-2.779-11.075 1.139-2.655 1.139-2.655 2.754-5.36l1.816-3.09c.658-1.088 1.315-2.178 1.992-3.3q1.028-1.735 2.051-3.473 2.127-3.607 4.27-7.205c3.263-5.49 6.435-11.034 9.617-16.572l3.75-6.5 1.875-3.25 35.625-61.75 1.876-3.252 13.265-22.994 1.94-3.364q1.9-3.294 3.792-6.593c2.868-4.991 5.762-9.959 8.764-14.871l1.57-2.602q1.424-2.359 2.896-4.689c2.836-4.72 4.355-8.62 3.147-14.135-1.216-2.996-2.838-5.646-4.562-8.375l-3.036-5.023-1.66-2.718c-3.168-5.244-6.194-10.57-9.242-15.884a13620 13620 0 0 0-17.19-29.738l-8.193-14.15q-3.383-5.842-6.762-11.686a5772 5772 0 0 0-13.503-23.239 2963 2963 0 0 1-16.508-28.578 2508 2508 0 0 0-11.604-20.132 781 781 0 0 1-2.49-4.315 217 217 0 0 0-2.676-4.496l-1.39-2.338-1.268-2.08c-1.636-4.014-1.394-7.11.27-11.074l1.673-2.928 1.863-3.304 2.028-3.505q1.04-1.827 2.076-3.658 2.09-3.684 4.204-7.354 2.55-4.436 5.075-8.886c2.413-4.243 4.84-8.478 7.271-12.71 2.456-4.278 4.902-8.562 7.348-12.845q2.02-3.537 4.044-7.073a3676 3676 0 0 0 9.583-16.834q2.199-3.886 4.402-7.769 1.051-1.857 2.098-3.716 1.453-2.582 2.919-5.158l1.675-2.967c3.393-5.381 3.393-5.381 7.418-5.678"/></svg>